<?xml version="1.0" encoding="utf-8" standalone="no"?>
<!DOCTYPE svg PUBLIC "-//W3C//DTD SVG 1.1//EN"
  "http://www.w3.org/Graphics/SVG/1.1/DTD/svg11.dtd">
<svg xmlns:xlink="http://www.w3.org/1999/xlink" width="720pt" height="432pt" viewBox="0 0 720 432" xmlns="http://www.w3.org/2000/svg" version="1.1">
 <metadata>
  <rdf:RDF xmlns:dc="http://purl.org/dc/elements/1.1/" xmlns:cc="http://creativecommons.org/ns#" xmlns:rdf="http://www.w3.org/1999/02/22-rdf-syntax-ns#">
   <cc:Work>
    <dc:type rdf:resource="http://purl.org/dc/dcmitype/StillImage"/>
    <dc:date>2025-01-22T14:55:49.207712</dc:date>
    <dc:format>image/svg+xml</dc:format>
    <dc:creator>
     <cc:Agent>
      <dc:title>Matplotlib v3.9.3, https://matplotlib.org/</dc:title>
     </cc:Agent>
    </dc:creator>
   </cc:Work>
  </rdf:RDF>
 </metadata>
 <defs>
  <style type="text/css">*{stroke-linejoin: round; stroke-linecap: butt}</style>
 </defs>
 <g id="figure_1">
  <g id="patch_1">
   <path d="M 0 432 
L 720 432 
L 720 0 
L 0 0 
z
" style="fill: #ffffff"/>
  </g>
  <g id="axes_1">
   <g id="patch_2">
    <path d="M 90 384.48 
L 648 384.48 
L 648 51.84 
L 90 51.84 
z
" style="fill: #ffffff"/>
   </g>
   <g id="PolyCollection_1">
    <defs>
     <path id="me4948afbed" d="M 115.363636 -112.337116 
L 115.363636 -47.52 
L 116.662811 -47.52 
L 117.961985 -47.52 
L 119.26116 -47.52 
L 120.560334 -47.52 
L 121.859509 -47.52 
L 123.158683 -47.52 
L 124.457858 -47.52 
L 125.757032 -47.52 
L 127.056207 -47.52 
L 128.355381 -47.52 
L 129.654556 -47.52 
L 130.95373 -47.52 
L 132.252905 -47.52 
L 133.552079 -47.52 
L 134.851254 -47.52 
L 136.150428 -47.52 
L 137.449603 -47.52 
L 138.748777 -47.52 
L 140.047952 -47.52 
L 141.347126 -47.52 
L 142.646301 -47.52 
L 143.945475 -47.52 
L 145.24465 -47.52 
L 146.543824 -47.52 
L 147.842999 -47.52 
L 149.142173 -47.52 
L 150.441348 -47.52 
L 151.740522 -47.52 
L 153.039697 -47.52 
L 154.338871 -47.52 
L 155.638046 -47.52 
L 156.93722 -47.52 
L 158.236395 -47.52 
L 159.535569 -47.52 
L 160.834744 -47.52 
L 162.133918 -47.52 
L 163.433093 -47.52 
L 164.732267 -47.52 
L 166.031442 -47.52 
L 167.330616 -47.52 
L 168.629791 -47.52 
L 169.928965 -47.52 
L 171.22814 -47.52 
L 172.527314 -47.52 
L 173.826489 -47.52 
L 175.125663 -47.52 
L 176.424837 -47.52 
L 177.724012 -47.52 
L 179.023186 -47.52 
L 180.322361 -47.52 
L 181.621535 -47.52 
L 182.92071 -47.52 
L 184.219884 -47.52 
L 185.519059 -47.52 
L 186.818233 -47.52 
L 188.117408 -47.52 
L 189.416582 -47.52 
L 190.715757 -47.52 
L 192.014931 -47.52 
L 193.314106 -47.52 
L 194.61328 -47.52 
L 195.912455 -47.52 
L 197.211629 -47.52 
L 198.510804 -47.52 
L 199.809978 -47.52 
L 201.109153 -47.52 
L 202.408327 -47.52 
L 203.707502 -47.52 
L 205.006676 -47.52 
L 206.305851 -47.52 
L 207.605025 -47.52 
L 208.9042 -47.52 
L 210.203374 -47.52 
L 211.502549 -47.52 
L 212.801723 -47.52 
L 214.100898 -47.52 
L 215.400072 -47.52 
L 216.699247 -47.52 
L 217.998421 -47.52 
L 219.297596 -47.52 
L 220.59677 -47.52 
L 221.895945 -47.52 
L 223.195119 -47.52 
L 224.494294 -47.52 
L 225.793468 -47.52 
L 227.092643 -47.52 
L 228.391817 -47.52 
L 229.690992 -47.52 
L 230.990166 -47.52 
L 232.289341 -47.52 
L 233.588515 -47.52 
L 234.88769 -47.52 
L 236.186864 -47.52 
L 237.486039 -47.52 
L 238.785213 -47.52 
L 240.084388 -47.52 
L 241.383562 -47.52 
L 242.682737 -47.52 
L 243.981911 -47.52 
L 245.281086 -47.52 
L 246.58026 -47.52 
L 247.879435 -47.52 
L 249.178609 -47.52 
L 250.477784 -47.52 
L 251.776958 -47.52 
L 253.076133 -47.52 
L 254.375307 -47.52 
L 255.674482 -47.52 
L 256.973656 -47.52 
L 258.272831 -47.52 
L 259.572005 -47.52 
L 260.871179 -47.52 
L 262.170354 -47.52 
L 263.469528 -47.52 
L 264.768703 -47.52 
L 266.067877 -47.52 
L 267.367052 -47.52 
L 268.666226 -47.52 
L 269.965401 -47.52 
L 271.264575 -47.52 
L 272.56375 -47.52 
L 273.862924 -47.52 
L 275.162099 -47.52 
L 276.461273 -47.52 
L 277.760448 -47.52 
L 279.059622 -47.52 
L 280.358797 -47.52 
L 281.657971 -47.52 
L 282.957146 -47.52 
L 284.25632 -47.52 
L 285.555495 -47.52 
L 286.854669 -47.52 
L 288.153844 -47.52 
L 289.453018 -47.52 
L 290.752193 -47.52 
L 292.051367 -47.52 
L 293.350542 -47.52 
L 294.649716 -47.52 
L 295.948891 -47.52 
L 297.248065 -47.52 
L 298.54724 -47.52 
L 299.846414 -47.52 
L 301.145589 -47.52 
L 302.444763 -47.52 
L 303.743938 -47.52 
L 305.043112 -47.52 
L 306.342287 -47.52 
L 307.641461 -47.52 
L 308.940636 -47.52 
L 310.23981 -47.52 
L 311.538985 -47.52 
L 312.838159 -47.52 
L 314.137334 -47.52 
L 315.436508 -47.52 
L 316.735683 -47.52 
L 318.034857 -47.52 
L 319.334032 -47.52 
L 320.633206 -47.52 
L 321.932381 -47.52 
L 323.231555 -47.52 
L 324.53073 -47.52 
L 325.829904 -47.52 
L 327.129079 -47.52 
L 328.428253 -47.52 
L 329.727428 -47.52 
L 331.026602 -47.52 
L 332.325777 -47.52 
L 333.624951 -47.52 
L 334.924126 -47.52 
L 336.2233 -47.52 
L 337.522475 -47.52 
L 338.821649 -47.52 
L 340.120824 -47.52 
L 341.419998 -47.52 
L 342.719173 -47.52 
L 344.018347 -47.52 
L 345.317521 -47.52 
L 346.616696 -47.52 
L 347.91587 -47.52 
L 349.215045 -47.52 
L 350.514219 -47.52 
L 351.813394 -47.52 
L 353.112568 -47.52 
L 354.411743 -47.52 
L 355.710917 -47.52 
L 357.010092 -47.52 
L 358.309266 -47.52 
L 359.608441 -47.52 
L 360.907615 -47.52 
L 362.20679 -47.52 
L 363.505964 -47.52 
L 364.805139 -47.52 
L 366.104313 -47.52 
L 367.403488 -47.52 
L 368.702662 -47.52 
L 370.001837 -47.52 
L 371.301011 -47.52 
L 372.600186 -47.52 
L 373.89936 -47.52 
L 373.89936 -47.520713 
L 373.89936 -47.520713 
L 372.600186 -47.522769 
L 371.301011 -47.528728 
L 370.001837 -47.542562 
L 368.702662 -47.568539 
L 367.403488 -47.608504 
L 366.104313 -47.659538 
L 364.805139 -47.713707 
L 363.505964 -47.759695 
L 362.20679 -47.785536 
L 360.907615 -47.782449 
L 359.608441 -47.749174 
L 358.309266 -47.694316 
L 357.010092 -47.63366 
L 355.710917 -47.582552 
L 354.411743 -47.548668 
L 353.112568 -47.530823 
L 351.813394 -47.523338 
L 350.514219 -47.520837 
L 349.215045 -47.520179 
L 347.91587 -47.520092 
L 346.616696 -47.520345 
L 345.317521 -47.52144 
L 344.018347 -47.524887 
L 342.719173 -47.533455 
L 341.419998 -47.550552 
L 340.120824 -47.578807 
L 338.821649 -47.619899 
L 337.522475 -47.67669 
L 336.2233 -47.753947 
L 334.924126 -47.853478 
L 333.624951 -47.96767 
L 332.325777 -48.079837 
L 331.026602 -48.170987 
L 329.727428 -48.224546 
L 328.428253 -48.227815 
L 327.129079 -48.177582 
L 325.829904 -48.088587 
L 324.53073 -47.991947 
L 323.231555 -47.919053 
L 321.932381 -47.884209 
L 320.633206 -47.882861 
L 319.334032 -47.907264 
L 318.034857 -47.962927 
L 316.735683 -48.066327 
L 315.436508 -48.222017 
L 314.137334 -48.400709 
L 312.838159 -48.546481 
L 311.538985 -48.61436 
L 310.23981 -48.601485 
L 308.940636 -48.540106 
L 307.641461 -48.469177 
L 306.342287 -48.421757 
L 305.043112 -48.43093 
L 303.743938 -48.528608 
L 302.444763 -48.728273 
L 301.145589 -49.008537 
L 299.846414 -49.317265 
L 298.54724 -49.600861 
L 297.248065 -49.836084 
L 295.948891 -50.027364 
L 294.649716 -50.172072 
L 293.350542 -50.248549 
L 292.051367 -50.251372 
L 290.752193 -50.22238 
L 289.453018 -50.233062 
L 288.153844 -50.344159 
L 286.854669 -50.577866 
L 285.555495 -50.898724 
L 284.25632 -51.207435 
L 282.957146 -51.380056 
L 281.657971 -51.347835 
L 280.358797 -51.153839 
L 279.059622 -50.936751 
L 277.760448 -50.853828 
L 276.461273 -50.989442 
L 275.162099 -51.305879 
L 273.862924 -51.679583 
L 272.56375 -51.995974 
L 271.264575 -52.212373 
L 269.965401 -52.341746 
L 268.666226 -52.404097 
L 267.367052 -52.407099 
L 266.067877 -52.357191 
L 264.768703 -52.267377 
L 263.469528 -52.150562 
L 262.170354 -52.015934 
L 260.871179 -51.87896 
L 259.572005 -51.77189 
L 258.272831 -51.74113 
L 256.973656 -51.832426 
L 255.674482 -52.064765 
L 254.375307 -52.39958 
L 253.076133 -52.73822 
L 251.776958 -52.974121 
L 250.477784 -53.067245 
L 249.178609 -53.075069 
L 247.879435 -53.116008 
L 246.58026 -53.300009 
L 245.281086 -53.676252 
L 243.981911 -54.229761 
L 242.682737 -54.919656 
L 241.383562 -55.705078 
L 240.084388 -56.524919 
L 238.785213 -57.286031 
L 237.486039 -57.920119 
L 236.186864 -58.457265 
L 234.88769 -59.023625 
L 233.588515 -59.766581 
L 232.289341 -60.765721 
L 230.990166 -61.955577 
L 229.690992 -63.11413 
L 228.391817 -64.005631 
L 227.092643 -64.608696 
L 225.793468 -65.178079 
L 224.494294 -66.034743 
L 223.195119 -67.305158 
L 221.895945 -68.872473 
L 220.59677 -70.540094 
L 219.297596 -72.214134 
L 217.998421 -73.958672 
L 216.699247 -75.930881 
L 215.400072 -78.280444 
L 214.100898 -81.069948 
L 212.801723 -84.246822 
L 211.502549 -87.699121 
L 210.203374 -91.365844 
L 208.9042 -95.289509 
L 207.605025 -99.555254 
L 206.305851 -104.20002 
L 205.006676 -109.181077 
L 203.707502 -114.397624 
L 202.408327 -119.755292 
L 201.109153 -125.283892 
L 199.809978 -131.222927 
L 198.510804 -137.930662 
L 197.211629 -145.607967 
L 195.912455 -154.039 
L 194.61328 -162.613876 
L 193.314106 -170.683121 
L 192.014931 -177.97023 
L 190.715757 -184.700734 
L 189.416582 -191.362417 
L 188.117408 -198.322385 
L 186.818233 -205.631631 
L 185.519059 -213.157677 
L 184.219884 -220.864797 
L 182.92071 -228.939988 
L 181.621535 -237.644624 
L 180.322361 -247.030146 
L 179.023186 -256.791328 
L 177.724012 -266.458909 
L 176.424837 -275.799469 
L 175.125663 -284.965855 
L 173.826489 -294.151097 
L 172.527314 -303.151377 
L 171.22814 -311.455863 
L 169.928965 -318.814334 
L 168.629791 -325.547103 
L 167.330616 -332.201023 
L 166.031442 -339.052014 
L 164.732267 -346.009864 
L 163.433093 -352.727921 
L 162.133918 -358.562756 
L 160.834744 -362.633891 
L 159.535569 -364.32 
L 158.236395 -363.836516 
L 156.93722 -362.224838 
L 155.638046 -360.660625 
L 154.338871 -359.665382 
L 153.039697 -358.823646 
L 151.740522 -357.085411 
L 150.441348 -353.268895 
L 149.142173 -346.426777 
L 147.842999 -336.129232 
L 146.543824 -322.792321 
L 145.24465 -307.792289 
L 143.945475 -292.92455 
L 142.646301 -279.254796 
L 141.347126 -266.179456 
L 140.047952 -251.705305 
L 138.748777 -234.010218 
L 137.449603 -212.937104 
L 136.150428 -189.980111 
L 134.851254 -167.018845 
L 133.552079 -145.348771 
L 132.252905 -125.721876 
L 130.95373 -108.675642 
L 129.654556 -94.457083 
L 128.355381 -82.818857 
L 127.056207 -73.215341 
L 125.757032 -65.279822 
L 124.457858 -59.090073 
L 123.158683 -55.18148 
L 121.859509 -54.693568 
L 120.560334 -59.516126 
L 119.26116 -71.308409 
L 117.961985 -88.745695 
L 116.662811 -105.380109 
L 115.363636 -112.337116 
z
" style="stroke: #1f77b4"/>
    </defs>
    <g clip-path="url(#p91ae547785)">
     <use xlink:href="#me4948afbed" x="0" y="432" style="fill: #1f77b4; fill-opacity: 0.25; stroke: #1f77b4"/>
    </g>
   </g>
   <g id="PolyCollection_2">
    <defs>
     <path id="m9d9c9d03b8" d="M 123.817688 -47.520042 
L 123.817688 -47.52 
L 126.324315 -47.52 
L 128.830942 -47.52 
L 131.337568 -47.52 
L 133.844195 -47.52 
L 136.350821 -47.52 
L 138.857448 -47.52 
L 141.364074 -47.52 
L 143.870701 -47.52 
L 146.377327 -47.52 
L 148.883954 -47.52 
L 151.39058 -47.52 
L 153.897207 -47.52 
L 156.403833 -47.52 
L 158.91046 -47.52 
L 161.417086 -47.52 
L 163.923713 -47.52 
L 166.430339 -47.52 
L 168.936966 -47.52 
L 171.443592 -47.52 
L 173.950219 -47.52 
L 176.456845 -47.52 
L 178.963472 -47.52 
L 181.470098 -47.52 
L 183.976725 -47.52 
L 186.483351 -47.52 
L 188.989978 -47.52 
L 191.496604 -47.52 
L 194.003231 -47.52 
L 196.509857 -47.52 
L 199.016484 -47.52 
L 201.52311 -47.52 
L 204.029737 -47.52 
L 206.536363 -47.52 
L 209.04299 -47.52 
L 211.549616 -47.52 
L 214.056243 -47.52 
L 216.562869 -47.52 
L 219.069496 -47.52 
L 221.576122 -47.52 
L 224.082749 -47.52 
L 226.589375 -47.52 
L 229.096002 -47.52 
L 231.602628 -47.52 
L 234.109255 -47.52 
L 236.615881 -47.52 
L 239.122508 -47.52 
L 241.629134 -47.52 
L 244.135761 -47.52 
L 246.642387 -47.52 
L 249.149014 -47.52 
L 251.65564 -47.52 
L 254.162267 -47.52 
L 256.668893 -47.52 
L 259.17552 -47.52 
L 261.682146 -47.52 
L 264.188773 -47.52 
L 266.695399 -47.52 
L 269.202026 -47.52 
L 271.708652 -47.52 
L 274.215279 -47.52 
L 276.721905 -47.52 
L 279.228532 -47.52 
L 281.735159 -47.52 
L 284.241785 -47.52 
L 286.748412 -47.52 
L 289.255038 -47.52 
L 291.761665 -47.52 
L 294.268291 -47.52 
L 296.774918 -47.52 
L 299.281544 -47.52 
L 301.788171 -47.52 
L 304.294797 -47.52 
L 306.801424 -47.52 
L 309.30805 -47.52 
L 311.814677 -47.52 
L 314.321303 -47.52 
L 316.82793 -47.52 
L 319.334556 -47.52 
L 321.841183 -47.52 
L 324.347809 -47.52 
L 326.854436 -47.52 
L 329.361062 -47.52 
L 331.867689 -47.52 
L 334.374315 -47.52 
L 336.880942 -47.52 
L 339.387568 -47.52 
L 341.894195 -47.52 
L 344.400821 -47.52 
L 346.907448 -47.52 
L 349.414074 -47.52 
L 351.920701 -47.52 
L 354.427327 -47.52 
L 356.933954 -47.52 
L 359.44058 -47.52 
L 361.947207 -47.52 
L 364.453833 -47.52 
L 366.96046 -47.52 
L 369.467086 -47.52 
L 371.973713 -47.52 
L 374.480339 -47.52 
L 376.986966 -47.52 
L 379.493592 -47.52 
L 382.000219 -47.52 
L 384.506845 -47.52 
L 387.013472 -47.52 
L 389.520098 -47.52 
L 392.026725 -47.52 
L 394.533351 -47.52 
L 397.039978 -47.52 
L 399.546604 -47.52 
L 402.053231 -47.52 
L 404.559857 -47.52 
L 407.066484 -47.52 
L 409.57311 -47.52 
L 412.079737 -47.52 
L 414.586363 -47.52 
L 417.09299 -47.52 
L 419.599616 -47.52 
L 422.106243 -47.52 
L 424.612869 -47.52 
L 427.119496 -47.52 
L 429.626122 -47.52 
L 432.132749 -47.52 
L 434.639376 -47.52 
L 437.146002 -47.52 
L 439.652629 -47.52 
L 442.159255 -47.52 
L 444.665882 -47.52 
L 447.172508 -47.52 
L 449.679135 -47.52 
L 452.185761 -47.52 
L 454.692388 -47.52 
L 457.199014 -47.52 
L 459.705641 -47.52 
L 462.212267 -47.52 
L 464.718894 -47.52 
L 467.22552 -47.52 
L 469.732147 -47.52 
L 472.238773 -47.52 
L 474.7454 -47.52 
L 477.252026 -47.52 
L 479.758653 -47.52 
L 482.265279 -47.52 
L 484.771906 -47.52 
L 487.278532 -47.52 
L 489.785159 -47.52 
L 492.291785 -47.52 
L 494.798412 -47.52 
L 497.305038 -47.52 
L 499.811665 -47.52 
L 502.318291 -47.52 
L 504.824918 -47.52 
L 507.331544 -47.52 
L 509.838171 -47.52 
L 512.344797 -47.52 
L 514.851424 -47.52 
L 517.35805 -47.52 
L 519.864677 -47.52 
L 522.371303 -47.52 
L 524.87793 -47.52 
L 527.384556 -47.52 
L 529.891183 -47.52 
L 532.397809 -47.52 
L 534.904436 -47.52 
L 537.411062 -47.52 
L 539.917689 -47.52 
L 542.424315 -47.52 
L 544.930942 -47.52 
L 547.437568 -47.52 
L 549.944195 -47.52 
L 552.450821 -47.52 
L 554.957448 -47.52 
L 557.464074 -47.52 
L 559.970701 -47.52 
L 562.477327 -47.52 
L 564.983954 -47.52 
L 567.49058 -47.52 
L 569.997207 -47.52 
L 572.503833 -47.52 
L 575.01046 -47.52 
L 577.517086 -47.52 
L 580.023713 -47.52 
L 582.53034 -47.52 
L 585.036966 -47.52 
L 587.543593 -47.52 
L 590.050219 -47.52 
L 592.556846 -47.52 
L 595.063472 -47.52 
L 597.570099 -47.52 
L 600.076725 -47.52 
L 602.583352 -47.52 
L 605.089978 -47.52 
L 607.596605 -47.52 
L 610.103231 -47.52 
L 612.609858 -47.52 
L 615.116484 -47.52 
L 617.623111 -47.52 
L 620.129737 -47.52 
L 622.636364 -47.52 
L 622.636364 -47.520012 
L 622.636364 -47.520012 
L 620.129737 -47.52013 
L 617.623111 -47.520603 
L 615.116484 -47.521397 
L 612.609858 -47.522171 
L 610.103231 -47.522779 
L 607.596605 -47.523101 
L 605.089978 -47.52443 
L 602.583352 -47.527413 
L 600.076725 -47.531621 
L 597.570099 -47.536233 
L 595.063472 -47.541965 
L 592.556846 -47.550865 
L 590.050219 -47.564424 
L 587.543593 -47.579039 
L 585.036966 -47.587076 
L 582.53034 -47.588942 
L 580.023713 -47.595876 
L 577.517086 -47.617398 
L 575.01046 -47.647818 
L 572.503833 -47.672276 
L 569.997207 -47.692366 
L 567.49058 -47.723322 
L 564.983954 -47.7669 
L 562.477327 -47.806799 
L 559.970701 -47.830873 
L 557.464074 -47.855648 
L 554.957448 -47.894195 
L 552.450821 -47.932847 
L 549.944195 -47.976219 
L 547.437568 -48.041169 
L 544.930942 -48.127039 
L 542.424315 -48.224775 
L 539.917689 -48.301979 
L 537.411062 -48.355471 
L 534.904436 -48.41185 
L 532.397809 -48.48098 
L 529.891183 -48.559269 
L 527.384556 -48.649769 
L 524.87793 -48.774167 
L 522.371303 -48.92142 
L 519.864677 -49.048128 
L 517.35805 -49.149976 
L 514.851424 -49.257608 
L 512.344797 -49.377789 
L 509.838171 -49.497417 
L 507.331544 -49.622567 
L 504.824918 -49.781311 
L 502.318291 -49.999153 
L 499.811665 -50.26965 
L 497.305038 -50.563656 
L 494.798412 -50.890363 
L 492.291785 -51.242281 
L 489.785159 -51.616273 
L 487.278532 -52.047954 
L 484.771906 -52.556468 
L 482.265279 -53.119024 
L 479.758653 -53.71761 
L 477.252026 -54.306063 
L 474.7454 -54.853228 
L 472.238773 -55.440661 
L 469.732147 -56.110327 
L 467.22552 -56.805387 
L 464.718894 -57.503429 
L 462.212267 -58.286607 
L 459.705641 -59.183688 
L 457.199014 -60.070849 
L 454.692388 -60.98229 
L 452.185761 -62.024549 
L 449.679135 -63.23074 
L 447.172508 -64.536885 
L 444.665882 -65.809828 
L 442.159255 -67.088638 
L 439.652629 -68.510638 
L 437.146002 -70.109749 
L 434.639376 -71.900907 
L 432.132749 -73.809495 
L 429.626122 -75.70857 
L 427.119496 -77.649224 
L 424.612869 -79.739138 
L 422.106243 -82.025482 
L 419.599616 -84.510118 
L 417.09299 -87.164105 
L 414.586363 -89.989328 
L 412.079737 -92.96693 
L 409.57311 -96.145561 
L 407.066484 -99.494572 
L 404.559857 -102.730201 
L 402.053231 -105.868021 
L 399.546604 -109.223947 
L 397.039978 -112.774214 
L 394.533351 -116.364493 
L 392.026725 -119.927845 
L 389.520098 -123.329988 
L 387.013472 -126.710206 
L 384.506845 -130.146022 
L 382.000219 -133.52952 
L 379.493592 -136.86077 
L 376.986966 -140.147031 
L 374.480339 -143.255152 
L 371.973713 -145.893215 
L 369.467086 -148.222098 
L 366.96046 -150.515616 
L 364.453833 -152.681953 
L 361.947207 -154.68486 
L 359.44058 -156.626723 
L 356.933954 -158.190182 
L 354.427327 -159.451871 
L 351.920701 -160.987438 
L 349.414074 -162.549845 
L 346.907448 -163.824814 
L 344.400821 -164.82838 
L 341.894195 -165.551647 
L 339.387568 -166.207747 
L 336.880942 -166.939085 
L 334.374315 -167.714491 
L 331.867689 -168.284766 
L 329.361062 -168.462229 
L 326.854436 -168.359214 
L 324.347809 -168.081211 
L 321.841183 -167.473417 
L 319.334556 -166.440845 
L 316.82793 -165.140837 
L 314.321303 -163.682347 
L 311.814677 -161.830073 
L 309.30805 -159.313922 
L 306.801424 -156.560702 
L 304.294797 -154.089912 
L 301.788171 -151.58933 
L 299.281544 -148.771918 
L 296.774918 -145.87207 
L 294.268291 -142.778567 
L 291.761665 -139.302632 
L 289.255038 -135.793974 
L 286.748412 -132.400935 
L 284.241785 -129.009573 
L 281.735159 -125.510536 
L 279.228532 -121.759963 
L 276.721905 -117.880461 
L 274.215279 -114.10451 
L 271.708652 -110.361744 
L 269.202026 -106.51665 
L 266.695399 -102.709083 
L 264.188773 -99.18262 
L 261.682146 -95.929446 
L 259.17552 -92.927102 
L 256.668893 -90.129631 
L 254.162267 -87.40011 
L 251.65564 -84.825041 
L 249.149014 -82.603228 
L 246.642387 -80.738452 
L 244.135761 -78.994183 
L 241.629134 -77.168849 
L 239.122508 -75.425457 
L 236.615881 -73.870605 
L 234.109255 -72.379259 
L 231.602628 -70.909198 
L 229.096002 -69.539831 
L 226.589375 -68.191383 
L 224.082749 -66.913733 
L 221.576122 -65.850242 
L 219.069496 -64.923509 
L 216.562869 -63.980401 
L 214.056243 -62.992095 
L 211.549616 -62.100076 
L 209.04299 -61.310047 
L 206.536363 -60.556335 
L 204.029737 -59.809382 
L 201.52311 -59.004469 
L 199.016484 -58.127151 
L 196.509857 -57.2147 
L 194.003231 -56.33537 
L 191.496604 -55.542623 
L 188.989978 -54.792118 
L 186.483351 -53.98407 
L 183.976725 -53.121003 
L 181.470098 -52.281028 
L 178.963472 -51.510974 
L 176.456845 -50.819191 
L 173.950219 -50.214219 
L 171.443592 -49.713679 
L 168.936966 -49.289359 
L 166.430339 -48.925497 
L 163.923713 -48.621317 
L 161.417086 -48.357178 
L 158.91046 -48.145941 
L 156.403833 -47.988879 
L 153.897207 -47.875994 
L 151.39058 -47.794035 
L 148.883954 -47.724074 
L 146.377327 -47.662216 
L 143.870701 -47.610492 
L 141.364074 -47.571823 
L 138.857448 -47.548132 
L 136.350821 -47.536556 
L 133.844195 -47.530603 
L 131.337568 -47.526164 
L 128.830942 -47.522381 
L 126.324315 -47.520469 
L 123.817688 -47.520042 
z
" style="stroke: #ff7f0e"/>
    </defs>
    <g clip-path="url(#p91ae547785)">
     <use xlink:href="#m9d9c9d03b8" x="0" y="432" style="fill: #ff7f0e; fill-opacity: 0.25; stroke: #ff7f0e"/>
    </g>
   </g>
   <g id="matplotlib.axis_1">
    <g id="xtick_1">
     <g id="line2d_1">
      <defs>
       <path id="md6e94d571a" d="M 0 0 
L 0 3.5 
" style="stroke: #000000; stroke-width: 0.8"/>
      </defs>
      <g>
       <use xlink:href="#md6e94d571a" x="115.363636" y="384.48" style="stroke: #000000; stroke-width: 0.8"/>
      </g>
     </g>
     <g id="text_1">
      <!-- 0 -->
      <g transform="translate(112.182386 399.078438) scale(0.1 -0.1)">
       <defs>
        <path id="DejaVuSans-30" d="M 2034 4250 
Q 1547 4250 1301 3770 
Q 1056 3291 1056 2328 
Q 1056 1369 1301 889 
Q 1547 409 2034 409 
Q 2525 409 2770 889 
Q 3016 1369 3016 2328 
Q 3016 3291 2770 3770 
Q 2525 4250 2034 4250 
z
M 2034 4750 
Q 2819 4750 3233 4129 
Q 3647 3509 3647 2328 
Q 3647 1150 3233 529 
Q 2819 -91 2034 -91 
Q 1250 -91 836 529 
Q 422 1150 422 2328 
Q 422 3509 836 4129 
Q 1250 4750 2034 4750 
z
" transform="scale(0.015625)"/>
       </defs>
       <use xlink:href="#DejaVuSans-30"/>
      </g>
     </g>
    </g>
    <g id="xtick_2">
     <g id="line2d_2">
      <g>
       <use xlink:href="#md6e94d571a" x="203.702496" y="384.48" style="stroke: #000000; stroke-width: 0.8"/>
      </g>
     </g>
     <g id="text_2">
      <!-- 50 -->
      <g transform="translate(197.339996 399.078438) scale(0.1 -0.1)">
       <defs>
        <path id="DejaVuSans-35" d="M 691 4666 
L 3169 4666 
L 3169 4134 
L 1269 4134 
L 1269 2991 
Q 1406 3038 1543 3061 
Q 1681 3084 1819 3084 
Q 2600 3084 3056 2656 
Q 3513 2228 3513 1497 
Q 3513 744 3044 326 
Q 2575 -91 1722 -91 
Q 1428 -91 1123 -41 
Q 819 9 494 109 
L 494 744 
Q 775 591 1075 516 
Q 1375 441 1709 441 
Q 2250 441 2565 725 
Q 2881 1009 2881 1497 
Q 2881 1984 2565 2268 
Q 2250 2553 1709 2553 
Q 1456 2553 1204 2497 
Q 953 2441 691 2322 
L 691 4666 
z
" transform="scale(0.015625)"/>
       </defs>
       <use xlink:href="#DejaVuSans-35"/>
       <use xlink:href="#DejaVuSans-30" x="63.623047"/>
      </g>
     </g>
    </g>
    <g id="xtick_3">
     <g id="line2d_3">
      <g>
       <use xlink:href="#md6e94d571a" x="292.041355" y="384.48" style="stroke: #000000; stroke-width: 0.8"/>
      </g>
     </g>
     <g id="text_3">
      <!-- 100 -->
      <g transform="translate(282.497605 399.078438) scale(0.1 -0.1)">
       <defs>
        <path id="DejaVuSans-31" d="M 794 531 
L 1825 531 
L 1825 4091 
L 703 3866 
L 703 4441 
L 1819 4666 
L 2450 4666 
L 2450 531 
L 3481 531 
L 3481 0 
L 794 0 
L 794 531 
z
" transform="scale(0.015625)"/>
       </defs>
       <use xlink:href="#DejaVuSans-31"/>
       <use xlink:href="#DejaVuSans-30" x="63.623047"/>
       <use xlink:href="#DejaVuSans-30" x="127.246094"/>
      </g>
     </g>
    </g>
    <g id="xtick_4">
     <g id="line2d_4">
      <g>
       <use xlink:href="#md6e94d571a" x="380.380214" y="384.48" style="stroke: #000000; stroke-width: 0.8"/>
      </g>
     </g>
     <g id="text_4">
      <!-- 150 -->
      <g transform="translate(370.836464 399.078438) scale(0.1 -0.1)">
       <use xlink:href="#DejaVuSans-31"/>
       <use xlink:href="#DejaVuSans-35" x="63.623047"/>
       <use xlink:href="#DejaVuSans-30" x="127.246094"/>
      </g>
     </g>
    </g>
    <g id="xtick_5">
     <g id="line2d_5">
      <g>
       <use xlink:href="#md6e94d571a" x="468.719073" y="384.48" style="stroke: #000000; stroke-width: 0.8"/>
      </g>
     </g>
     <g id="text_5">
      <!-- 200 -->
      <g transform="translate(459.175323 399.078438) scale(0.1 -0.1)">
       <defs>
        <path id="DejaVuSans-32" d="M 1228 531 
L 3431 531 
L 3431 0 
L 469 0 
L 469 531 
Q 828 903 1448 1529 
Q 2069 2156 2228 2338 
Q 2531 2678 2651 2914 
Q 2772 3150 2772 3378 
Q 2772 3750 2511 3984 
Q 2250 4219 1831 4219 
Q 1534 4219 1204 4116 
Q 875 4013 500 3803 
L 500 4441 
Q 881 4594 1212 4672 
Q 1544 4750 1819 4750 
Q 2544 4750 2975 4387 
Q 3406 4025 3406 3419 
Q 3406 3131 3298 2873 
Q 3191 2616 2906 2266 
Q 2828 2175 2409 1742 
Q 1991 1309 1228 531 
z
" transform="scale(0.015625)"/>
       </defs>
       <use xlink:href="#DejaVuSans-32"/>
       <use xlink:href="#DejaVuSans-30" x="63.623047"/>
       <use xlink:href="#DejaVuSans-30" x="127.246094"/>
      </g>
     </g>
    </g>
    <g id="xtick_6">
     <g id="line2d_6">
      <g>
       <use xlink:href="#md6e94d571a" x="557.057932" y="384.48" style="stroke: #000000; stroke-width: 0.8"/>
      </g>
     </g>
     <g id="text_6">
      <!-- 250 -->
      <g transform="translate(547.514182 399.078438) scale(0.1 -0.1)">
       <use xlink:href="#DejaVuSans-32"/>
       <use xlink:href="#DejaVuSans-35" x="63.623047"/>
       <use xlink:href="#DejaVuSans-30" x="127.246094"/>
      </g>
     </g>
    </g>
    <g id="xtick_7">
     <g id="line2d_7">
      <g>
       <use xlink:href="#md6e94d571a" x="645.396792" y="384.48" style="stroke: #000000; stroke-width: 0.8"/>
      </g>
     </g>
     <g id="text_7">
      <!-- 300 -->
      <g transform="translate(635.853042 399.078438) scale(0.1 -0.1)">
       <defs>
        <path id="DejaVuSans-33" d="M 2597 2516 
Q 3050 2419 3304 2112 
Q 3559 1806 3559 1356 
Q 3559 666 3084 287 
Q 2609 -91 1734 -91 
Q 1441 -91 1130 -33 
Q 819 25 488 141 
L 488 750 
Q 750 597 1062 519 
Q 1375 441 1716 441 
Q 2309 441 2620 675 
Q 2931 909 2931 1356 
Q 2931 1769 2642 2001 
Q 2353 2234 1838 2234 
L 1294 2234 
L 1294 2753 
L 1863 2753 
Q 2328 2753 2575 2939 
Q 2822 3125 2822 3475 
Q 2822 3834 2567 4026 
Q 2313 4219 1838 4219 
Q 1578 4219 1281 4162 
Q 984 4106 628 3988 
L 628 4550 
Q 988 4650 1302 4700 
Q 1616 4750 1894 4750 
Q 2613 4750 3031 4423 
Q 3450 4097 3450 3541 
Q 3450 3153 3228 2886 
Q 3006 2619 2597 2516 
z
" transform="scale(0.015625)"/>
       </defs>
       <use xlink:href="#DejaVuSans-33"/>
       <use xlink:href="#DejaVuSans-30" x="63.623047"/>
       <use xlink:href="#DejaVuSans-30" x="127.246094"/>
      </g>
     </g>
    </g>
    <g id="text_8">
     <!-- Distance -->
     <g transform="translate(347.1375 412.756563) scale(0.1 -0.1)">
      <defs>
       <path id="DejaVuSans-44" d="M 1259 4147 
L 1259 519 
L 2022 519 
Q 2988 519 3436 956 
Q 3884 1394 3884 2338 
Q 3884 3275 3436 3711 
Q 2988 4147 2022 4147 
L 1259 4147 
z
M 628 4666 
L 1925 4666 
Q 3281 4666 3915 4102 
Q 4550 3538 4550 2338 
Q 4550 1131 3912 565 
Q 3275 0 1925 0 
L 628 0 
L 628 4666 
z
" transform="scale(0.015625)"/>
       <path id="DejaVuSans-69" d="M 603 3500 
L 1178 3500 
L 1178 0 
L 603 0 
L 603 3500 
z
M 603 4863 
L 1178 4863 
L 1178 4134 
L 603 4134 
L 603 4863 
z
" transform="scale(0.015625)"/>
       <path id="DejaVuSans-73" d="M 2834 3397 
L 2834 2853 
Q 2591 2978 2328 3040 
Q 2066 3103 1784 3103 
Q 1356 3103 1142 2972 
Q 928 2841 928 2578 
Q 928 2378 1081 2264 
Q 1234 2150 1697 2047 
L 1894 2003 
Q 2506 1872 2764 1633 
Q 3022 1394 3022 966 
Q 3022 478 2636 193 
Q 2250 -91 1575 -91 
Q 1294 -91 989 -36 
Q 684 19 347 128 
L 347 722 
Q 666 556 975 473 
Q 1284 391 1588 391 
Q 1994 391 2212 530 
Q 2431 669 2431 922 
Q 2431 1156 2273 1281 
Q 2116 1406 1581 1522 
L 1381 1569 
Q 847 1681 609 1914 
Q 372 2147 372 2553 
Q 372 3047 722 3315 
Q 1072 3584 1716 3584 
Q 2034 3584 2315 3537 
Q 2597 3491 2834 3397 
z
" transform="scale(0.015625)"/>
       <path id="DejaVuSans-74" d="M 1172 4494 
L 1172 3500 
L 2356 3500 
L 2356 3053 
L 1172 3053 
L 1172 1153 
Q 1172 725 1289 603 
Q 1406 481 1766 481 
L 2356 481 
L 2356 0 
L 1766 0 
Q 1100 0 847 248 
Q 594 497 594 1153 
L 594 3053 
L 172 3053 
L 172 3500 
L 594 3500 
L 594 4494 
L 1172 4494 
z
" transform="scale(0.015625)"/>
       <path id="DejaVuSans-61" d="M 2194 1759 
Q 1497 1759 1228 1600 
Q 959 1441 959 1056 
Q 959 750 1161 570 
Q 1363 391 1709 391 
Q 2188 391 2477 730 
Q 2766 1069 2766 1631 
L 2766 1759 
L 2194 1759 
z
M 3341 1997 
L 3341 0 
L 2766 0 
L 2766 531 
Q 2569 213 2275 61 
Q 1981 -91 1556 -91 
Q 1019 -91 701 211 
Q 384 513 384 1019 
Q 384 1609 779 1909 
Q 1175 2209 1959 2209 
L 2766 2209 
L 2766 2266 
Q 2766 2663 2505 2880 
Q 2244 3097 1772 3097 
Q 1472 3097 1187 3025 
Q 903 2953 641 2809 
L 641 3341 
Q 956 3463 1253 3523 
Q 1550 3584 1831 3584 
Q 2591 3584 2966 3190 
Q 3341 2797 3341 1997 
z
" transform="scale(0.015625)"/>
       <path id="DejaVuSans-6e" d="M 3513 2113 
L 3513 0 
L 2938 0 
L 2938 2094 
Q 2938 2591 2744 2837 
Q 2550 3084 2163 3084 
Q 1697 3084 1428 2787 
Q 1159 2491 1159 1978 
L 1159 0 
L 581 0 
L 581 3500 
L 1159 3500 
L 1159 2956 
Q 1366 3272 1645 3428 
Q 1925 3584 2291 3584 
Q 2894 3584 3203 3211 
Q 3513 2838 3513 2113 
z
" transform="scale(0.015625)"/>
       <path id="DejaVuSans-63" d="M 3122 3366 
L 3122 2828 
Q 2878 2963 2633 3030 
Q 2388 3097 2138 3097 
Q 1578 3097 1268 2742 
Q 959 2388 959 1747 
Q 959 1106 1268 751 
Q 1578 397 2138 397 
Q 2388 397 2633 464 
Q 2878 531 3122 666 
L 3122 134 
Q 2881 22 2623 -34 
Q 2366 -91 2075 -91 
Q 1284 -91 818 406 
Q 353 903 353 1747 
Q 353 2603 823 3093 
Q 1294 3584 2113 3584 
Q 2378 3584 2631 3529 
Q 2884 3475 3122 3366 
z
" transform="scale(0.015625)"/>
       <path id="DejaVuSans-65" d="M 3597 1894 
L 3597 1613 
L 953 1613 
Q 991 1019 1311 708 
Q 1631 397 2203 397 
Q 2534 397 2845 478 
Q 3156 559 3463 722 
L 3463 178 
Q 3153 47 2828 -22 
Q 2503 -91 2169 -91 
Q 1331 -91 842 396 
Q 353 884 353 1716 
Q 353 2575 817 3079 
Q 1281 3584 2069 3584 
Q 2775 3584 3186 3129 
Q 3597 2675 3597 1894 
z
M 3022 2063 
Q 3016 2534 2758 2815 
Q 2500 3097 2075 3097 
Q 1594 3097 1305 2825 
Q 1016 2553 972 2059 
L 3022 2063 
z
" transform="scale(0.015625)"/>
      </defs>
      <use xlink:href="#DejaVuSans-44"/>
      <use xlink:href="#DejaVuSans-69" x="77.001953"/>
      <use xlink:href="#DejaVuSans-73" x="104.785156"/>
      <use xlink:href="#DejaVuSans-74" x="156.884766"/>
      <use xlink:href="#DejaVuSans-61" x="196.09375"/>
      <use xlink:href="#DejaVuSans-6e" x="257.373047"/>
      <use xlink:href="#DejaVuSans-63" x="320.751953"/>
      <use xlink:href="#DejaVuSans-65" x="375.732422"/>
     </g>
    </g>
   </g>
   <g id="matplotlib.axis_2">
    <g id="ytick_1">
     <g id="line2d_8">
      <defs>
       <path id="m9587b9361c" d="M 0 0 
L -3.5 0 
" style="stroke: #000000; stroke-width: 0.8"/>
      </defs>
      <g>
       <use xlink:href="#m9587b9361c" x="90" y="384.48" style="stroke: #000000; stroke-width: 0.8"/>
      </g>
     </g>
     <g id="text_9">
      <!-- 0.000 -->
      <g transform="translate(54.371875 388.279219) scale(0.1 -0.1)">
       <defs>
        <path id="DejaVuSans-2e" d="M 684 794 
L 1344 794 
L 1344 0 
L 684 0 
L 684 794 
z
" transform="scale(0.015625)"/>
       </defs>
       <use xlink:href="#DejaVuSans-30"/>
       <use xlink:href="#DejaVuSans-2e" x="63.623047"/>
       <use xlink:href="#DejaVuSans-30" x="95.410156"/>
       <use xlink:href="#DejaVuSans-30" x="159.033203"/>
       <use xlink:href="#DejaVuSans-30" x="222.65625"/>
      </g>
     </g>
    </g>
    <g id="ytick_2">
     <g id="line2d_9">
      <g>
       <use xlink:href="#m9587b9361c" x="90" y="335.638192" style="stroke: #000000; stroke-width: 0.8"/>
      </g>
     </g>
     <g id="text_10">
      <!-- 0.005 -->
      <g transform="translate(54.371875 339.43741) scale(0.1 -0.1)">
       <use xlink:href="#DejaVuSans-30"/>
       <use xlink:href="#DejaVuSans-2e" x="63.623047"/>
       <use xlink:href="#DejaVuSans-30" x="95.410156"/>
       <use xlink:href="#DejaVuSans-30" x="159.033203"/>
       <use xlink:href="#DejaVuSans-35" x="222.65625"/>
      </g>
     </g>
    </g>
    <g id="ytick_3">
     <g id="line2d_10">
      <g>
       <use xlink:href="#m9587b9361c" x="90" y="286.796383" style="stroke: #000000; stroke-width: 0.8"/>
      </g>
     </g>
     <g id="text_11">
      <!-- 0.010 -->
      <g transform="translate(54.371875 290.595602) scale(0.1 -0.1)">
       <use xlink:href="#DejaVuSans-30"/>
       <use xlink:href="#DejaVuSans-2e" x="63.623047"/>
       <use xlink:href="#DejaVuSans-30" x="95.410156"/>
       <use xlink:href="#DejaVuSans-31" x="159.033203"/>
       <use xlink:href="#DejaVuSans-30" x="222.65625"/>
      </g>
     </g>
    </g>
    <g id="ytick_4">
     <g id="line2d_11">
      <g>
       <use xlink:href="#m9587b9361c" x="90" y="237.954575" style="stroke: #000000; stroke-width: 0.8"/>
      </g>
     </g>
     <g id="text_12">
      <!-- 0.015 -->
      <g transform="translate(54.371875 241.753794) scale(0.1 -0.1)">
       <use xlink:href="#DejaVuSans-30"/>
       <use xlink:href="#DejaVuSans-2e" x="63.623047"/>
       <use xlink:href="#DejaVuSans-30" x="95.410156"/>
       <use xlink:href="#DejaVuSans-31" x="159.033203"/>
       <use xlink:href="#DejaVuSans-35" x="222.65625"/>
      </g>
     </g>
    </g>
    <g id="ytick_5">
     <g id="line2d_12">
      <g>
       <use xlink:href="#m9587b9361c" x="90" y="189.112766" style="stroke: #000000; stroke-width: 0.8"/>
      </g>
     </g>
     <g id="text_13">
      <!-- 0.020 -->
      <g transform="translate(54.371875 192.911985) scale(0.1 -0.1)">
       <use xlink:href="#DejaVuSans-30"/>
       <use xlink:href="#DejaVuSans-2e" x="63.623047"/>
       <use xlink:href="#DejaVuSans-30" x="95.410156"/>
       <use xlink:href="#DejaVuSans-32" x="159.033203"/>
       <use xlink:href="#DejaVuSans-30" x="222.65625"/>
      </g>
     </g>
    </g>
    <g id="ytick_6">
     <g id="line2d_13">
      <g>
       <use xlink:href="#m9587b9361c" x="90" y="140.270958" style="stroke: #000000; stroke-width: 0.8"/>
      </g>
     </g>
     <g id="text_14">
      <!-- 0.025 -->
      <g transform="translate(54.371875 144.070177) scale(0.1 -0.1)">
       <use xlink:href="#DejaVuSans-30"/>
       <use xlink:href="#DejaVuSans-2e" x="63.623047"/>
       <use xlink:href="#DejaVuSans-30" x="95.410156"/>
       <use xlink:href="#DejaVuSans-32" x="159.033203"/>
       <use xlink:href="#DejaVuSans-35" x="222.65625"/>
      </g>
     </g>
    </g>
    <g id="ytick_7">
     <g id="line2d_14">
      <g>
       <use xlink:href="#m9587b9361c" x="90" y="91.42915" style="stroke: #000000; stroke-width: 0.8"/>
      </g>
     </g>
     <g id="text_15">
      <!-- 0.030 -->
      <g transform="translate(54.371875 95.228368) scale(0.1 -0.1)">
       <use xlink:href="#DejaVuSans-30"/>
       <use xlink:href="#DejaVuSans-2e" x="63.623047"/>
       <use xlink:href="#DejaVuSans-30" x="95.410156"/>
       <use xlink:href="#DejaVuSans-33" x="159.033203"/>
       <use xlink:href="#DejaVuSans-30" x="222.65625"/>
      </g>
     </g>
    </g>
    <g id="text_16">
     <!-- Density -->
     <g transform="translate(48.292187 237.168594) rotate(-90) scale(0.1 -0.1)">
      <defs>
       <path id="DejaVuSans-79" d="M 2059 -325 
Q 1816 -950 1584 -1140 
Q 1353 -1331 966 -1331 
L 506 -1331 
L 506 -850 
L 844 -850 
Q 1081 -850 1212 -737 
Q 1344 -625 1503 -206 
L 1606 56 
L 191 3500 
L 800 3500 
L 1894 763 
L 2988 3500 
L 3597 3500 
L 2059 -325 
z
" transform="scale(0.015625)"/>
      </defs>
      <use xlink:href="#DejaVuSans-44"/>
      <use xlink:href="#DejaVuSans-65" x="77.001953"/>
      <use xlink:href="#DejaVuSans-6e" x="138.525391"/>
      <use xlink:href="#DejaVuSans-73" x="201.904297"/>
      <use xlink:href="#DejaVuSans-69" x="254.003906"/>
      <use xlink:href="#DejaVuSans-74" x="281.787109"/>
      <use xlink:href="#DejaVuSans-79" x="320.996094"/>
     </g>
    </g>
   </g>
   <g id="patch_3">
    <path d="M 90 384.48 
L 90 51.84 
" style="fill: none; stroke: #000000; stroke-width: 0.8; stroke-linejoin: miter; stroke-linecap: square"/>
   </g>
   <g id="patch_4">
    <path d="M 648 384.48 
L 648 51.84 
" style="fill: none; stroke: #000000; stroke-width: 0.8; stroke-linejoin: miter; stroke-linecap: square"/>
   </g>
   <g id="patch_5">
    <path d="M 90 384.48 
L 648 384.48 
" style="fill: none; stroke: #000000; stroke-width: 0.8; stroke-linejoin: miter; stroke-linecap: square"/>
   </g>
   <g id="patch_6">
    <path d="M 90 51.84 
L 648 51.84 
" style="fill: none; stroke: #000000; stroke-width: 0.8; stroke-linejoin: miter; stroke-linecap: square"/>
   </g>
   <g id="text_17">
    <!-- Distribution of Distances - Unknown structures -->
    <g transform="translate(228.953438 45.84) scale(0.12 -0.12)">
     <defs>
      <path id="DejaVuSans-72" d="M 2631 2963 
Q 2534 3019 2420 3045 
Q 2306 3072 2169 3072 
Q 1681 3072 1420 2755 
Q 1159 2438 1159 1844 
L 1159 0 
L 581 0 
L 581 3500 
L 1159 3500 
L 1159 2956 
Q 1341 3275 1631 3429 
Q 1922 3584 2338 3584 
Q 2397 3584 2469 3576 
Q 2541 3569 2628 3553 
L 2631 2963 
z
" transform="scale(0.015625)"/>
      <path id="DejaVuSans-62" d="M 3116 1747 
Q 3116 2381 2855 2742 
Q 2594 3103 2138 3103 
Q 1681 3103 1420 2742 
Q 1159 2381 1159 1747 
Q 1159 1113 1420 752 
Q 1681 391 2138 391 
Q 2594 391 2855 752 
Q 3116 1113 3116 1747 
z
M 1159 2969 
Q 1341 3281 1617 3432 
Q 1894 3584 2278 3584 
Q 2916 3584 3314 3078 
Q 3713 2572 3713 1747 
Q 3713 922 3314 415 
Q 2916 -91 2278 -91 
Q 1894 -91 1617 61 
Q 1341 213 1159 525 
L 1159 0 
L 581 0 
L 581 4863 
L 1159 4863 
L 1159 2969 
z
" transform="scale(0.015625)"/>
      <path id="DejaVuSans-75" d="M 544 1381 
L 544 3500 
L 1119 3500 
L 1119 1403 
Q 1119 906 1312 657 
Q 1506 409 1894 409 
Q 2359 409 2629 706 
Q 2900 1003 2900 1516 
L 2900 3500 
L 3475 3500 
L 3475 0 
L 2900 0 
L 2900 538 
Q 2691 219 2414 64 
Q 2138 -91 1772 -91 
Q 1169 -91 856 284 
Q 544 659 544 1381 
z
M 1991 3584 
L 1991 3584 
z
" transform="scale(0.015625)"/>
      <path id="DejaVuSans-6f" d="M 1959 3097 
Q 1497 3097 1228 2736 
Q 959 2375 959 1747 
Q 959 1119 1226 758 
Q 1494 397 1959 397 
Q 2419 397 2687 759 
Q 2956 1122 2956 1747 
Q 2956 2369 2687 2733 
Q 2419 3097 1959 3097 
z
M 1959 3584 
Q 2709 3584 3137 3096 
Q 3566 2609 3566 1747 
Q 3566 888 3137 398 
Q 2709 -91 1959 -91 
Q 1206 -91 779 398 
Q 353 888 353 1747 
Q 353 2609 779 3096 
Q 1206 3584 1959 3584 
z
" transform="scale(0.015625)"/>
      <path id="DejaVuSans-20" transform="scale(0.015625)"/>
      <path id="DejaVuSans-66" d="M 2375 4863 
L 2375 4384 
L 1825 4384 
Q 1516 4384 1395 4259 
Q 1275 4134 1275 3809 
L 1275 3500 
L 2222 3500 
L 2222 3053 
L 1275 3053 
L 1275 0 
L 697 0 
L 697 3053 
L 147 3053 
L 147 3500 
L 697 3500 
L 697 3744 
Q 697 4328 969 4595 
Q 1241 4863 1831 4863 
L 2375 4863 
z
" transform="scale(0.015625)"/>
      <path id="DejaVuSans-2d" d="M 313 2009 
L 1997 2009 
L 1997 1497 
L 313 1497 
L 313 2009 
z
" transform="scale(0.015625)"/>
      <path id="DejaVuSans-55" d="M 556 4666 
L 1191 4666 
L 1191 1831 
Q 1191 1081 1462 751 
Q 1734 422 2344 422 
Q 2950 422 3222 751 
Q 3494 1081 3494 1831 
L 3494 4666 
L 4128 4666 
L 4128 1753 
Q 4128 841 3676 375 
Q 3225 -91 2344 -91 
Q 1459 -91 1007 375 
Q 556 841 556 1753 
L 556 4666 
z
" transform="scale(0.015625)"/>
      <path id="DejaVuSans-6b" d="M 581 4863 
L 1159 4863 
L 1159 1991 
L 2875 3500 
L 3609 3500 
L 1753 1863 
L 3688 0 
L 2938 0 
L 1159 1709 
L 1159 0 
L 581 0 
L 581 4863 
z
" transform="scale(0.015625)"/>
      <path id="DejaVuSans-77" d="M 269 3500 
L 844 3500 
L 1563 769 
L 2278 3500 
L 2956 3500 
L 3675 769 
L 4391 3500 
L 4966 3500 
L 4050 0 
L 3372 0 
L 2619 2869 
L 1863 0 
L 1184 0 
L 269 3500 
z
" transform="scale(0.015625)"/>
     </defs>
     <use xlink:href="#DejaVuSans-44"/>
     <use xlink:href="#DejaVuSans-69" x="77.001953"/>
     <use xlink:href="#DejaVuSans-73" x="104.785156"/>
     <use xlink:href="#DejaVuSans-74" x="156.884766"/>
     <use xlink:href="#DejaVuSans-72" x="196.09375"/>
     <use xlink:href="#DejaVuSans-69" x="237.207031"/>
     <use xlink:href="#DejaVuSans-62" x="264.990234"/>
     <use xlink:href="#DejaVuSans-75" x="328.466797"/>
     <use xlink:href="#DejaVuSans-74" x="391.845703"/>
     <use xlink:href="#DejaVuSans-69" x="431.054688"/>
     <use xlink:href="#DejaVuSans-6f" x="458.837891"/>
     <use xlink:href="#DejaVuSans-6e" x="520.019531"/>
     <use xlink:href="#DejaVuSans-20" x="583.398438"/>
     <use xlink:href="#DejaVuSans-6f" x="615.185547"/>
     <use xlink:href="#DejaVuSans-66" x="676.367188"/>
     <use xlink:href="#DejaVuSans-20" x="711.572266"/>
     <use xlink:href="#DejaVuSans-44" x="743.359375"/>
     <use xlink:href="#DejaVuSans-69" x="820.361328"/>
     <use xlink:href="#DejaVuSans-73" x="848.144531"/>
     <use xlink:href="#DejaVuSans-74" x="900.244141"/>
     <use xlink:href="#DejaVuSans-61" x="939.453125"/>
     <use xlink:href="#DejaVuSans-6e" x="1000.732422"/>
     <use xlink:href="#DejaVuSans-63" x="1064.111328"/>
     <use xlink:href="#DejaVuSans-65" x="1119.091797"/>
     <use xlink:href="#DejaVuSans-73" x="1180.615234"/>
     <use xlink:href="#DejaVuSans-20" x="1232.714844"/>
     <use xlink:href="#DejaVuSans-2d" x="1264.501953"/>
     <use xlink:href="#DejaVuSans-20" x="1300.585938"/>
     <use xlink:href="#DejaVuSans-55" x="1332.373047"/>
     <use xlink:href="#DejaVuSans-6e" x="1405.566406"/>
     <use xlink:href="#DejaVuSans-6b" x="1468.945312"/>
     <use xlink:href="#DejaVuSans-6e" x="1526.855469"/>
     <use xlink:href="#DejaVuSans-6f" x="1590.234375"/>
     <use xlink:href="#DejaVuSans-77" x="1651.416016"/>
     <use xlink:href="#DejaVuSans-6e" x="1733.203125"/>
     <use xlink:href="#DejaVuSans-20" x="1796.582031"/>
     <use xlink:href="#DejaVuSans-73" x="1828.369141"/>
     <use xlink:href="#DejaVuSans-74" x="1880.46875"/>
     <use xlink:href="#DejaVuSans-72" x="1919.677734"/>
     <use xlink:href="#DejaVuSans-75" x="1960.791016"/>
     <use xlink:href="#DejaVuSans-63" x="2024.169922"/>
     <use xlink:href="#DejaVuSans-74" x="2079.150391"/>
     <use xlink:href="#DejaVuSans-75" x="2118.359375"/>
     <use xlink:href="#DejaVuSans-72" x="2181.738281"/>
     <use xlink:href="#DejaVuSans-65" x="2220.601562"/>
     <use xlink:href="#DejaVuSans-73" x="2282.125"/>
    </g>
   </g>
   <g id="legend_1">
    <g id="patch_7">
     <path d="M 510.13125 89.19625 
L 641 89.19625 
Q 643 89.19625 643 87.19625 
L 643 58.84 
Q 643 56.84 641 56.84 
L 510.13125 56.84 
Q 508.13125 56.84 508.13125 58.84 
L 508.13125 87.19625 
Q 508.13125 89.19625 510.13125 89.19625 
z
" style="fill: #ffffff; opacity: 0.8; stroke: #cccccc; stroke-linejoin: miter"/>
    </g>
    <g id="patch_8">
     <path d="M 512.13125 68.438437 
L 532.13125 68.438437 
L 532.13125 61.438437 
L 512.13125 61.438437 
z
" style="fill: #1f77b4; fill-opacity: 0.25; stroke: #1f77b4; stroke-linejoin: miter"/>
    </g>
    <g id="text_18">
     <!-- Same Structure -->
     <g transform="translate(540.13125 68.438437) scale(0.1 -0.1)">
      <defs>
       <path id="DejaVuSans-53" d="M 3425 4513 
L 3425 3897 
Q 3066 4069 2747 4153 
Q 2428 4238 2131 4238 
Q 1616 4238 1336 4038 
Q 1056 3838 1056 3469 
Q 1056 3159 1242 3001 
Q 1428 2844 1947 2747 
L 2328 2669 
Q 3034 2534 3370 2195 
Q 3706 1856 3706 1288 
Q 3706 609 3251 259 
Q 2797 -91 1919 -91 
Q 1588 -91 1214 -16 
Q 841 59 441 206 
L 441 856 
Q 825 641 1194 531 
Q 1563 422 1919 422 
Q 2459 422 2753 634 
Q 3047 847 3047 1241 
Q 3047 1584 2836 1778 
Q 2625 1972 2144 2069 
L 1759 2144 
Q 1053 2284 737 2584 
Q 422 2884 422 3419 
Q 422 4038 858 4394 
Q 1294 4750 2059 4750 
Q 2388 4750 2728 4690 
Q 3069 4631 3425 4513 
z
" transform="scale(0.015625)"/>
       <path id="DejaVuSans-6d" d="M 3328 2828 
Q 3544 3216 3844 3400 
Q 4144 3584 4550 3584 
Q 5097 3584 5394 3201 
Q 5691 2819 5691 2113 
L 5691 0 
L 5113 0 
L 5113 2094 
Q 5113 2597 4934 2840 
Q 4756 3084 4391 3084 
Q 3944 3084 3684 2787 
Q 3425 2491 3425 1978 
L 3425 0 
L 2847 0 
L 2847 2094 
Q 2847 2600 2669 2842 
Q 2491 3084 2119 3084 
Q 1678 3084 1418 2786 
Q 1159 2488 1159 1978 
L 1159 0 
L 581 0 
L 581 3500 
L 1159 3500 
L 1159 2956 
Q 1356 3278 1631 3431 
Q 1906 3584 2284 3584 
Q 2666 3584 2933 3390 
Q 3200 3197 3328 2828 
z
" transform="scale(0.015625)"/>
      </defs>
      <use xlink:href="#DejaVuSans-53"/>
      <use xlink:href="#DejaVuSans-61" x="63.476562"/>
      <use xlink:href="#DejaVuSans-6d" x="124.755859"/>
      <use xlink:href="#DejaVuSans-65" x="222.167969"/>
      <use xlink:href="#DejaVuSans-20" x="283.691406"/>
      <use xlink:href="#DejaVuSans-53" x="315.478516"/>
      <use xlink:href="#DejaVuSans-74" x="378.955078"/>
      <use xlink:href="#DejaVuSans-72" x="418.164062"/>
      <use xlink:href="#DejaVuSans-75" x="459.277344"/>
      <use xlink:href="#DejaVuSans-63" x="522.65625"/>
      <use xlink:href="#DejaVuSans-74" x="577.636719"/>
      <use xlink:href="#DejaVuSans-75" x="616.845703"/>
      <use xlink:href="#DejaVuSans-72" x="680.224609"/>
      <use xlink:href="#DejaVuSans-65" x="719.087891"/>
     </g>
    </g>
    <g id="patch_9">
     <path d="M 512.13125 83.116562 
L 532.13125 83.116562 
L 532.13125 76.116562 
L 512.13125 76.116562 
z
" style="fill: #ff7f0e; fill-opacity: 0.25; stroke: #ff7f0e; stroke-linejoin: miter"/>
    </g>
    <g id="text_19">
     <!-- Different Structures -->
     <g transform="translate(540.13125 83.116562) scale(0.1 -0.1)">
      <use xlink:href="#DejaVuSans-44"/>
      <use xlink:href="#DejaVuSans-69" x="77.001953"/>
      <use xlink:href="#DejaVuSans-66" x="104.785156"/>
      <use xlink:href="#DejaVuSans-66" x="139.990234"/>
      <use xlink:href="#DejaVuSans-65" x="175.195312"/>
      <use xlink:href="#DejaVuSans-72" x="236.71875"/>
      <use xlink:href="#DejaVuSans-65" x="275.582031"/>
      <use xlink:href="#DejaVuSans-6e" x="337.105469"/>
      <use xlink:href="#DejaVuSans-74" x="400.484375"/>
      <use xlink:href="#DejaVuSans-20" x="439.693359"/>
      <use xlink:href="#DejaVuSans-53" x="471.480469"/>
      <use xlink:href="#DejaVuSans-74" x="534.957031"/>
      <use xlink:href="#DejaVuSans-72" x="574.166016"/>
      <use xlink:href="#DejaVuSans-75" x="615.279297"/>
      <use xlink:href="#DejaVuSans-63" x="678.658203"/>
      <use xlink:href="#DejaVuSans-74" x="733.638672"/>
      <use xlink:href="#DejaVuSans-75" x="772.847656"/>
      <use xlink:href="#DejaVuSans-72" x="836.226562"/>
      <use xlink:href="#DejaVuSans-65" x="875.089844"/>
      <use xlink:href="#DejaVuSans-73" x="936.613281"/>
     </g>
    </g>
   </g>
  </g>
 </g>
 <defs>
  <clipPath id="p91ae547785">
   <rect x="90" y="51.84" width="558" height="332.64"/>
  </clipPath>
 </defs>
</svg>
