<?xml version="1.0" encoding="utf-8" standalone="no"?>
<!DOCTYPE svg PUBLIC "-//W3C//DTD SVG 1.1//EN"
  "http://www.w3.org/Graphics/SVG/1.1/DTD/svg11.dtd">
<svg xmlns:xlink="http://www.w3.org/1999/xlink" width="720pt" height="432pt" viewBox="0 0 720 432" xmlns="http://www.w3.org/2000/svg" version="1.1">
 <metadata>
  <rdf:RDF xmlns:dc="http://purl.org/dc/elements/1.1/" xmlns:cc="http://creativecommons.org/ns#" xmlns:rdf="http://www.w3.org/1999/02/22-rdf-syntax-ns#">
   <cc:Work>
    <dc:type rdf:resource="http://purl.org/dc/dcmitype/StillImage"/>
    <dc:date>2025-01-22T14:55:49.663212</dc:date>
    <dc:format>image/svg+xml</dc:format>
    <dc:creator>
     <cc:Agent>
      <dc:title>Matplotlib v3.9.3, https://matplotlib.org/</dc:title>
     </cc:Agent>
    </dc:creator>
   </cc:Work>
  </rdf:RDF>
 </metadata>
 <defs>
  <style type="text/css">*{stroke-linejoin: round; stroke-linecap: butt}</style>
 </defs>
 <g id="figure_1">
  <g id="patch_1">
   <path d="M 0 432 
L 720 432 
L 720 0 
L 0 0 
z
" style="fill: #ffffff"/>
  </g>
  <g id="axes_1">
   <g id="patch_2">
    <path d="M 90 384.48 
L 648 384.48 
L 648 51.84 
L 90 51.84 
z
" style="fill: #ffffff"/>
   </g>
   <g id="PolyCollection_1">
    <defs>
     <path id="mfc41227a34" d="M 115.363636 -361.351395 
L 115.363636 -47.52 
L 115.852023 -47.52 
L 116.34041 -47.52 
L 116.828797 -47.52 
L 117.317184 -47.52 
L 117.805572 -47.52 
L 118.293959 -47.52 
L 118.782346 -47.52 
L 119.270733 -47.52 
L 119.75912 -47.52 
L 120.247507 -47.52 
L 120.735894 -47.52 
L 121.224281 -47.52 
L 121.712668 -47.52 
L 122.201055 -47.52 
L 122.689442 -47.52 
L 123.177829 -47.52 
L 123.666216 -47.52 
L 124.154603 -47.52 
L 124.64299 -47.52 
L 125.131377 -47.52 
L 125.619764 -47.52 
L 126.108151 -47.52 
L 126.596538 -47.52 
L 127.084925 -47.52 
L 127.573312 -47.52 
L 128.061699 -47.52 
L 128.550086 -47.52 
L 129.038473 -47.52 
L 129.52686 -47.52 
L 130.015247 -47.52 
L 130.503634 -47.52 
L 130.992021 -47.52 
L 131.480408 -47.52 
L 131.968795 -47.52 
L 132.457182 -47.52 
L 132.945569 -47.52 
L 133.433957 -47.52 
L 133.922344 -47.52 
L 134.410731 -47.52 
L 134.899118 -47.52 
L 135.387505 -47.52 
L 135.875892 -47.52 
L 136.364279 -47.52 
L 136.852666 -47.52 
L 137.341053 -47.52 
L 137.82944 -47.52 
L 138.317827 -47.52 
L 138.806214 -47.52 
L 139.294601 -47.52 
L 139.782988 -47.52 
L 140.271375 -47.52 
L 140.759762 -47.52 
L 141.248149 -47.52 
L 141.736536 -47.52 
L 142.224923 -47.52 
L 142.71331 -47.52 
L 143.201697 -47.52 
L 143.690084 -47.52 
L 144.178471 -47.52 
L 144.666858 -47.52 
L 145.155245 -47.52 
L 145.643632 -47.52 
L 146.132019 -47.52 
L 146.620406 -47.52 
L 147.108793 -47.52 
L 147.59718 -47.52 
L 148.085567 -47.52 
L 148.573955 -47.52 
L 149.062342 -47.52 
L 149.550729 -47.52 
L 150.039116 -47.52 
L 150.527503 -47.52 
L 151.01589 -47.52 
L 151.504277 -47.52 
L 151.992664 -47.52 
L 152.481051 -47.52 
L 152.969438 -47.52 
L 153.457825 -47.52 
L 153.946212 -47.52 
L 154.434599 -47.52 
L 154.922986 -47.52 
L 155.411373 -47.52 
L 155.89976 -47.52 
L 156.388147 -47.52 
L 156.876534 -47.52 
L 157.364921 -47.52 
L 157.853308 -47.52 
L 158.341695 -47.52 
L 158.830082 -47.52 
L 159.318469 -47.52 
L 159.806856 -47.52 
L 160.295243 -47.52 
L 160.78363 -47.52 
L 161.272017 -47.52 
L 161.760404 -47.52 
L 162.248791 -47.52 
L 162.737178 -47.52 
L 163.225565 -47.52 
L 163.713952 -47.52 
L 164.20234 -47.52 
L 164.690727 -47.52 
L 165.179114 -47.52 
L 165.667501 -47.52 
L 166.155888 -47.52 
L 166.644275 -47.52 
L 167.132662 -47.52 
L 167.621049 -47.52 
L 168.109436 -47.52 
L 168.597823 -47.52 
L 169.08621 -47.52 
L 169.574597 -47.52 
L 170.062984 -47.52 
L 170.551371 -47.52 
L 171.039758 -47.52 
L 171.528145 -47.52 
L 172.016532 -47.52 
L 172.504919 -47.52 
L 172.993306 -47.52 
L 173.481693 -47.52 
L 173.97008 -47.52 
L 174.458467 -47.52 
L 174.946854 -47.52 
L 175.435241 -47.52 
L 175.923628 -47.52 
L 176.412015 -47.52 
L 176.900402 -47.52 
L 177.388789 -47.52 
L 177.877176 -47.52 
L 178.365563 -47.52 
L 178.85395 -47.52 
L 179.342337 -47.52 
L 179.830725 -47.52 
L 180.319112 -47.52 
L 180.807499 -47.52 
L 181.295886 -47.52 
L 181.784273 -47.52 
L 182.27266 -47.52 
L 182.761047 -47.52 
L 183.249434 -47.52 
L 183.737821 -47.52 
L 184.226208 -47.52 
L 184.714595 -47.52 
L 185.202982 -47.52 
L 185.691369 -47.52 
L 186.179756 -47.52 
L 186.668143 -47.52 
L 187.15653 -47.52 
L 187.644917 -47.52 
L 188.133304 -47.52 
L 188.621691 -47.52 
L 189.110078 -47.52 
L 189.598465 -47.52 
L 190.086852 -47.52 
L 190.575239 -47.52 
L 191.063626 -47.52 
L 191.552013 -47.52 
L 192.0404 -47.52 
L 192.528787 -47.52 
L 193.017174 -47.52 
L 193.505561 -47.52 
L 193.993948 -47.52 
L 194.482335 -47.52 
L 194.970723 -47.52 
L 195.45911 -47.52 
L 195.947497 -47.52 
L 196.435884 -47.52 
L 196.924271 -47.52 
L 197.412658 -47.52 
L 197.901045 -47.52 
L 198.389432 -47.52 
L 198.877819 -47.52 
L 199.366206 -47.52 
L 199.854593 -47.52 
L 200.34298 -47.52 
L 200.831367 -47.52 
L 201.319754 -47.52 
L 201.808141 -47.52 
L 202.296528 -47.52 
L 202.784915 -47.52 
L 203.273302 -47.52 
L 203.761689 -47.52 
L 204.250076 -47.52 
L 204.738463 -47.52 
L 205.22685 -47.52 
L 205.715237 -47.52 
L 206.203624 -47.52 
L 206.692011 -47.52 
L 207.180398 -47.52 
L 207.668785 -47.52 
L 208.157172 -47.52 
L 208.645559 -47.52 
L 209.133946 -47.52 
L 209.622333 -47.52 
L 210.11072 -47.52 
L 210.599108 -47.52 
L 211.087495 -47.52 
L 211.575882 -47.52 
L 212.064269 -47.52 
L 212.552656 -47.52 
L 212.552656 -47.639957 
L 212.552656 -47.639957 
L 212.064269 -47.675944 
L 211.575882 -47.721325 
L 211.087495 -47.778119 
L 210.599108 -47.848651 
L 210.11072 -47.935573 
L 209.622333 -48.041871 
L 209.133946 -48.170855 
L 208.645559 -48.326151 
L 208.157172 -48.511663 
L 207.668785 -48.731525 
L 207.180398 -48.990031 
L 206.692011 -49.291545 
L 206.203624 -49.640391 
L 205.715237 -50.040717 
L 205.22685 -50.496349 
L 204.738463 -51.010622 
L 204.250076 -51.586202 
L 203.761689 -52.224905 
L 203.273302 -52.927517 
L 202.784915 -53.69362 
L 202.296528 -54.521443 
L 201.808141 -55.407733 
L 201.319754 -56.34767 
L 200.831367 -57.334818 
L 200.34298 -58.361136 
L 199.854593 -59.41704 
L 199.366206 -60.491522 
L 198.877819 -61.572333 
L 198.389432 -62.646225 
L 197.901045 -63.699234 
L 197.412658 -64.717016 
L 196.924271 -65.685213 
L 196.435884 -66.589836 
L 195.947497 -67.417654 
L 195.45911 -68.156576 
L 194.970723 -68.796005 
L 194.482335 -69.327154 
L 193.993948 -69.743306 
L 193.505561 -70.040015 
L 193.017174 -70.215236 
L 192.528787 -70.269373 
L 192.0404 -70.205252 
L 191.552013 -70.028019 
L 191.063626 -69.74496 
L 190.575239 -69.365265 
L 190.086852 -68.899725 
L 189.598465 -68.360401 
L 189.110078 -67.76025 
L 188.621691 -67.112745 
L 188.133304 -66.431489 
L 187.644917 -65.729841 
L 187.15653 -65.020567 
L 186.668143 -64.315532 
L 186.179756 -63.625424 
L 185.691369 -62.959548 
L 185.202982 -62.32566 
L 184.714595 -61.729875 
L 184.226208 -61.176626 
L 183.737821 -60.668686 
L 183.249434 -60.207248 
L 182.761047 -59.792044 
L 182.27266 -59.421518 
L 181.784273 -59.093026 
L 181.295886 -58.80306 
L 180.807499 -58.547488 
L 180.319112 -58.321798 
L 179.830725 -58.12134 
L 179.342337 -57.941548 
L 178.85395 -57.778146 
L 178.365563 -57.627326 
L 177.877176 -57.485888 
L 177.388789 -57.351349 
L 176.900402 -57.222015 
L 176.412015 -57.097007 
L 175.923628 -56.976262 
L 175.435241 -56.86049 
L 174.946854 -56.751111 
L 174.458467 -56.650159 
L 173.97008 -56.560172 
L 173.481693 -56.484068 
L 172.993306 -56.425016 
L 172.504919 -56.386298 
L 172.016532 -56.371188 
L 171.528145 -56.382831 
L 171.039758 -56.424142 
L 170.551371 -56.497724 
L 170.062984 -56.605799 
L 169.574597 -56.750179 
L 169.08621 -56.932243 
L 168.597823 -57.152951 
L 168.109436 -57.412875 
L 167.621049 -57.712252 
L 167.132662 -58.051054 
L 166.644275 -58.429069 
L 166.155888 -58.845992 
L 165.667501 -59.301517 
L 165.179114 -59.79542 
L 164.690727 -60.327637 
L 164.20234 -60.898328 
L 163.713952 -61.50791 
L 163.225565 -62.157074 
L 162.737178 -62.846774 
L 162.248791 -63.578177 
L 161.760404 -64.352598 
L 161.272017 -65.171394 
L 160.78363 -66.035849 
L 160.295243 -66.947029 
L 159.806856 -67.905634 
L 159.318469 -68.911847 
L 158.830082 -69.965189 
L 158.341695 -71.06439 
L 157.853308 -72.207288 
L 157.364921 -73.390758 
L 156.876534 -74.61069 
L 156.388147 -75.86201 
L 155.89976 -77.138756 
L 155.411373 -78.434201 
L 154.922986 -79.741037 
L 154.434599 -81.051601 
L 153.946212 -82.358143 
L 153.457825 -83.653123 
L 152.969438 -84.929536 
L 152.481051 -86.18124 
L 151.992664 -87.403271 
L 151.504277 -88.592152 
L 151.01589 -89.746155 
L 150.527503 -90.865522 
L 150.039116 -91.95263 
L 149.550729 -93.012087 
L 149.062342 -94.05076 
L 148.573955 -95.077732 
L 148.085567 -96.104177 
L 147.59718 -97.143184 
L 147.108793 -98.209503 
L 146.620406 -99.319247 
L 146.132019 -100.489551 
L 145.643632 -101.738202 
L 145.155245 -103.083246 
L 144.666858 -104.54259 
L 144.178471 -106.133616 
L 143.690084 -107.872792 
L 143.201697 -109.775321 
L 142.71331 -111.854804 
L 142.224923 -114.122939 
L 141.736536 -116.589251 
L 141.248149 -119.260851 
L 140.759762 -122.142228 
L 140.271375 -125.235074 
L 139.782988 -128.538135 
L 139.294601 -132.047092 
L 138.806214 -135.754482 
L 138.317827 -139.649644 
L 137.82944 -143.718725 
L 137.341053 -147.94473 
L 136.852666 -152.30764 
L 136.364279 -156.784619 
L 135.875892 -161.350315 
L 135.387505 -165.977274 
L 134.899118 -170.636478 
L 134.410731 -175.298034 
L 133.922344 -179.93199 
L 133.433957 -184.509299 
L 132.945569 -189.002913 
L 132.457182 -193.388972 
L 131.968795 -197.648077 
L 131.480408 -201.766568 
L 130.992021 -205.737775 
L 130.503634 -209.563153 
L 130.015247 -213.253231 
L 129.52686 -216.828285 
L 129.038473 -220.318653 
L 128.550086 -223.764618 
L 128.061699 -227.215772 
L 127.573312 -230.729842 
L 127.084925 -234.370911 
L 126.596538 -238.207073 
L 126.108151 -242.307533 
L 125.619764 -246.739231 
L 125.131377 -251.563109 
L 124.64299 -256.830146 
L 124.154603 -262.577357 
L 123.666216 -268.823948 
L 123.177829 -275.56784 
L 122.689442 -282.782789 
L 122.201055 -290.416301 
L 121.712668 -298.388539 
L 121.224281 -306.592357 
L 120.735894 -314.894573 
L 120.247507 -323.138504 
L 119.75912 -331.147744 
L 119.270733 -338.731083 
L 118.782346 -345.688402 
L 118.293959 -351.817306 
L 117.805572 -356.920223 
L 117.317184 -360.811642 
L 116.828797 -363.325163 
L 116.34041 -364.32 
L 115.852023 -363.686646 
L 115.363636 -361.351395 
z
" style="stroke: #1f77b4"/>
    </defs>
    <g clip-path="url(#p77f52ab91e)">
     <use xlink:href="#mfc41227a34" x="0" y="432" style="fill: #1f77b4; fill-opacity: 0.25; stroke: #1f77b4"/>
    </g>
   </g>
   <g id="PolyCollection_2">
    <defs>
     <path id="mcaef38b734" d="M 115.363636 -49.607024 
L 115.363636 -47.52 
L 117.912746 -47.52 
L 120.461855 -47.52 
L 123.010964 -47.52 
L 125.560073 -47.52 
L 128.109182 -47.52 
L 130.658291 -47.52 
L 133.207401 -47.52 
L 135.75651 -47.52 
L 138.305619 -47.52 
L 140.854728 -47.52 
L 143.403837 -47.52 
L 145.952947 -47.52 
L 148.502056 -47.52 
L 151.051165 -47.52 
L 153.600274 -47.52 
L 156.149383 -47.52 
L 158.698492 -47.52 
L 161.247602 -47.52 
L 163.796711 -47.52 
L 166.34582 -47.52 
L 168.894929 -47.52 
L 171.444038 -47.52 
L 173.993148 -47.52 
L 176.542257 -47.52 
L 179.091366 -47.52 
L 181.640475 -47.52 
L 184.189584 -47.52 
L 186.738693 -47.52 
L 189.287803 -47.52 
L 191.836912 -47.52 
L 194.386021 -47.52 
L 196.93513 -47.52 
L 199.484239 -47.52 
L 202.033349 -47.52 
L 204.582458 -47.52 
L 207.131567 -47.52 
L 209.680676 -47.52 
L 212.229785 -47.52 
L 214.778894 -47.52 
L 217.328004 -47.52 
L 219.877113 -47.52 
L 222.426222 -47.52 
L 224.975331 -47.52 
L 227.52444 -47.52 
L 230.07355 -47.52 
L 232.622659 -47.52 
L 235.171768 -47.52 
L 237.720877 -47.52 
L 240.269986 -47.52 
L 242.819095 -47.52 
L 245.368205 -47.52 
L 247.917314 -47.52 
L 250.466423 -47.52 
L 253.015532 -47.52 
L 255.564641 -47.52 
L 258.113751 -47.52 
L 260.66286 -47.52 
L 263.211969 -47.52 
L 265.761078 -47.52 
L 268.310187 -47.52 
L 270.859296 -47.52 
L 273.408406 -47.52 
L 275.957515 -47.52 
L 278.506624 -47.52 
L 281.055733 -47.52 
L 283.604842 -47.52 
L 286.153952 -47.52 
L 288.703061 -47.52 
L 291.25217 -47.52 
L 293.801279 -47.52 
L 296.350388 -47.52 
L 298.899497 -47.52 
L 301.448607 -47.52 
L 303.997716 -47.52 
L 306.546825 -47.52 
L 309.095934 -47.52 
L 311.645043 -47.52 
L 314.194153 -47.52 
L 316.743262 -47.52 
L 319.292371 -47.52 
L 321.84148 -47.52 
L 324.390589 -47.52 
L 326.939698 -47.52 
L 329.488808 -47.52 
L 332.037917 -47.52 
L 334.587026 -47.52 
L 337.136135 -47.52 
L 339.685244 -47.52 
L 342.234354 -47.52 
L 344.783463 -47.52 
L 347.332572 -47.52 
L 349.881681 -47.52 
L 352.43079 -47.52 
L 354.979899 -47.52 
L 357.529009 -47.52 
L 360.078118 -47.52 
L 362.627227 -47.52 
L 365.176336 -47.52 
L 367.725445 -47.52 
L 370.274555 -47.52 
L 372.823664 -47.52 
L 375.372773 -47.52 
L 377.921882 -47.52 
L 380.470991 -47.52 
L 383.020101 -47.52 
L 385.56921 -47.52 
L 388.118319 -47.52 
L 390.667428 -47.52 
L 393.216537 -47.52 
L 395.765646 -47.52 
L 398.314756 -47.52 
L 400.863865 -47.52 
L 403.412974 -47.52 
L 405.962083 -47.52 
L 408.511192 -47.52 
L 411.060302 -47.52 
L 413.609411 -47.52 
L 416.15852 -47.52 
L 418.707629 -47.52 
L 421.256738 -47.52 
L 423.805847 -47.52 
L 426.354957 -47.52 
L 428.904066 -47.52 
L 431.453175 -47.52 
L 434.002284 -47.52 
L 436.551393 -47.52 
L 439.100503 -47.52 
L 441.649612 -47.52 
L 444.198721 -47.52 
L 446.74783 -47.52 
L 449.296939 -47.52 
L 451.846048 -47.52 
L 454.395158 -47.52 
L 456.944267 -47.52 
L 459.493376 -47.52 
L 462.042485 -47.52 
L 464.591594 -47.52 
L 467.140704 -47.52 
L 469.689813 -47.52 
L 472.238922 -47.52 
L 474.788031 -47.52 
L 477.33714 -47.52 
L 479.886249 -47.52 
L 482.435359 -47.52 
L 484.984468 -47.52 
L 487.533577 -47.52 
L 490.082686 -47.52 
L 492.631795 -47.52 
L 495.180905 -47.52 
L 497.730014 -47.52 
L 500.279123 -47.52 
L 502.828232 -47.52 
L 505.377341 -47.52 
L 507.92645 -47.52 
L 510.47556 -47.52 
L 513.024669 -47.52 
L 515.573778 -47.52 
L 518.122887 -47.52 
L 520.671996 -47.52 
L 523.221106 -47.52 
L 525.770215 -47.52 
L 528.319324 -47.52 
L 530.868433 -47.52 
L 533.417542 -47.52 
L 535.966651 -47.52 
L 538.515761 -47.52 
L 541.06487 -47.52 
L 543.613979 -47.52 
L 546.163088 -47.52 
L 548.712197 -47.52 
L 551.261307 -47.52 
L 553.810416 -47.52 
L 556.359525 -47.52 
L 558.908634 -47.52 
L 561.457743 -47.52 
L 564.006852 -47.52 
L 566.555962 -47.52 
L 569.105071 -47.52 
L 571.65418 -47.52 
L 574.203289 -47.52 
L 576.752398 -47.52 
L 579.301508 -47.52 
L 581.850617 -47.52 
L 584.399726 -47.52 
L 586.948835 -47.52 
L 589.497944 -47.52 
L 592.047053 -47.52 
L 594.596163 -47.52 
L 597.145272 -47.52 
L 599.694381 -47.52 
L 602.24349 -47.52 
L 604.792599 -47.52 
L 607.341709 -47.52 
L 609.890818 -47.52 
L 612.439927 -47.52 
L 614.989036 -47.52 
L 617.538145 -47.52 
L 620.087254 -47.52 
L 622.636364 -47.52 
L 622.636364 -47.520226 
L 622.636364 -47.520226 
L 620.087254 -47.520501 
L 617.538145 -47.52103 
L 614.989036 -47.521975 
L 612.439927 -47.523538 
L 609.890818 -47.525948 
L 607.341709 -47.529443 
L 604.792599 -47.53428 
L 602.24349 -47.540789 
L 599.694381 -47.549479 
L 597.145272 -47.561138 
L 594.596163 -47.576843 
L 592.047053 -47.597817 
L 589.497944 -47.625137 
L 586.948835 -47.659424 
L 584.399726 -47.700695 
L 581.850617 -47.748495 
L 579.301508 -47.802249 
L 576.752398 -47.861678 
L 574.203289 -47.927041 
L 571.65418 -47.999125 
L 569.105071 -48.079025 
L 566.555962 -48.167761 
L 564.006852 -48.265765 
L 561.457743 -48.372219 
L 558.908634 -48.484392 
L 556.359525 -48.597355 
L 553.810416 -48.704498 
L 551.261307 -48.798979 
L 548.712197 -48.875629 
L 546.163088 -48.932395 
L 543.613979 -48.970447 
L 541.06487 -48.992851 
L 538.515761 -49.002563 
L 535.966651 -49.000959 
L 533.417542 -48.987706 
L 530.868433 -48.961827 
L 528.319324 -48.923037 
L 525.770215 -48.872377 
L 523.221106 -48.81184 
L 520.671996 -48.74347 
L 518.122887 -48.668752 
L 515.573778 -48.588729 
L 513.024669 -48.504723 
L 510.47556 -48.419051 
L 507.92645 -48.335239 
L 505.377341 -48.257547 
L 502.828232 -48.19006 
L 500.279123 -48.135765 
L 497.730014 -48.09603 
L 495.180905 -48.070656 
L 492.631795 -48.058468 
L 490.082686 -48.058202 
L 487.533577 -48.06935 
L 484.984468 -48.092664 
L 482.435359 -48.13015 
L 479.886249 -48.184492 
L 477.33714 -48.258033 
L 474.788031 -48.351559 
L 472.238922 -48.463257 
L 469.689813 -48.588287 
L 467.140704 -48.719297 
L 464.591594 -48.847877 
L 462.042485 -48.96659 
L 459.493376 -49.07088 
L 456.944267 -49.160195 
L 454.395158 -49.238017 
L 451.846048 -49.310968 
L 449.296939 -49.387532 
L 446.74783 -49.476854 
L 444.198721 -49.587704 
L 441.649612 -49.727331 
L 439.100503 -49.89998 
L 436.551393 -50.105249 
L 434.002284 -50.336984 
L 431.453175 -50.583531 
L 428.904066 -50.829583 
L 426.354957 -51.059063 
L 423.805847 -51.257887 
L 421.256738 -51.415646 
L 418.707629 -51.526085 
L 416.15852 -51.587087 
L 413.609411 -51.601075 
L 411.060302 -51.576045 
L 408.511192 -51.526361 
L 405.962083 -51.47188 
L 403.412974 -51.434489 
L 400.863865 -51.432638 
L 398.314756 -51.475935 
L 395.765646 -51.562357 
L 393.216537 -51.679694 
L 390.667428 -51.810914 
L 388.118319 -51.941242 
L 385.56921 -52.063995 
L 383.020101 -52.182856 
L 380.470991 -52.310043 
L 377.921882 -52.461553 
L 375.372773 -52.651668 
L 372.823664 -52.888641 
L 370.274555 -53.172584 
L 367.725445 -53.495561 
L 365.176336 -53.84342 
L 362.627227 -54.19884 
L 360.078118 -54.545203 
L 357.529009 -54.870726 
L 354.979899 -55.172064 
L 352.43079 -55.45642 
L 349.881681 -55.741401 
L 347.332572 -56.052274 
L 344.783463 -56.416844 
L 342.234354 -56.858919 
L 339.685244 -57.392089 
L 337.136135 -58.015993 
L 334.587026 -58.716675 
L 332.037917 -59.470828 
L 329.488808 -60.251642 
L 326.939698 -61.033132 
L 324.390589 -61.791316 
L 321.84148 -62.50347 
L 319.292371 -63.148678 
L 316.743262 -63.71208 
L 314.194153 -64.191967 
L 311.645043 -64.605599 
L 309.095934 -64.989218 
L 306.546825 -65.390565 
L 303.997716 -65.856585 
L 301.448607 -66.421622 
L 298.899497 -67.100861 
L 296.350388 -67.89062 
L 293.801279 -68.773784 
L 291.25217 -69.727185 
L 288.703061 -70.728275 
L 286.153952 -71.759955 
L 283.604842 -72.813333 
L 281.055733 -73.888151 
L 278.506624 -74.990356 
L 275.957515 -76.126736 
L 273.408406 -77.297844 
L 270.859296 -78.491736 
L 268.310187 -79.681186 
L 265.761078 -80.825922 
L 263.211969 -81.879666 
L 260.66286 -82.800487 
L 258.113751 -83.562393 
L 255.564641 -84.165759 
L 253.015532 -84.643642 
L 250.466423 -85.060735 
L 247.917314 -85.502711 
L 245.368205 -86.056658 
L 242.819095 -86.787203 
L 240.269986 -87.715833 
L 237.720877 -88.810846 
L 235.171768 -89.991973 
L 232.622659 -91.148608 
L 230.07355 -92.165922 
L 227.52444 -92.95104 
L 224.975331 -93.45227 
L 222.426222 -93.667256 
L 219.877113 -93.639504 
L 217.328004 -93.445588 
L 214.778894 -93.176958 
L 212.229785 -92.920793 
L 209.680676 -92.744033 
L 207.131567 -92.68385 
L 204.582458 -92.746379 
L 202.033349 -92.913378 
L 199.484239 -93.154226 
L 196.93513 -93.438946 
L 194.386021 -93.747887 
L 191.836912 -94.075345 
L 189.287803 -94.427266 
L 186.738693 -94.815626 
L 184.189584 -95.253072 
L 181.640475 -95.750461 
L 179.091366 -96.317716 
L 176.542257 -96.966253 
L 173.993148 -97.710165 
L 171.444038 -98.563913 
L 168.894929 -99.535876 
L 166.34582 -100.618872 
L 163.796711 -101.779703 
L 161.247602 -102.949907 
L 158.698492 -104.019684 
L 156.149383 -104.837077 
L 153.600274 -105.214735 
L 151.051165 -104.946295 
L 148.502056 -103.832726 
L 145.952947 -101.716077 
L 143.403837 -98.514873 
L 140.854728 -94.253272 
L 138.305619 -89.075872 
L 135.75651 -83.241952 
L 133.207401 -77.096859 
L 130.658291 -71.02368 
L 128.109182 -65.384422 
L 125.560073 -60.46438 
L 123.010964 -56.433913 
L 120.461855 -53.33711 
L 117.912746 -51.10811 
L 115.363636 -49.607024 
z
" style="stroke: #ff7f0e"/>
    </defs>
    <g clip-path="url(#p77f52ab91e)">
     <use xlink:href="#mcaef38b734" x="0" y="432" style="fill: #ff7f0e; fill-opacity: 0.25; stroke: #ff7f0e"/>
    </g>
   </g>
   <g id="matplotlib.axis_1">
    <g id="xtick_1">
     <g id="line2d_1">
      <defs>
       <path id="m408082c774" d="M 0 0 
L 0 3.5 
" style="stroke: #000000; stroke-width: 0.8"/>
      </defs>
      <g>
       <use xlink:href="#m408082c774" x="115.363636" y="384.48" style="stroke: #000000; stroke-width: 0.8"/>
      </g>
     </g>
     <g id="text_1">
      <!-- 0 -->
      <g transform="translate(112.182386 399.078438) scale(0.1 -0.1)">
       <defs>
        <path id="DejaVuSans-30" d="M 2034 4250 
Q 1547 4250 1301 3770 
Q 1056 3291 1056 2328 
Q 1056 1369 1301 889 
Q 1547 409 2034 409 
Q 2525 409 2770 889 
Q 3016 1369 3016 2328 
Q 3016 3291 2770 3770 
Q 2525 4250 2034 4250 
z
M 2034 4750 
Q 2819 4750 3233 4129 
Q 3647 3509 3647 2328 
Q 3647 1150 3233 529 
Q 2819 -91 2034 -91 
Q 1250 -91 836 529 
Q 422 1150 422 2328 
Q 422 3509 836 4129 
Q 1250 4750 2034 4750 
z
" transform="scale(0.015625)"/>
       </defs>
       <use xlink:href="#DejaVuSans-30"/>
      </g>
     </g>
    </g>
    <g id="xtick_2">
     <g id="line2d_2">
      <g>
       <use xlink:href="#m408082c774" x="200.358675" y="384.48" style="stroke: #000000; stroke-width: 0.8"/>
      </g>
     </g>
     <g id="text_2">
      <!-- 2000 -->
      <g transform="translate(187.633675 399.078438) scale(0.1 -0.1)">
       <defs>
        <path id="DejaVuSans-32" d="M 1228 531 
L 3431 531 
L 3431 0 
L 469 0 
L 469 531 
Q 828 903 1448 1529 
Q 2069 2156 2228 2338 
Q 2531 2678 2651 2914 
Q 2772 3150 2772 3378 
Q 2772 3750 2511 3984 
Q 2250 4219 1831 4219 
Q 1534 4219 1204 4116 
Q 875 4013 500 3803 
L 500 4441 
Q 881 4594 1212 4672 
Q 1544 4750 1819 4750 
Q 2544 4750 2975 4387 
Q 3406 4025 3406 3419 
Q 3406 3131 3298 2873 
Q 3191 2616 2906 2266 
Q 2828 2175 2409 1742 
Q 1991 1309 1228 531 
z
" transform="scale(0.015625)"/>
       </defs>
       <use xlink:href="#DejaVuSans-32"/>
       <use xlink:href="#DejaVuSans-30" x="63.623047"/>
       <use xlink:href="#DejaVuSans-30" x="127.246094"/>
       <use xlink:href="#DejaVuSans-30" x="190.869141"/>
      </g>
     </g>
    </g>
    <g id="xtick_3">
     <g id="line2d_3">
      <g>
       <use xlink:href="#m408082c774" x="285.353713" y="384.48" style="stroke: #000000; stroke-width: 0.8"/>
      </g>
     </g>
     <g id="text_3">
      <!-- 4000 -->
      <g transform="translate(272.628713 399.078438) scale(0.1 -0.1)">
       <defs>
        <path id="DejaVuSans-34" d="M 2419 4116 
L 825 1625 
L 2419 1625 
L 2419 4116 
z
M 2253 4666 
L 3047 4666 
L 3047 1625 
L 3713 1625 
L 3713 1100 
L 3047 1100 
L 3047 0 
L 2419 0 
L 2419 1100 
L 313 1100 
L 313 1709 
L 2253 4666 
z
" transform="scale(0.015625)"/>
       </defs>
       <use xlink:href="#DejaVuSans-34"/>
       <use xlink:href="#DejaVuSans-30" x="63.623047"/>
       <use xlink:href="#DejaVuSans-30" x="127.246094"/>
       <use xlink:href="#DejaVuSans-30" x="190.869141"/>
      </g>
     </g>
    </g>
    <g id="xtick_4">
     <g id="line2d_4">
      <g>
       <use xlink:href="#m408082c774" x="370.348752" y="384.48" style="stroke: #000000; stroke-width: 0.8"/>
      </g>
     </g>
     <g id="text_4">
      <!-- 6000 -->
      <g transform="translate(357.623752 399.078438) scale(0.1 -0.1)">
       <defs>
        <path id="DejaVuSans-36" d="M 2113 2584 
Q 1688 2584 1439 2293 
Q 1191 2003 1191 1497 
Q 1191 994 1439 701 
Q 1688 409 2113 409 
Q 2538 409 2786 701 
Q 3034 994 3034 1497 
Q 3034 2003 2786 2293 
Q 2538 2584 2113 2584 
z
M 3366 4563 
L 3366 3988 
Q 3128 4100 2886 4159 
Q 2644 4219 2406 4219 
Q 1781 4219 1451 3797 
Q 1122 3375 1075 2522 
Q 1259 2794 1537 2939 
Q 1816 3084 2150 3084 
Q 2853 3084 3261 2657 
Q 3669 2231 3669 1497 
Q 3669 778 3244 343 
Q 2819 -91 2113 -91 
Q 1303 -91 875 529 
Q 447 1150 447 2328 
Q 447 3434 972 4092 
Q 1497 4750 2381 4750 
Q 2619 4750 2861 4703 
Q 3103 4656 3366 4563 
z
" transform="scale(0.015625)"/>
       </defs>
       <use xlink:href="#DejaVuSans-36"/>
       <use xlink:href="#DejaVuSans-30" x="63.623047"/>
       <use xlink:href="#DejaVuSans-30" x="127.246094"/>
       <use xlink:href="#DejaVuSans-30" x="190.869141"/>
      </g>
     </g>
    </g>
    <g id="xtick_5">
     <g id="line2d_5">
      <g>
       <use xlink:href="#m408082c774" x="455.34379" y="384.48" style="stroke: #000000; stroke-width: 0.8"/>
      </g>
     </g>
     <g id="text_5">
      <!-- 8000 -->
      <g transform="translate(442.61879 399.078438) scale(0.1 -0.1)">
       <defs>
        <path id="DejaVuSans-38" d="M 2034 2216 
Q 1584 2216 1326 1975 
Q 1069 1734 1069 1313 
Q 1069 891 1326 650 
Q 1584 409 2034 409 
Q 2484 409 2743 651 
Q 3003 894 3003 1313 
Q 3003 1734 2745 1975 
Q 2488 2216 2034 2216 
z
M 1403 2484 
Q 997 2584 770 2862 
Q 544 3141 544 3541 
Q 544 4100 942 4425 
Q 1341 4750 2034 4750 
Q 2731 4750 3128 4425 
Q 3525 4100 3525 3541 
Q 3525 3141 3298 2862 
Q 3072 2584 2669 2484 
Q 3125 2378 3379 2068 
Q 3634 1759 3634 1313 
Q 3634 634 3220 271 
Q 2806 -91 2034 -91 
Q 1263 -91 848 271 
Q 434 634 434 1313 
Q 434 1759 690 2068 
Q 947 2378 1403 2484 
z
M 1172 3481 
Q 1172 3119 1398 2916 
Q 1625 2713 2034 2713 
Q 2441 2713 2670 2916 
Q 2900 3119 2900 3481 
Q 2900 3844 2670 4047 
Q 2441 4250 2034 4250 
Q 1625 4250 1398 4047 
Q 1172 3844 1172 3481 
z
" transform="scale(0.015625)"/>
       </defs>
       <use xlink:href="#DejaVuSans-38"/>
       <use xlink:href="#DejaVuSans-30" x="63.623047"/>
       <use xlink:href="#DejaVuSans-30" x="127.246094"/>
       <use xlink:href="#DejaVuSans-30" x="190.869141"/>
      </g>
     </g>
    </g>
    <g id="xtick_6">
     <g id="line2d_6">
      <g>
       <use xlink:href="#m408082c774" x="540.338829" y="384.48" style="stroke: #000000; stroke-width: 0.8"/>
      </g>
     </g>
     <g id="text_6">
      <!-- 10000 -->
      <g transform="translate(524.432579 399.078438) scale(0.1 -0.1)">
       <defs>
        <path id="DejaVuSans-31" d="M 794 531 
L 1825 531 
L 1825 4091 
L 703 3866 
L 703 4441 
L 1819 4666 
L 2450 4666 
L 2450 531 
L 3481 531 
L 3481 0 
L 794 0 
L 794 531 
z
" transform="scale(0.015625)"/>
       </defs>
       <use xlink:href="#DejaVuSans-31"/>
       <use xlink:href="#DejaVuSans-30" x="63.623047"/>
       <use xlink:href="#DejaVuSans-30" x="127.246094"/>
       <use xlink:href="#DejaVuSans-30" x="190.869141"/>
       <use xlink:href="#DejaVuSans-30" x="254.492188"/>
      </g>
     </g>
    </g>
    <g id="xtick_7">
     <g id="line2d_7">
      <g>
       <use xlink:href="#m408082c774" x="625.333867" y="384.48" style="stroke: #000000; stroke-width: 0.8"/>
      </g>
     </g>
     <g id="text_7">
      <!-- 12000 -->
      <g transform="translate(609.427617 399.078438) scale(0.1 -0.1)">
       <use xlink:href="#DejaVuSans-31"/>
       <use xlink:href="#DejaVuSans-32" x="63.623047"/>
       <use xlink:href="#DejaVuSans-30" x="127.246094"/>
       <use xlink:href="#DejaVuSans-30" x="190.869141"/>
       <use xlink:href="#DejaVuSans-30" x="254.492188"/>
      </g>
     </g>
    </g>
    <g id="text_8">
     <!-- Distance -->
     <g transform="translate(347.1375 412.756563) scale(0.1 -0.1)">
      <defs>
       <path id="DejaVuSans-44" d="M 1259 4147 
L 1259 519 
L 2022 519 
Q 2988 519 3436 956 
Q 3884 1394 3884 2338 
Q 3884 3275 3436 3711 
Q 2988 4147 2022 4147 
L 1259 4147 
z
M 628 4666 
L 1925 4666 
Q 3281 4666 3915 4102 
Q 4550 3538 4550 2338 
Q 4550 1131 3912 565 
Q 3275 0 1925 0 
L 628 0 
L 628 4666 
z
" transform="scale(0.015625)"/>
       <path id="DejaVuSans-69" d="M 603 3500 
L 1178 3500 
L 1178 0 
L 603 0 
L 603 3500 
z
M 603 4863 
L 1178 4863 
L 1178 4134 
L 603 4134 
L 603 4863 
z
" transform="scale(0.015625)"/>
       <path id="DejaVuSans-73" d="M 2834 3397 
L 2834 2853 
Q 2591 2978 2328 3040 
Q 2066 3103 1784 3103 
Q 1356 3103 1142 2972 
Q 928 2841 928 2578 
Q 928 2378 1081 2264 
Q 1234 2150 1697 2047 
L 1894 2003 
Q 2506 1872 2764 1633 
Q 3022 1394 3022 966 
Q 3022 478 2636 193 
Q 2250 -91 1575 -91 
Q 1294 -91 989 -36 
Q 684 19 347 128 
L 347 722 
Q 666 556 975 473 
Q 1284 391 1588 391 
Q 1994 391 2212 530 
Q 2431 669 2431 922 
Q 2431 1156 2273 1281 
Q 2116 1406 1581 1522 
L 1381 1569 
Q 847 1681 609 1914 
Q 372 2147 372 2553 
Q 372 3047 722 3315 
Q 1072 3584 1716 3584 
Q 2034 3584 2315 3537 
Q 2597 3491 2834 3397 
z
" transform="scale(0.015625)"/>
       <path id="DejaVuSans-74" d="M 1172 4494 
L 1172 3500 
L 2356 3500 
L 2356 3053 
L 1172 3053 
L 1172 1153 
Q 1172 725 1289 603 
Q 1406 481 1766 481 
L 2356 481 
L 2356 0 
L 1766 0 
Q 1100 0 847 248 
Q 594 497 594 1153 
L 594 3053 
L 172 3053 
L 172 3500 
L 594 3500 
L 594 4494 
L 1172 4494 
z
" transform="scale(0.015625)"/>
       <path id="DejaVuSans-61" d="M 2194 1759 
Q 1497 1759 1228 1600 
Q 959 1441 959 1056 
Q 959 750 1161 570 
Q 1363 391 1709 391 
Q 2188 391 2477 730 
Q 2766 1069 2766 1631 
L 2766 1759 
L 2194 1759 
z
M 3341 1997 
L 3341 0 
L 2766 0 
L 2766 531 
Q 2569 213 2275 61 
Q 1981 -91 1556 -91 
Q 1019 -91 701 211 
Q 384 513 384 1019 
Q 384 1609 779 1909 
Q 1175 2209 1959 2209 
L 2766 2209 
L 2766 2266 
Q 2766 2663 2505 2880 
Q 2244 3097 1772 3097 
Q 1472 3097 1187 3025 
Q 903 2953 641 2809 
L 641 3341 
Q 956 3463 1253 3523 
Q 1550 3584 1831 3584 
Q 2591 3584 2966 3190 
Q 3341 2797 3341 1997 
z
" transform="scale(0.015625)"/>
       <path id="DejaVuSans-6e" d="M 3513 2113 
L 3513 0 
L 2938 0 
L 2938 2094 
Q 2938 2591 2744 2837 
Q 2550 3084 2163 3084 
Q 1697 3084 1428 2787 
Q 1159 2491 1159 1978 
L 1159 0 
L 581 0 
L 581 3500 
L 1159 3500 
L 1159 2956 
Q 1366 3272 1645 3428 
Q 1925 3584 2291 3584 
Q 2894 3584 3203 3211 
Q 3513 2838 3513 2113 
z
" transform="scale(0.015625)"/>
       <path id="DejaVuSans-63" d="M 3122 3366 
L 3122 2828 
Q 2878 2963 2633 3030 
Q 2388 3097 2138 3097 
Q 1578 3097 1268 2742 
Q 959 2388 959 1747 
Q 959 1106 1268 751 
Q 1578 397 2138 397 
Q 2388 397 2633 464 
Q 2878 531 3122 666 
L 3122 134 
Q 2881 22 2623 -34 
Q 2366 -91 2075 -91 
Q 1284 -91 818 406 
Q 353 903 353 1747 
Q 353 2603 823 3093 
Q 1294 3584 2113 3584 
Q 2378 3584 2631 3529 
Q 2884 3475 3122 3366 
z
" transform="scale(0.015625)"/>
       <path id="DejaVuSans-65" d="M 3597 1894 
L 3597 1613 
L 953 1613 
Q 991 1019 1311 708 
Q 1631 397 2203 397 
Q 2534 397 2845 478 
Q 3156 559 3463 722 
L 3463 178 
Q 3153 47 2828 -22 
Q 2503 -91 2169 -91 
Q 1331 -91 842 396 
Q 353 884 353 1716 
Q 353 2575 817 3079 
Q 1281 3584 2069 3584 
Q 2775 3584 3186 3129 
Q 3597 2675 3597 1894 
z
M 3022 2063 
Q 3016 2534 2758 2815 
Q 2500 3097 2075 3097 
Q 1594 3097 1305 2825 
Q 1016 2553 972 2059 
L 3022 2063 
z
" transform="scale(0.015625)"/>
      </defs>
      <use xlink:href="#DejaVuSans-44"/>
      <use xlink:href="#DejaVuSans-69" x="77.001953"/>
      <use xlink:href="#DejaVuSans-73" x="104.785156"/>
      <use xlink:href="#DejaVuSans-74" x="156.884766"/>
      <use xlink:href="#DejaVuSans-61" x="196.09375"/>
      <use xlink:href="#DejaVuSans-6e" x="257.373047"/>
      <use xlink:href="#DejaVuSans-63" x="320.751953"/>
      <use xlink:href="#DejaVuSans-65" x="375.732422"/>
     </g>
    </g>
   </g>
   <g id="matplotlib.axis_2">
    <g id="ytick_1">
     <g id="line2d_8">
      <defs>
       <path id="m26ab127781" d="M 0 0 
L -3.5 0 
" style="stroke: #000000; stroke-width: 0.8"/>
      </defs>
      <g>
       <use xlink:href="#m26ab127781" x="90" y="384.48" style="stroke: #000000; stroke-width: 0.8"/>
      </g>
     </g>
     <g id="text_9">
      <!-- 0.0000 -->
      <g transform="translate(48.009375 388.279219) scale(0.1 -0.1)">
       <defs>
        <path id="DejaVuSans-2e" d="M 684 794 
L 1344 794 
L 1344 0 
L 684 0 
L 684 794 
z
" transform="scale(0.015625)"/>
       </defs>
       <use xlink:href="#DejaVuSans-30"/>
       <use xlink:href="#DejaVuSans-2e" x="63.623047"/>
       <use xlink:href="#DejaVuSans-30" x="95.410156"/>
       <use xlink:href="#DejaVuSans-30" x="159.033203"/>
       <use xlink:href="#DejaVuSans-30" x="222.65625"/>
       <use xlink:href="#DejaVuSans-30" x="286.279297"/>
      </g>
     </g>
    </g>
    <g id="ytick_2">
     <g id="line2d_9">
      <g>
       <use xlink:href="#m26ab127781" x="90" y="344.698799" style="stroke: #000000; stroke-width: 0.8"/>
      </g>
     </g>
     <g id="text_10">
      <!-- 0.0002 -->
      <g transform="translate(48.009375 348.498018) scale(0.1 -0.1)">
       <use xlink:href="#DejaVuSans-30"/>
       <use xlink:href="#DejaVuSans-2e" x="63.623047"/>
       <use xlink:href="#DejaVuSans-30" x="95.410156"/>
       <use xlink:href="#DejaVuSans-30" x="159.033203"/>
       <use xlink:href="#DejaVuSans-30" x="222.65625"/>
       <use xlink:href="#DejaVuSans-32" x="286.279297"/>
      </g>
     </g>
    </g>
    <g id="ytick_3">
     <g id="line2d_10">
      <g>
       <use xlink:href="#m26ab127781" x="90" y="304.917598" style="stroke: #000000; stroke-width: 0.8"/>
      </g>
     </g>
     <g id="text_11">
      <!-- 0.0004 -->
      <g transform="translate(48.009375 308.716817) scale(0.1 -0.1)">
       <use xlink:href="#DejaVuSans-30"/>
       <use xlink:href="#DejaVuSans-2e" x="63.623047"/>
       <use xlink:href="#DejaVuSans-30" x="95.410156"/>
       <use xlink:href="#DejaVuSans-30" x="159.033203"/>
       <use xlink:href="#DejaVuSans-30" x="222.65625"/>
       <use xlink:href="#DejaVuSans-34" x="286.279297"/>
      </g>
     </g>
    </g>
    <g id="ytick_4">
     <g id="line2d_11">
      <g>
       <use xlink:href="#m26ab127781" x="90" y="265.136397" style="stroke: #000000; stroke-width: 0.8"/>
      </g>
     </g>
     <g id="text_12">
      <!-- 0.0006 -->
      <g transform="translate(48.009375 268.935616) scale(0.1 -0.1)">
       <use xlink:href="#DejaVuSans-30"/>
       <use xlink:href="#DejaVuSans-2e" x="63.623047"/>
       <use xlink:href="#DejaVuSans-30" x="95.410156"/>
       <use xlink:href="#DejaVuSans-30" x="159.033203"/>
       <use xlink:href="#DejaVuSans-30" x="222.65625"/>
       <use xlink:href="#DejaVuSans-36" x="286.279297"/>
      </g>
     </g>
    </g>
    <g id="ytick_5">
     <g id="line2d_12">
      <g>
       <use xlink:href="#m26ab127781" x="90" y="225.355196" style="stroke: #000000; stroke-width: 0.8"/>
      </g>
     </g>
     <g id="text_13">
      <!-- 0.0008 -->
      <g transform="translate(48.009375 229.154415) scale(0.1 -0.1)">
       <use xlink:href="#DejaVuSans-30"/>
       <use xlink:href="#DejaVuSans-2e" x="63.623047"/>
       <use xlink:href="#DejaVuSans-30" x="95.410156"/>
       <use xlink:href="#DejaVuSans-30" x="159.033203"/>
       <use xlink:href="#DejaVuSans-30" x="222.65625"/>
       <use xlink:href="#DejaVuSans-38" x="286.279297"/>
      </g>
     </g>
    </g>
    <g id="ytick_6">
     <g id="line2d_13">
      <g>
       <use xlink:href="#m26ab127781" x="90" y="185.573995" style="stroke: #000000; stroke-width: 0.8"/>
      </g>
     </g>
     <g id="text_14">
      <!-- 0.0010 -->
      <g transform="translate(48.009375 189.373214) scale(0.1 -0.1)">
       <use xlink:href="#DejaVuSans-30"/>
       <use xlink:href="#DejaVuSans-2e" x="63.623047"/>
       <use xlink:href="#DejaVuSans-30" x="95.410156"/>
       <use xlink:href="#DejaVuSans-30" x="159.033203"/>
       <use xlink:href="#DejaVuSans-31" x="222.65625"/>
       <use xlink:href="#DejaVuSans-30" x="286.279297"/>
      </g>
     </g>
    </g>
    <g id="ytick_7">
     <g id="line2d_14">
      <g>
       <use xlink:href="#m26ab127781" x="90" y="145.792794" style="stroke: #000000; stroke-width: 0.8"/>
      </g>
     </g>
     <g id="text_15">
      <!-- 0.0012 -->
      <g transform="translate(48.009375 149.592012) scale(0.1 -0.1)">
       <use xlink:href="#DejaVuSans-30"/>
       <use xlink:href="#DejaVuSans-2e" x="63.623047"/>
       <use xlink:href="#DejaVuSans-30" x="95.410156"/>
       <use xlink:href="#DejaVuSans-30" x="159.033203"/>
       <use xlink:href="#DejaVuSans-31" x="222.65625"/>
       <use xlink:href="#DejaVuSans-32" x="286.279297"/>
      </g>
     </g>
    </g>
    <g id="ytick_8">
     <g id="line2d_15">
      <g>
       <use xlink:href="#m26ab127781" x="90" y="106.011593" style="stroke: #000000; stroke-width: 0.8"/>
      </g>
     </g>
     <g id="text_16">
      <!-- 0.0014 -->
      <g transform="translate(48.009375 109.810811) scale(0.1 -0.1)">
       <use xlink:href="#DejaVuSans-30"/>
       <use xlink:href="#DejaVuSans-2e" x="63.623047"/>
       <use xlink:href="#DejaVuSans-30" x="95.410156"/>
       <use xlink:href="#DejaVuSans-30" x="159.033203"/>
       <use xlink:href="#DejaVuSans-31" x="222.65625"/>
       <use xlink:href="#DejaVuSans-34" x="286.279297"/>
      </g>
     </g>
    </g>
    <g id="ytick_9">
     <g id="line2d_16">
      <g>
       <use xlink:href="#m26ab127781" x="90" y="66.230392" style="stroke: #000000; stroke-width: 0.8"/>
      </g>
     </g>
     <g id="text_17">
      <!-- 0.0016 -->
      <g transform="translate(48.009375 70.02961) scale(0.1 -0.1)">
       <use xlink:href="#DejaVuSans-30"/>
       <use xlink:href="#DejaVuSans-2e" x="63.623047"/>
       <use xlink:href="#DejaVuSans-30" x="95.410156"/>
       <use xlink:href="#DejaVuSans-30" x="159.033203"/>
       <use xlink:href="#DejaVuSans-31" x="222.65625"/>
       <use xlink:href="#DejaVuSans-36" x="286.279297"/>
      </g>
     </g>
    </g>
    <g id="text_18">
     <!-- Density -->
     <g transform="translate(41.929688 237.168594) rotate(-90) scale(0.1 -0.1)">
      <defs>
       <path id="DejaVuSans-79" d="M 2059 -325 
Q 1816 -950 1584 -1140 
Q 1353 -1331 966 -1331 
L 506 -1331 
L 506 -850 
L 844 -850 
Q 1081 -850 1212 -737 
Q 1344 -625 1503 -206 
L 1606 56 
L 191 3500 
L 800 3500 
L 1894 763 
L 2988 3500 
L 3597 3500 
L 2059 -325 
z
" transform="scale(0.015625)"/>
      </defs>
      <use xlink:href="#DejaVuSans-44"/>
      <use xlink:href="#DejaVuSans-65" x="77.001953"/>
      <use xlink:href="#DejaVuSans-6e" x="138.525391"/>
      <use xlink:href="#DejaVuSans-73" x="201.904297"/>
      <use xlink:href="#DejaVuSans-69" x="254.003906"/>
      <use xlink:href="#DejaVuSans-74" x="281.787109"/>
      <use xlink:href="#DejaVuSans-79" x="320.996094"/>
     </g>
    </g>
   </g>
   <g id="patch_3">
    <path d="M 90 384.48 
L 90 51.84 
" style="fill: none; stroke: #000000; stroke-width: 0.8; stroke-linejoin: miter; stroke-linecap: square"/>
   </g>
   <g id="patch_4">
    <path d="M 648 384.48 
L 648 51.84 
" style="fill: none; stroke: #000000; stroke-width: 0.8; stroke-linejoin: miter; stroke-linecap: square"/>
   </g>
   <g id="patch_5">
    <path d="M 90 384.48 
L 648 384.48 
" style="fill: none; stroke: #000000; stroke-width: 0.8; stroke-linejoin: miter; stroke-linecap: square"/>
   </g>
   <g id="patch_6">
    <path d="M 90 51.84 
L 648 51.84 
" style="fill: none; stroke: #000000; stroke-width: 0.8; stroke-linejoin: miter; stroke-linecap: square"/>
   </g>
   <g id="text_19">
    <!-- Distribution of Distances - No model -->
    <g transform="translate(260.310938 45.84) scale(0.12 -0.12)">
     <defs>
      <path id="DejaVuSans-72" d="M 2631 2963 
Q 2534 3019 2420 3045 
Q 2306 3072 2169 3072 
Q 1681 3072 1420 2755 
Q 1159 2438 1159 1844 
L 1159 0 
L 581 0 
L 581 3500 
L 1159 3500 
L 1159 2956 
Q 1341 3275 1631 3429 
Q 1922 3584 2338 3584 
Q 2397 3584 2469 3576 
Q 2541 3569 2628 3553 
L 2631 2963 
z
" transform="scale(0.015625)"/>
      <path id="DejaVuSans-62" d="M 3116 1747 
Q 3116 2381 2855 2742 
Q 2594 3103 2138 3103 
Q 1681 3103 1420 2742 
Q 1159 2381 1159 1747 
Q 1159 1113 1420 752 
Q 1681 391 2138 391 
Q 2594 391 2855 752 
Q 3116 1113 3116 1747 
z
M 1159 2969 
Q 1341 3281 1617 3432 
Q 1894 3584 2278 3584 
Q 2916 3584 3314 3078 
Q 3713 2572 3713 1747 
Q 3713 922 3314 415 
Q 2916 -91 2278 -91 
Q 1894 -91 1617 61 
Q 1341 213 1159 525 
L 1159 0 
L 581 0 
L 581 4863 
L 1159 4863 
L 1159 2969 
z
" transform="scale(0.015625)"/>
      <path id="DejaVuSans-75" d="M 544 1381 
L 544 3500 
L 1119 3500 
L 1119 1403 
Q 1119 906 1312 657 
Q 1506 409 1894 409 
Q 2359 409 2629 706 
Q 2900 1003 2900 1516 
L 2900 3500 
L 3475 3500 
L 3475 0 
L 2900 0 
L 2900 538 
Q 2691 219 2414 64 
Q 2138 -91 1772 -91 
Q 1169 -91 856 284 
Q 544 659 544 1381 
z
M 1991 3584 
L 1991 3584 
z
" transform="scale(0.015625)"/>
      <path id="DejaVuSans-6f" d="M 1959 3097 
Q 1497 3097 1228 2736 
Q 959 2375 959 1747 
Q 959 1119 1226 758 
Q 1494 397 1959 397 
Q 2419 397 2687 759 
Q 2956 1122 2956 1747 
Q 2956 2369 2687 2733 
Q 2419 3097 1959 3097 
z
M 1959 3584 
Q 2709 3584 3137 3096 
Q 3566 2609 3566 1747 
Q 3566 888 3137 398 
Q 2709 -91 1959 -91 
Q 1206 -91 779 398 
Q 353 888 353 1747 
Q 353 2609 779 3096 
Q 1206 3584 1959 3584 
z
" transform="scale(0.015625)"/>
      <path id="DejaVuSans-20" transform="scale(0.015625)"/>
      <path id="DejaVuSans-66" d="M 2375 4863 
L 2375 4384 
L 1825 4384 
Q 1516 4384 1395 4259 
Q 1275 4134 1275 3809 
L 1275 3500 
L 2222 3500 
L 2222 3053 
L 1275 3053 
L 1275 0 
L 697 0 
L 697 3053 
L 147 3053 
L 147 3500 
L 697 3500 
L 697 3744 
Q 697 4328 969 4595 
Q 1241 4863 1831 4863 
L 2375 4863 
z
" transform="scale(0.015625)"/>
      <path id="DejaVuSans-2d" d="M 313 2009 
L 1997 2009 
L 1997 1497 
L 313 1497 
L 313 2009 
z
" transform="scale(0.015625)"/>
      <path id="DejaVuSans-4e" d="M 628 4666 
L 1478 4666 
L 3547 763 
L 3547 4666 
L 4159 4666 
L 4159 0 
L 3309 0 
L 1241 3903 
L 1241 0 
L 628 0 
L 628 4666 
z
" transform="scale(0.015625)"/>
      <path id="DejaVuSans-6d" d="M 3328 2828 
Q 3544 3216 3844 3400 
Q 4144 3584 4550 3584 
Q 5097 3584 5394 3201 
Q 5691 2819 5691 2113 
L 5691 0 
L 5113 0 
L 5113 2094 
Q 5113 2597 4934 2840 
Q 4756 3084 4391 3084 
Q 3944 3084 3684 2787 
Q 3425 2491 3425 1978 
L 3425 0 
L 2847 0 
L 2847 2094 
Q 2847 2600 2669 2842 
Q 2491 3084 2119 3084 
Q 1678 3084 1418 2786 
Q 1159 2488 1159 1978 
L 1159 0 
L 581 0 
L 581 3500 
L 1159 3500 
L 1159 2956 
Q 1356 3278 1631 3431 
Q 1906 3584 2284 3584 
Q 2666 3584 2933 3390 
Q 3200 3197 3328 2828 
z
" transform="scale(0.015625)"/>
      <path id="DejaVuSans-64" d="M 2906 2969 
L 2906 4863 
L 3481 4863 
L 3481 0 
L 2906 0 
L 2906 525 
Q 2725 213 2448 61 
Q 2172 -91 1784 -91 
Q 1150 -91 751 415 
Q 353 922 353 1747 
Q 353 2572 751 3078 
Q 1150 3584 1784 3584 
Q 2172 3584 2448 3432 
Q 2725 3281 2906 2969 
z
M 947 1747 
Q 947 1113 1208 752 
Q 1469 391 1925 391 
Q 2381 391 2643 752 
Q 2906 1113 2906 1747 
Q 2906 2381 2643 2742 
Q 2381 3103 1925 3103 
Q 1469 3103 1208 2742 
Q 947 2381 947 1747 
z
" transform="scale(0.015625)"/>
      <path id="DejaVuSans-6c" d="M 603 4863 
L 1178 4863 
L 1178 0 
L 603 0 
L 603 4863 
z
" transform="scale(0.015625)"/>
     </defs>
     <use xlink:href="#DejaVuSans-44"/>
     <use xlink:href="#DejaVuSans-69" x="77.001953"/>
     <use xlink:href="#DejaVuSans-73" x="104.785156"/>
     <use xlink:href="#DejaVuSans-74" x="156.884766"/>
     <use xlink:href="#DejaVuSans-72" x="196.09375"/>
     <use xlink:href="#DejaVuSans-69" x="237.207031"/>
     <use xlink:href="#DejaVuSans-62" x="264.990234"/>
     <use xlink:href="#DejaVuSans-75" x="328.466797"/>
     <use xlink:href="#DejaVuSans-74" x="391.845703"/>
     <use xlink:href="#DejaVuSans-69" x="431.054688"/>
     <use xlink:href="#DejaVuSans-6f" x="458.837891"/>
     <use xlink:href="#DejaVuSans-6e" x="520.019531"/>
     <use xlink:href="#DejaVuSans-20" x="583.398438"/>
     <use xlink:href="#DejaVuSans-6f" x="615.185547"/>
     <use xlink:href="#DejaVuSans-66" x="676.367188"/>
     <use xlink:href="#DejaVuSans-20" x="711.572266"/>
     <use xlink:href="#DejaVuSans-44" x="743.359375"/>
     <use xlink:href="#DejaVuSans-69" x="820.361328"/>
     <use xlink:href="#DejaVuSans-73" x="848.144531"/>
     <use xlink:href="#DejaVuSans-74" x="900.244141"/>
     <use xlink:href="#DejaVuSans-61" x="939.453125"/>
     <use xlink:href="#DejaVuSans-6e" x="1000.732422"/>
     <use xlink:href="#DejaVuSans-63" x="1064.111328"/>
     <use xlink:href="#DejaVuSans-65" x="1119.091797"/>
     <use xlink:href="#DejaVuSans-73" x="1180.615234"/>
     <use xlink:href="#DejaVuSans-20" x="1232.714844"/>
     <use xlink:href="#DejaVuSans-2d" x="1264.501953"/>
     <use xlink:href="#DejaVuSans-20" x="1300.585938"/>
     <use xlink:href="#DejaVuSans-4e" x="1332.373047"/>
     <use xlink:href="#DejaVuSans-6f" x="1407.177734"/>
     <use xlink:href="#DejaVuSans-20" x="1468.359375"/>
     <use xlink:href="#DejaVuSans-6d" x="1500.146484"/>
     <use xlink:href="#DejaVuSans-6f" x="1597.558594"/>
     <use xlink:href="#DejaVuSans-64" x="1658.740234"/>
     <use xlink:href="#DejaVuSans-65" x="1722.216797"/>
     <use xlink:href="#DejaVuSans-6c" x="1783.740234"/>
    </g>
   </g>
   <g id="legend_1">
    <g id="patch_7">
     <path d="M 510.13125 89.19625 
L 641 89.19625 
Q 643 89.19625 643 87.19625 
L 643 58.84 
Q 643 56.84 641 56.84 
L 510.13125 56.84 
Q 508.13125 56.84 508.13125 58.84 
L 508.13125 87.19625 
Q 508.13125 89.19625 510.13125 89.19625 
z
" style="fill: #ffffff; opacity: 0.8; stroke: #cccccc; stroke-linejoin: miter"/>
    </g>
    <g id="patch_8">
     <path d="M 512.13125 68.438437 
L 532.13125 68.438437 
L 532.13125 61.438437 
L 512.13125 61.438437 
z
" style="fill: #1f77b4; fill-opacity: 0.25; stroke: #1f77b4; stroke-linejoin: miter"/>
    </g>
    <g id="text_20">
     <!-- Same Structure -->
     <g transform="translate(540.13125 68.438437) scale(0.1 -0.1)">
      <defs>
       <path id="DejaVuSans-53" d="M 3425 4513 
L 3425 3897 
Q 3066 4069 2747 4153 
Q 2428 4238 2131 4238 
Q 1616 4238 1336 4038 
Q 1056 3838 1056 3469 
Q 1056 3159 1242 3001 
Q 1428 2844 1947 2747 
L 2328 2669 
Q 3034 2534 3370 2195 
Q 3706 1856 3706 1288 
Q 3706 609 3251 259 
Q 2797 -91 1919 -91 
Q 1588 -91 1214 -16 
Q 841 59 441 206 
L 441 856 
Q 825 641 1194 531 
Q 1563 422 1919 422 
Q 2459 422 2753 634 
Q 3047 847 3047 1241 
Q 3047 1584 2836 1778 
Q 2625 1972 2144 2069 
L 1759 2144 
Q 1053 2284 737 2584 
Q 422 2884 422 3419 
Q 422 4038 858 4394 
Q 1294 4750 2059 4750 
Q 2388 4750 2728 4690 
Q 3069 4631 3425 4513 
z
" transform="scale(0.015625)"/>
      </defs>
      <use xlink:href="#DejaVuSans-53"/>
      <use xlink:href="#DejaVuSans-61" x="63.476562"/>
      <use xlink:href="#DejaVuSans-6d" x="124.755859"/>
      <use xlink:href="#DejaVuSans-65" x="222.167969"/>
      <use xlink:href="#DejaVuSans-20" x="283.691406"/>
      <use xlink:href="#DejaVuSans-53" x="315.478516"/>
      <use xlink:href="#DejaVuSans-74" x="378.955078"/>
      <use xlink:href="#DejaVuSans-72" x="418.164062"/>
      <use xlink:href="#DejaVuSans-75" x="459.277344"/>
      <use xlink:href="#DejaVuSans-63" x="522.65625"/>
      <use xlink:href="#DejaVuSans-74" x="577.636719"/>
      <use xlink:href="#DejaVuSans-75" x="616.845703"/>
      <use xlink:href="#DejaVuSans-72" x="680.224609"/>
      <use xlink:href="#DejaVuSans-65" x="719.087891"/>
     </g>
    </g>
    <g id="patch_9">
     <path d="M 512.13125 83.116562 
L 532.13125 83.116562 
L 532.13125 76.116562 
L 512.13125 76.116562 
z
" style="fill: #ff7f0e; fill-opacity: 0.25; stroke: #ff7f0e; stroke-linejoin: miter"/>
    </g>
    <g id="text_21">
     <!-- Different Structures -->
     <g transform="translate(540.13125 83.116562) scale(0.1 -0.1)">
      <use xlink:href="#DejaVuSans-44"/>
      <use xlink:href="#DejaVuSans-69" x="77.001953"/>
      <use xlink:href="#DejaVuSans-66" x="104.785156"/>
      <use xlink:href="#DejaVuSans-66" x="139.990234"/>
      <use xlink:href="#DejaVuSans-65" x="175.195312"/>
      <use xlink:href="#DejaVuSans-72" x="236.71875"/>
      <use xlink:href="#DejaVuSans-65" x="275.582031"/>
      <use xlink:href="#DejaVuSans-6e" x="337.105469"/>
      <use xlink:href="#DejaVuSans-74" x="400.484375"/>
      <use xlink:href="#DejaVuSans-20" x="439.693359"/>
      <use xlink:href="#DejaVuSans-53" x="471.480469"/>
      <use xlink:href="#DejaVuSans-74" x="534.957031"/>
      <use xlink:href="#DejaVuSans-72" x="574.166016"/>
      <use xlink:href="#DejaVuSans-75" x="615.279297"/>
      <use xlink:href="#DejaVuSans-63" x="678.658203"/>
      <use xlink:href="#DejaVuSans-74" x="733.638672"/>
      <use xlink:href="#DejaVuSans-75" x="772.847656"/>
      <use xlink:href="#DejaVuSans-72" x="836.226562"/>
      <use xlink:href="#DejaVuSans-65" x="875.089844"/>
      <use xlink:href="#DejaVuSans-73" x="936.613281"/>
     </g>
    </g>
   </g>
  </g>
 </g>
 <defs>
  <clipPath id="p77f52ab91e">
   <rect x="90" y="51.84" width="558" height="332.64"/>
  </clipPath>
 </defs>
</svg>
