<?xml version="1.0" encoding="utf-8" standalone="no"?>
<!DOCTYPE svg PUBLIC "-//W3C//DTD SVG 1.1//EN"
  "http://www.w3.org/Graphics/SVG/1.1/DTD/svg11.dtd">
<svg xmlns:xlink="http://www.w3.org/1999/xlink" width="864pt" height="432pt" viewBox="0 0 864 432" xmlns="http://www.w3.org/2000/svg" version="1.1">
 <metadata>
  <rdf:RDF xmlns:dc="http://purl.org/dc/elements/1.1/" xmlns:cc="http://creativecommons.org/ns#" xmlns:rdf="http://www.w3.org/1999/02/22-rdf-syntax-ns#">
   <cc:Work>
    <dc:type rdf:resource="http://purl.org/dc/dcmitype/StillImage"/>
    <dc:date>2025-01-22T14:55:55.728911</dc:date>
    <dc:format>image/svg+xml</dc:format>
    <dc:creator>
     <cc:Agent>
      <dc:title>Matplotlib v3.9.3, https://matplotlib.org/</dc:title>
     </cc:Agent>
    </dc:creator>
   </cc:Work>
  </rdf:RDF>
 </metadata>
 <defs>
  <style type="text/css">*{stroke-linejoin: round; stroke-linecap: butt}</style>
 </defs>
 <g id="figure_1">
  <g id="patch_1">
   <path d="M 0 432 
L 864 432 
L 864 0 
L 0 0 
z
" style="fill: #ffffff"/>
  </g>
  <g id="axes_1">
   <g id="patch_2">
    <path d="M 50.87 390.04 
L 278.787914 390.04 
L 278.787914 26.88 
L 50.87 26.88 
z
" style="fill: #ffffff"/>
   </g>
   <g id="patch_3">
    <path d="M 61.229905 390.04 
L 69.199063 390.04 
L 69.199063 366.635489 
L 61.229905 366.635489 
z
" clip-path="url(#pc4ee7243d4)" style="fill: #1f77b4; fill-opacity: 0.5; stroke: #000000; stroke-width: 0.688606; stroke-linejoin: miter"/>
   </g>
   <g id="patch_4">
    <path d="M 69.199063 390.04 
L 77.168221 390.04 
L 77.168221 293.821454 
L 69.199063 293.821454 
z
" clip-path="url(#pc4ee7243d4)" style="fill: #1f77b4; fill-opacity: 0.5; stroke: #000000; stroke-width: 0.688606; stroke-linejoin: miter"/>
   </g>
   <g id="patch_5">
    <path d="M 77.168221 390.04 
L 85.137379 390.04 
L 85.137379 181.9999 
L 77.168221 181.9999 
z
" clip-path="url(#pc4ee7243d4)" style="fill: #1f77b4; fill-opacity: 0.5; stroke: #000000; stroke-width: 0.688606; stroke-linejoin: miter"/>
   </g>
   <g id="patch_6">
    <path d="M 85.137379 390.04 
L 93.106537 390.04 
L 93.106537 85.781353 
L 85.137379 85.781353 
z
" clip-path="url(#pc4ee7243d4)" style="fill: #1f77b4; fill-opacity: 0.5; stroke: #000000; stroke-width: 0.688606; stroke-linejoin: miter"/>
   </g>
   <g id="patch_7">
    <path d="M 93.106537 390.04 
L 101.075694 390.04 
L 101.075694 44.173333 
L 93.106537 44.173333 
z
" clip-path="url(#pc4ee7243d4)" style="fill: #1f77b4; fill-opacity: 0.5; stroke: #000000; stroke-width: 0.688606; stroke-linejoin: miter"/>
   </g>
   <g id="patch_8">
    <path d="M 101.075694 390.04 
L 109.044852 390.04 
L 109.044852 116.987368 
L 101.075694 116.987368 
z
" clip-path="url(#pc4ee7243d4)" style="fill: #1f77b4; fill-opacity: 0.5; stroke: #000000; stroke-width: 0.688606; stroke-linejoin: miter"/>
   </g>
   <g id="patch_9">
    <path d="M 109.044852 390.04 
L 117.01401 390.04 
L 117.01401 148.193383 
L 109.044852 148.193383 
z
" clip-path="url(#pc4ee7243d4)" style="fill: #1f77b4; fill-opacity: 0.5; stroke: #000000; stroke-width: 0.688606; stroke-linejoin: miter"/>
   </g>
   <g id="patch_10">
    <path d="M 117.01401 390.04 
L 124.983168 390.04 
L 124.983168 140.39188 
L 117.01401 140.39188 
z
" clip-path="url(#pc4ee7243d4)" style="fill: #1f77b4; fill-opacity: 0.5; stroke: #000000; stroke-width: 0.688606; stroke-linejoin: miter"/>
   </g>
   <g id="patch_11">
    <path d="M 124.983168 390.04 
L 132.952326 390.04 
L 132.952326 187.200902 
L 124.983168 187.200902 
z
" clip-path="url(#pc4ee7243d4)" style="fill: #1f77b4; fill-opacity: 0.5; stroke: #000000; stroke-width: 0.688606; stroke-linejoin: miter"/>
   </g>
   <g id="patch_12">
    <path d="M 132.952326 390.04 
L 140.921484 390.04 
L 140.921484 184.600401 
L 132.952326 184.600401 
z
" clip-path="url(#pc4ee7243d4)" style="fill: #1f77b4; fill-opacity: 0.5; stroke: #000000; stroke-width: 0.688606; stroke-linejoin: miter"/>
   </g>
   <g id="patch_13">
    <path d="M 140.921484 390.04 
L 148.890642 390.04 
L 148.890642 234.009925 
L 140.921484 234.009925 
z
" clip-path="url(#pc4ee7243d4)" style="fill: #1f77b4; fill-opacity: 0.5; stroke: #000000; stroke-width: 0.688606; stroke-linejoin: miter"/>
   </g>
   <g id="patch_14">
    <path d="M 148.890642 390.04 
L 156.859799 390.04 
L 156.859799 280.818947 
L 148.890642 280.818947 
z
" clip-path="url(#pc4ee7243d4)" style="fill: #1f77b4; fill-opacity: 0.5; stroke: #000000; stroke-width: 0.688606; stroke-linejoin: miter"/>
   </g>
   <g id="patch_15">
    <path d="M 156.859799 390.04 
L 164.828957 390.04 
L 164.828957 319.826466 
L 156.859799 319.826466 
z
" clip-path="url(#pc4ee7243d4)" style="fill: #1f77b4; fill-opacity: 0.5; stroke: #000000; stroke-width: 0.688606; stroke-linejoin: miter"/>
   </g>
   <g id="patch_16">
    <path d="M 164.828957 390.04 
L 172.798115 390.04 
L 172.798115 340.630476 
L 164.828957 340.630476 
z
" clip-path="url(#pc4ee7243d4)" style="fill: #1f77b4; fill-opacity: 0.5; stroke: #000000; stroke-width: 0.688606; stroke-linejoin: miter"/>
   </g>
   <g id="patch_17">
    <path d="M 172.798115 390.04 
L 180.767273 390.04 
L 180.767273 356.233484 
L 172.798115 356.233484 
z
" clip-path="url(#pc4ee7243d4)" style="fill: #1f77b4; fill-opacity: 0.5; stroke: #000000; stroke-width: 0.688606; stroke-linejoin: miter"/>
   </g>
   <g id="patch_18">
    <path d="M 180.767273 390.04 
L 188.736431 390.04 
L 188.736431 343.230977 
L 180.767273 343.230977 
z
" clip-path="url(#pc4ee7243d4)" style="fill: #1f77b4; fill-opacity: 0.5; stroke: #000000; stroke-width: 0.688606; stroke-linejoin: miter"/>
   </g>
   <g id="patch_19">
    <path d="M 188.736431 390.04 
L 196.705589 390.04 
L 196.705589 374.436992 
L 188.736431 374.436992 
z
" clip-path="url(#pc4ee7243d4)" style="fill: #1f77b4; fill-opacity: 0.5; stroke: #000000; stroke-width: 0.688606; stroke-linejoin: miter"/>
   </g>
   <g id="patch_20">
    <path d="M 196.705589 390.04 
L 204.674746 390.04 
L 204.674746 374.436992 
L 196.705589 374.436992 
z
" clip-path="url(#pc4ee7243d4)" style="fill: #1f77b4; fill-opacity: 0.5; stroke: #000000; stroke-width: 0.688606; stroke-linejoin: miter"/>
   </g>
   <g id="patch_21">
    <path d="M 204.674746 390.04 
L 212.643904 390.04 
L 212.643904 387.439499 
L 204.674746 387.439499 
z
" clip-path="url(#pc4ee7243d4)" style="fill: #1f77b4; fill-opacity: 0.5; stroke: #000000; stroke-width: 0.688606; stroke-linejoin: miter"/>
   </g>
   <g id="patch_22">
    <path d="M 212.643904 390.04 
L 220.613062 390.04 
L 220.613062 384.838997 
L 212.643904 384.838997 
z
" clip-path="url(#pc4ee7243d4)" style="fill: #1f77b4; fill-opacity: 0.5; stroke: #000000; stroke-width: 0.688606; stroke-linejoin: miter"/>
   </g>
   <g id="patch_23">
    <path d="M 220.613062 390.04 
L 228.58222 390.04 
L 228.58222 387.439499 
L 220.613062 387.439499 
z
" clip-path="url(#pc4ee7243d4)" style="fill: #1f77b4; fill-opacity: 0.5; stroke: #000000; stroke-width: 0.688606; stroke-linejoin: miter"/>
   </g>
   <g id="patch_24">
    <path d="M 228.58222 390.04 
L 236.551378 390.04 
L 236.551378 390.04 
L 228.58222 390.04 
z
" clip-path="url(#pc4ee7243d4)" style="fill: #1f77b4; fill-opacity: 0.5; stroke: #000000; stroke-width: 0.688606; stroke-linejoin: miter"/>
   </g>
   <g id="patch_25">
    <path d="M 236.551378 390.04 
L 244.520536 390.04 
L 244.520536 387.439499 
L 236.551378 387.439499 
z
" clip-path="url(#pc4ee7243d4)" style="fill: #1f77b4; fill-opacity: 0.5; stroke: #000000; stroke-width: 0.688606; stroke-linejoin: miter"/>
   </g>
   <g id="patch_26">
    <path d="M 244.520536 390.04 
L 252.489694 390.04 
L 252.489694 390.04 
L 244.520536 390.04 
z
" clip-path="url(#pc4ee7243d4)" style="fill: #1f77b4; fill-opacity: 0.5; stroke: #000000; stroke-width: 0.688606; stroke-linejoin: miter"/>
   </g>
   <g id="patch_27">
    <path d="M 252.489694 390.04 
L 260.458851 390.04 
L 260.458851 390.04 
L 252.489694 390.04 
z
" clip-path="url(#pc4ee7243d4)" style="fill: #1f77b4; fill-opacity: 0.5; stroke: #000000; stroke-width: 0.688606; stroke-linejoin: miter"/>
   </g>
   <g id="patch_28">
    <path d="M 260.458851 390.04 
L 268.428009 390.04 
L 268.428009 387.439499 
L 260.458851 387.439499 
z
" clip-path="url(#pc4ee7243d4)" style="fill: #1f77b4; fill-opacity: 0.5; stroke: #000000; stroke-width: 0.688606; stroke-linejoin: miter"/>
   </g>
   <g id="matplotlib.axis_1">
    <g id="xtick_1">
     <g id="line2d_1">
      <defs>
       <path id="md9ed906729" d="M 0 0 
L 0 3.5 
" style="stroke: #000000; stroke-width: 0.8"/>
      </defs>
      <g>
       <use xlink:href="#md9ed906729" x="84.331709" y="390.04" style="stroke: #000000; stroke-width: 0.8"/>
      </g>
     </g>
     <g id="text_1">
      <!-- 5.0 -->
      <g transform="translate(76.380147 404.638438) scale(0.1 -0.1)">
       <defs>
        <path id="DejaVuSans-35" d="M 691 4666 
L 3169 4666 
L 3169 4134 
L 1269 4134 
L 1269 2991 
Q 1406 3038 1543 3061 
Q 1681 3084 1819 3084 
Q 2600 3084 3056 2656 
Q 3513 2228 3513 1497 
Q 3513 744 3044 326 
Q 2575 -91 1722 -91 
Q 1428 -91 1123 -41 
Q 819 9 494 109 
L 494 744 
Q 775 591 1075 516 
Q 1375 441 1709 441 
Q 2250 441 2565 725 
Q 2881 1009 2881 1497 
Q 2881 1984 2565 2268 
Q 2250 2553 1709 2553 
Q 1456 2553 1204 2497 
Q 953 2441 691 2322 
L 691 4666 
z
" transform="scale(0.015625)"/>
        <path id="DejaVuSans-2e" d="M 684 794 
L 1344 794 
L 1344 0 
L 684 0 
L 684 794 
z
" transform="scale(0.015625)"/>
        <path id="DejaVuSans-30" d="M 2034 4250 
Q 1547 4250 1301 3770 
Q 1056 3291 1056 2328 
Q 1056 1369 1301 889 
Q 1547 409 2034 409 
Q 2525 409 2770 889 
Q 3016 1369 3016 2328 
Q 3016 3291 2770 3770 
Q 2525 4250 2034 4250 
z
M 2034 4750 
Q 2819 4750 3233 4129 
Q 3647 3509 3647 2328 
Q 3647 1150 3233 529 
Q 2819 -91 2034 -91 
Q 1250 -91 836 529 
Q 422 1150 422 2328 
Q 422 3509 836 4129 
Q 1250 4750 2034 4750 
z
" transform="scale(0.015625)"/>
       </defs>
       <use xlink:href="#DejaVuSans-35"/>
       <use xlink:href="#DejaVuSans-2e" x="63.623047"/>
       <use xlink:href="#DejaVuSans-30" x="95.410156"/>
      </g>
     </g>
    </g>
    <g id="xtick_2">
     <g id="line2d_2">
      <g>
       <use xlink:href="#md9ed906729" x="119.545301" y="390.04" style="stroke: #000000; stroke-width: 0.8"/>
      </g>
     </g>
     <g id="text_2">
      <!-- 7.5 -->
      <g transform="translate(111.593739 404.638438) scale(0.1 -0.1)">
       <defs>
        <path id="DejaVuSans-37" d="M 525 4666 
L 3525 4666 
L 3525 4397 
L 1831 0 
L 1172 0 
L 2766 4134 
L 525 4134 
L 525 4666 
z
" transform="scale(0.015625)"/>
       </defs>
       <use xlink:href="#DejaVuSans-37"/>
       <use xlink:href="#DejaVuSans-2e" x="63.623047"/>
       <use xlink:href="#DejaVuSans-35" x="95.410156"/>
      </g>
     </g>
    </g>
    <g id="xtick_3">
     <g id="line2d_3">
      <g>
       <use xlink:href="#md9ed906729" x="154.758893" y="390.04" style="stroke: #000000; stroke-width: 0.8"/>
      </g>
     </g>
     <g id="text_3">
      <!-- 10.0 -->
      <g transform="translate(143.626081 404.638438) scale(0.1 -0.1)">
       <defs>
        <path id="DejaVuSans-31" d="M 794 531 
L 1825 531 
L 1825 4091 
L 703 3866 
L 703 4441 
L 1819 4666 
L 2450 4666 
L 2450 531 
L 3481 531 
L 3481 0 
L 794 0 
L 794 531 
z
" transform="scale(0.015625)"/>
       </defs>
       <use xlink:href="#DejaVuSans-31"/>
       <use xlink:href="#DejaVuSans-30" x="63.623047"/>
       <use xlink:href="#DejaVuSans-2e" x="127.246094"/>
       <use xlink:href="#DejaVuSans-30" x="159.033203"/>
      </g>
     </g>
    </g>
    <g id="xtick_4">
     <g id="line2d_4">
      <g>
       <use xlink:href="#md9ed906729" x="189.972485" y="390.04" style="stroke: #000000; stroke-width: 0.8"/>
      </g>
     </g>
     <g id="text_4">
      <!-- 12.5 -->
      <g transform="translate(178.839673 404.638438) scale(0.1 -0.1)">
       <defs>
        <path id="DejaVuSans-32" d="M 1228 531 
L 3431 531 
L 3431 0 
L 469 0 
L 469 531 
Q 828 903 1448 1529 
Q 2069 2156 2228 2338 
Q 2531 2678 2651 2914 
Q 2772 3150 2772 3378 
Q 2772 3750 2511 3984 
Q 2250 4219 1831 4219 
Q 1534 4219 1204 4116 
Q 875 4013 500 3803 
L 500 4441 
Q 881 4594 1212 4672 
Q 1544 4750 1819 4750 
Q 2544 4750 2975 4387 
Q 3406 4025 3406 3419 
Q 3406 3131 3298 2873 
Q 3191 2616 2906 2266 
Q 2828 2175 2409 1742 
Q 1991 1309 1228 531 
z
" transform="scale(0.015625)"/>
       </defs>
       <use xlink:href="#DejaVuSans-31"/>
       <use xlink:href="#DejaVuSans-32" x="63.623047"/>
       <use xlink:href="#DejaVuSans-2e" x="127.246094"/>
       <use xlink:href="#DejaVuSans-35" x="159.033203"/>
      </g>
     </g>
    </g>
    <g id="xtick_5">
     <g id="line2d_5">
      <g>
       <use xlink:href="#md9ed906729" x="225.186077" y="390.04" style="stroke: #000000; stroke-width: 0.8"/>
      </g>
     </g>
     <g id="text_5">
      <!-- 15.0 -->
      <g transform="translate(214.053265 404.638438) scale(0.1 -0.1)">
       <use xlink:href="#DejaVuSans-31"/>
       <use xlink:href="#DejaVuSans-35" x="63.623047"/>
       <use xlink:href="#DejaVuSans-2e" x="127.246094"/>
       <use xlink:href="#DejaVuSans-30" x="159.033203"/>
      </g>
     </g>
    </g>
    <g id="xtick_6">
     <g id="line2d_6">
      <g>
       <use xlink:href="#md9ed906729" x="260.399669" y="390.04" style="stroke: #000000; stroke-width: 0.8"/>
      </g>
     </g>
     <g id="text_6">
      <!-- 17.5 -->
      <g transform="translate(249.266857 404.638438) scale(0.1 -0.1)">
       <use xlink:href="#DejaVuSans-31"/>
       <use xlink:href="#DejaVuSans-37" x="63.623047"/>
       <use xlink:href="#DejaVuSans-2e" x="127.246094"/>
       <use xlink:href="#DejaVuSans-35" x="159.033203"/>
      </g>
     </g>
    </g>
    <g id="text_7">
     <!-- Entropy (bits) -->
     <g transform="translate(130.785988 418.316562) scale(0.1 -0.1)">
      <defs>
       <path id="DejaVuSans-45" d="M 628 4666 
L 3578 4666 
L 3578 4134 
L 1259 4134 
L 1259 2753 
L 3481 2753 
L 3481 2222 
L 1259 2222 
L 1259 531 
L 3634 531 
L 3634 0 
L 628 0 
L 628 4666 
z
" transform="scale(0.015625)"/>
       <path id="DejaVuSans-6e" d="M 3513 2113 
L 3513 0 
L 2938 0 
L 2938 2094 
Q 2938 2591 2744 2837 
Q 2550 3084 2163 3084 
Q 1697 3084 1428 2787 
Q 1159 2491 1159 1978 
L 1159 0 
L 581 0 
L 581 3500 
L 1159 3500 
L 1159 2956 
Q 1366 3272 1645 3428 
Q 1925 3584 2291 3584 
Q 2894 3584 3203 3211 
Q 3513 2838 3513 2113 
z
" transform="scale(0.015625)"/>
       <path id="DejaVuSans-74" d="M 1172 4494 
L 1172 3500 
L 2356 3500 
L 2356 3053 
L 1172 3053 
L 1172 1153 
Q 1172 725 1289 603 
Q 1406 481 1766 481 
L 2356 481 
L 2356 0 
L 1766 0 
Q 1100 0 847 248 
Q 594 497 594 1153 
L 594 3053 
L 172 3053 
L 172 3500 
L 594 3500 
L 594 4494 
L 1172 4494 
z
" transform="scale(0.015625)"/>
       <path id="DejaVuSans-72" d="M 2631 2963 
Q 2534 3019 2420 3045 
Q 2306 3072 2169 3072 
Q 1681 3072 1420 2755 
Q 1159 2438 1159 1844 
L 1159 0 
L 581 0 
L 581 3500 
L 1159 3500 
L 1159 2956 
Q 1341 3275 1631 3429 
Q 1922 3584 2338 3584 
Q 2397 3584 2469 3576 
Q 2541 3569 2628 3553 
L 2631 2963 
z
" transform="scale(0.015625)"/>
       <path id="DejaVuSans-6f" d="M 1959 3097 
Q 1497 3097 1228 2736 
Q 959 2375 959 1747 
Q 959 1119 1226 758 
Q 1494 397 1959 397 
Q 2419 397 2687 759 
Q 2956 1122 2956 1747 
Q 2956 2369 2687 2733 
Q 2419 3097 1959 3097 
z
M 1959 3584 
Q 2709 3584 3137 3096 
Q 3566 2609 3566 1747 
Q 3566 888 3137 398 
Q 2709 -91 1959 -91 
Q 1206 -91 779 398 
Q 353 888 353 1747 
Q 353 2609 779 3096 
Q 1206 3584 1959 3584 
z
" transform="scale(0.015625)"/>
       <path id="DejaVuSans-70" d="M 1159 525 
L 1159 -1331 
L 581 -1331 
L 581 3500 
L 1159 3500 
L 1159 2969 
Q 1341 3281 1617 3432 
Q 1894 3584 2278 3584 
Q 2916 3584 3314 3078 
Q 3713 2572 3713 1747 
Q 3713 922 3314 415 
Q 2916 -91 2278 -91 
Q 1894 -91 1617 61 
Q 1341 213 1159 525 
z
M 3116 1747 
Q 3116 2381 2855 2742 
Q 2594 3103 2138 3103 
Q 1681 3103 1420 2742 
Q 1159 2381 1159 1747 
Q 1159 1113 1420 752 
Q 1681 391 2138 391 
Q 2594 391 2855 752 
Q 3116 1113 3116 1747 
z
" transform="scale(0.015625)"/>
       <path id="DejaVuSans-79" d="M 2059 -325 
Q 1816 -950 1584 -1140 
Q 1353 -1331 966 -1331 
L 506 -1331 
L 506 -850 
L 844 -850 
Q 1081 -850 1212 -737 
Q 1344 -625 1503 -206 
L 1606 56 
L 191 3500 
L 800 3500 
L 1894 763 
L 2988 3500 
L 3597 3500 
L 2059 -325 
z
" transform="scale(0.015625)"/>
       <path id="DejaVuSans-20" transform="scale(0.015625)"/>
       <path id="DejaVuSans-28" d="M 1984 4856 
Q 1566 4138 1362 3434 
Q 1159 2731 1159 2009 
Q 1159 1288 1364 580 
Q 1569 -128 1984 -844 
L 1484 -844 
Q 1016 -109 783 600 
Q 550 1309 550 2009 
Q 550 2706 781 3412 
Q 1013 4119 1484 4856 
L 1984 4856 
z
" transform="scale(0.015625)"/>
       <path id="DejaVuSans-62" d="M 3116 1747 
Q 3116 2381 2855 2742 
Q 2594 3103 2138 3103 
Q 1681 3103 1420 2742 
Q 1159 2381 1159 1747 
Q 1159 1113 1420 752 
Q 1681 391 2138 391 
Q 2594 391 2855 752 
Q 3116 1113 3116 1747 
z
M 1159 2969 
Q 1341 3281 1617 3432 
Q 1894 3584 2278 3584 
Q 2916 3584 3314 3078 
Q 3713 2572 3713 1747 
Q 3713 922 3314 415 
Q 2916 -91 2278 -91 
Q 1894 -91 1617 61 
Q 1341 213 1159 525 
L 1159 0 
L 581 0 
L 581 4863 
L 1159 4863 
L 1159 2969 
z
" transform="scale(0.015625)"/>
       <path id="DejaVuSans-69" d="M 603 3500 
L 1178 3500 
L 1178 0 
L 603 0 
L 603 3500 
z
M 603 4863 
L 1178 4863 
L 1178 4134 
L 603 4134 
L 603 4863 
z
" transform="scale(0.015625)"/>
       <path id="DejaVuSans-73" d="M 2834 3397 
L 2834 2853 
Q 2591 2978 2328 3040 
Q 2066 3103 1784 3103 
Q 1356 3103 1142 2972 
Q 928 2841 928 2578 
Q 928 2378 1081 2264 
Q 1234 2150 1697 2047 
L 1894 2003 
Q 2506 1872 2764 1633 
Q 3022 1394 3022 966 
Q 3022 478 2636 193 
Q 2250 -91 1575 -91 
Q 1294 -91 989 -36 
Q 684 19 347 128 
L 347 722 
Q 666 556 975 473 
Q 1284 391 1588 391 
Q 1994 391 2212 530 
Q 2431 669 2431 922 
Q 2431 1156 2273 1281 
Q 2116 1406 1581 1522 
L 1381 1569 
Q 847 1681 609 1914 
Q 372 2147 372 2553 
Q 372 3047 722 3315 
Q 1072 3584 1716 3584 
Q 2034 3584 2315 3537 
Q 2597 3491 2834 3397 
z
" transform="scale(0.015625)"/>
       <path id="DejaVuSans-29" d="M 513 4856 
L 1013 4856 
Q 1481 4119 1714 3412 
Q 1947 2706 1947 2009 
Q 1947 1309 1714 600 
Q 1481 -109 1013 -844 
L 513 -844 
Q 928 -128 1133 580 
Q 1338 1288 1338 2009 
Q 1338 2731 1133 3434 
Q 928 4138 513 4856 
z
" transform="scale(0.015625)"/>
      </defs>
      <use xlink:href="#DejaVuSans-45"/>
      <use xlink:href="#DejaVuSans-6e" x="63.183594"/>
      <use xlink:href="#DejaVuSans-74" x="126.5625"/>
      <use xlink:href="#DejaVuSans-72" x="165.771484"/>
      <use xlink:href="#DejaVuSans-6f" x="204.634766"/>
      <use xlink:href="#DejaVuSans-70" x="265.816406"/>
      <use xlink:href="#DejaVuSans-79" x="329.292969"/>
      <use xlink:href="#DejaVuSans-20" x="388.472656"/>
      <use xlink:href="#DejaVuSans-28" x="420.259766"/>
      <use xlink:href="#DejaVuSans-62" x="459.273438"/>
      <use xlink:href="#DejaVuSans-69" x="522.75"/>
      <use xlink:href="#DejaVuSans-74" x="550.533203"/>
      <use xlink:href="#DejaVuSans-73" x="589.742188"/>
      <use xlink:href="#DejaVuSans-29" x="641.841797"/>
     </g>
    </g>
   </g>
   <g id="matplotlib.axis_2">
    <g id="ytick_1">
     <g id="line2d_7">
      <defs>
       <path id="mf0a973d754" d="M 0 0 
L -3.5 0 
" style="stroke: #000000; stroke-width: 0.8"/>
      </defs>
      <g>
       <use xlink:href="#mf0a973d754" x="50.87" y="390.04" style="stroke: #000000; stroke-width: 0.8"/>
      </g>
     </g>
     <g id="text_8">
      <!-- 0 -->
      <g transform="translate(37.5075 393.839219) scale(0.1 -0.1)">
       <use xlink:href="#DejaVuSans-30"/>
      </g>
     </g>
    </g>
    <g id="ytick_2">
     <g id="line2d_8">
      <g>
       <use xlink:href="#mf0a973d754" x="50.87" y="338.029975" style="stroke: #000000; stroke-width: 0.8"/>
      </g>
     </g>
     <g id="text_9">
      <!-- 20 -->
      <g transform="translate(31.145 341.829194) scale(0.1 -0.1)">
       <use xlink:href="#DejaVuSans-32"/>
       <use xlink:href="#DejaVuSans-30" x="63.623047"/>
      </g>
     </g>
    </g>
    <g id="ytick_3">
     <g id="line2d_9">
      <g>
       <use xlink:href="#mf0a973d754" x="50.87" y="286.01995" style="stroke: #000000; stroke-width: 0.8"/>
      </g>
     </g>
     <g id="text_10">
      <!-- 40 -->
      <g transform="translate(31.145 289.819169) scale(0.1 -0.1)">
       <defs>
        <path id="DejaVuSans-34" d="M 2419 4116 
L 825 1625 
L 2419 1625 
L 2419 4116 
z
M 2253 4666 
L 3047 4666 
L 3047 1625 
L 3713 1625 
L 3713 1100 
L 3047 1100 
L 3047 0 
L 2419 0 
L 2419 1100 
L 313 1100 
L 313 1709 
L 2253 4666 
z
" transform="scale(0.015625)"/>
       </defs>
       <use xlink:href="#DejaVuSans-34"/>
       <use xlink:href="#DejaVuSans-30" x="63.623047"/>
      </g>
     </g>
    </g>
    <g id="ytick_4">
     <g id="line2d_10">
      <g>
       <use xlink:href="#mf0a973d754" x="50.87" y="234.009925" style="stroke: #000000; stroke-width: 0.8"/>
      </g>
     </g>
     <g id="text_11">
      <!-- 60 -->
      <g transform="translate(31.145 237.809144) scale(0.1 -0.1)">
       <defs>
        <path id="DejaVuSans-36" d="M 2113 2584 
Q 1688 2584 1439 2293 
Q 1191 2003 1191 1497 
Q 1191 994 1439 701 
Q 1688 409 2113 409 
Q 2538 409 2786 701 
Q 3034 994 3034 1497 
Q 3034 2003 2786 2293 
Q 2538 2584 2113 2584 
z
M 3366 4563 
L 3366 3988 
Q 3128 4100 2886 4159 
Q 2644 4219 2406 4219 
Q 1781 4219 1451 3797 
Q 1122 3375 1075 2522 
Q 1259 2794 1537 2939 
Q 1816 3084 2150 3084 
Q 2853 3084 3261 2657 
Q 3669 2231 3669 1497 
Q 3669 778 3244 343 
Q 2819 -91 2113 -91 
Q 1303 -91 875 529 
Q 447 1150 447 2328 
Q 447 3434 972 4092 
Q 1497 4750 2381 4750 
Q 2619 4750 2861 4703 
Q 3103 4656 3366 4563 
z
" transform="scale(0.015625)"/>
       </defs>
       <use xlink:href="#DejaVuSans-36"/>
       <use xlink:href="#DejaVuSans-30" x="63.623047"/>
      </g>
     </g>
    </g>
    <g id="ytick_5">
     <g id="line2d_11">
      <g>
       <use xlink:href="#mf0a973d754" x="50.87" y="181.9999" style="stroke: #000000; stroke-width: 0.8"/>
      </g>
     </g>
     <g id="text_12">
      <!-- 80 -->
      <g transform="translate(31.145 185.799118) scale(0.1 -0.1)">
       <defs>
        <path id="DejaVuSans-38" d="M 2034 2216 
Q 1584 2216 1326 1975 
Q 1069 1734 1069 1313 
Q 1069 891 1326 650 
Q 1584 409 2034 409 
Q 2484 409 2743 651 
Q 3003 894 3003 1313 
Q 3003 1734 2745 1975 
Q 2488 2216 2034 2216 
z
M 1403 2484 
Q 997 2584 770 2862 
Q 544 3141 544 3541 
Q 544 4100 942 4425 
Q 1341 4750 2034 4750 
Q 2731 4750 3128 4425 
Q 3525 4100 3525 3541 
Q 3525 3141 3298 2862 
Q 3072 2584 2669 2484 
Q 3125 2378 3379 2068 
Q 3634 1759 3634 1313 
Q 3634 634 3220 271 
Q 2806 -91 2034 -91 
Q 1263 -91 848 271 
Q 434 634 434 1313 
Q 434 1759 690 2068 
Q 947 2378 1403 2484 
z
M 1172 3481 
Q 1172 3119 1398 2916 
Q 1625 2713 2034 2713 
Q 2441 2713 2670 2916 
Q 2900 3119 2900 3481 
Q 2900 3844 2670 4047 
Q 2441 4250 2034 4250 
Q 1625 4250 1398 4047 
Q 1172 3844 1172 3481 
z
" transform="scale(0.015625)"/>
       </defs>
       <use xlink:href="#DejaVuSans-38"/>
       <use xlink:href="#DejaVuSans-30" x="63.623047"/>
      </g>
     </g>
    </g>
    <g id="ytick_6">
     <g id="line2d_12">
      <g>
       <use xlink:href="#mf0a973d754" x="50.87" y="129.989875" style="stroke: #000000; stroke-width: 0.8"/>
      </g>
     </g>
     <g id="text_13">
      <!-- 100 -->
      <g transform="translate(24.7825 133.789093) scale(0.1 -0.1)">
       <use xlink:href="#DejaVuSans-31"/>
       <use xlink:href="#DejaVuSans-30" x="63.623047"/>
       <use xlink:href="#DejaVuSans-30" x="127.246094"/>
      </g>
     </g>
    </g>
    <g id="ytick_7">
     <g id="line2d_13">
      <g>
       <use xlink:href="#mf0a973d754" x="50.87" y="77.97985" style="stroke: #000000; stroke-width: 0.8"/>
      </g>
     </g>
     <g id="text_14">
      <!-- 120 -->
      <g transform="translate(24.7825 81.779068) scale(0.1 -0.1)">
       <use xlink:href="#DejaVuSans-31"/>
       <use xlink:href="#DejaVuSans-32" x="63.623047"/>
       <use xlink:href="#DejaVuSans-30" x="127.246094"/>
      </g>
     </g>
    </g>
    <g id="text_15">
     <!-- Count -->
     <g transform="translate(18.702813 223.308437) rotate(-90) scale(0.1 -0.1)">
      <defs>
       <path id="DejaVuSans-43" d="M 4122 4306 
L 4122 3641 
Q 3803 3938 3442 4084 
Q 3081 4231 2675 4231 
Q 1875 4231 1450 3742 
Q 1025 3253 1025 2328 
Q 1025 1406 1450 917 
Q 1875 428 2675 428 
Q 3081 428 3442 575 
Q 3803 722 4122 1019 
L 4122 359 
Q 3791 134 3420 21 
Q 3050 -91 2638 -91 
Q 1578 -91 968 557 
Q 359 1206 359 2328 
Q 359 3453 968 4101 
Q 1578 4750 2638 4750 
Q 3056 4750 3426 4639 
Q 3797 4528 4122 4306 
z
" transform="scale(0.015625)"/>
       <path id="DejaVuSans-75" d="M 544 1381 
L 544 3500 
L 1119 3500 
L 1119 1403 
Q 1119 906 1312 657 
Q 1506 409 1894 409 
Q 2359 409 2629 706 
Q 2900 1003 2900 1516 
L 2900 3500 
L 3475 3500 
L 3475 0 
L 2900 0 
L 2900 538 
Q 2691 219 2414 64 
Q 2138 -91 1772 -91 
Q 1169 -91 856 284 
Q 544 659 544 1381 
z
M 1991 3584 
L 1991 3584 
z
" transform="scale(0.015625)"/>
      </defs>
      <use xlink:href="#DejaVuSans-43"/>
      <use xlink:href="#DejaVuSans-6f" x="69.824219"/>
      <use xlink:href="#DejaVuSans-75" x="131.005859"/>
      <use xlink:href="#DejaVuSans-6e" x="194.384766"/>
      <use xlink:href="#DejaVuSans-74" x="257.763672"/>
     </g>
    </g>
   </g>
   <g id="line2d_14">
    <path d="M 61.229905 369.552105 
L 62.271102 365.427761 
L 63.312298 360.737622 
L 64.353495 355.450143 
L 65.394691 349.537769 
L 67.477084 335.751719 
L 69.559477 319.264666 
L 71.64187 300.080748 
L 73.724263 278.370478 
L 75.806656 254.524294 
L 79.971442 203.256011 
L 83.095032 165.563724 
L 85.177425 142.796044 
L 87.259818 122.970358 
L 88.301014 114.372703 
L 89.342211 106.735889 
L 90.383407 100.107099 
L 91.424604 94.522673 
L 92.4658 90.008984 
L 93.506997 86.582267 
L 94.548193 84.247197 
L 95.58939 82.994353 
L 96.630586 82.796954 
L 97.671783 83.607517 
L 98.712979 85.355174 
L 99.754176 87.944388 
L 100.795372 91.255635 
L 102.877765 99.466231 
L 107.042551 117.738126 
L 109.124944 125.524054 
L 110.166141 128.762845 
L 111.207337 131.530068 
L 112.248534 133.840182 
L 113.28973 135.736863 
L 114.330927 137.28812 
L 116.41332 139.711856 
L 118.495713 141.905038 
L 119.536909 143.163603 
L 120.578106 144.644056 
L 121.619302 146.412182 
L 122.660499 148.514524 
L 123.701695 150.977168 
L 124.742892 153.806121 
L 126.825285 160.499189 
L 128.907678 168.340688 
L 132.031267 181.474665 
L 144.525625 236.899196 
L 148.690411 255.9967 
L 152.855197 276.450585 
L 158.06118 302.172189 
L 160.143573 311.476308 
L 162.225966 319.744019 
L 164.308359 326.788938 
L 166.390752 332.559378 
L 168.473145 337.134566 
L 170.555538 340.694353 
L 172.637931 343.471674 
L 174.720324 345.704835 
L 176.802717 347.607638 
L 182.0087 352.084361 
L 184.091093 354.162242 
L 186.173486 356.563484 
L 188.255879 359.297265 
L 191.379468 363.821878 
L 195.544254 369.840334 
L 198.667844 373.837886 
L 201.791433 377.305251 
L 203.873826 379.344631 
L 205.956219 381.149806 
L 208.038612 382.673769 
L 210.121005 383.868674 
L 212.203398 384.722736 
L 214.285791 385.283401 
L 217.409381 385.80347 
L 221.574167 386.480678 
L 230.944935 388.362549 
L 234.068525 388.613442 
L 243.439293 389.143297 
L 250.727669 389.712655 
L 254.892455 389.74777 
L 259.057241 389.520874 
L 267.386813 388.925323 
L 268.428009 388.91426 
L 268.428009 388.91426 
" clip-path="url(#pc4ee7243d4)" style="fill: none; stroke: #1f77b4; stroke-width: 1.5; stroke-linecap: square"/>
   </g>
   <g id="patch_29">
    <path d="M 50.87 390.04 
L 50.87 26.88 
" style="fill: none; stroke: #000000; stroke-width: 0.8; stroke-linejoin: miter; stroke-linecap: square"/>
   </g>
   <g id="patch_30">
    <path d="M 278.787914 390.04 
L 278.787914 26.88 
" style="fill: none; stroke: #000000; stroke-width: 0.8; stroke-linejoin: miter; stroke-linecap: square"/>
   </g>
   <g id="patch_31">
    <path d="M 50.87 390.04 
L 278.787914 390.04 
" style="fill: none; stroke: #000000; stroke-width: 0.8; stroke-linejoin: miter; stroke-linecap: square"/>
   </g>
   <g id="patch_32">
    <path d="M 50.87 26.88 
L 278.787914 26.88 
" style="fill: none; stroke: #000000; stroke-width: 0.8; stroke-linejoin: miter; stroke-linecap: square"/>
   </g>
   <g id="text_16">
    <!-- Continuous Entropy Distribution per Dimension -->
    <g transform="translate(23.143645 20.88) scale(0.12 -0.12)">
     <defs>
      <path id="DejaVuSans-44" d="M 1259 4147 
L 1259 519 
L 2022 519 
Q 2988 519 3436 956 
Q 3884 1394 3884 2338 
Q 3884 3275 3436 3711 
Q 2988 4147 2022 4147 
L 1259 4147 
z
M 628 4666 
L 1925 4666 
Q 3281 4666 3915 4102 
Q 4550 3538 4550 2338 
Q 4550 1131 3912 565 
Q 3275 0 1925 0 
L 628 0 
L 628 4666 
z
" transform="scale(0.015625)"/>
      <path id="DejaVuSans-65" d="M 3597 1894 
L 3597 1613 
L 953 1613 
Q 991 1019 1311 708 
Q 1631 397 2203 397 
Q 2534 397 2845 478 
Q 3156 559 3463 722 
L 3463 178 
Q 3153 47 2828 -22 
Q 2503 -91 2169 -91 
Q 1331 -91 842 396 
Q 353 884 353 1716 
Q 353 2575 817 3079 
Q 1281 3584 2069 3584 
Q 2775 3584 3186 3129 
Q 3597 2675 3597 1894 
z
M 3022 2063 
Q 3016 2534 2758 2815 
Q 2500 3097 2075 3097 
Q 1594 3097 1305 2825 
Q 1016 2553 972 2059 
L 3022 2063 
z
" transform="scale(0.015625)"/>
      <path id="DejaVuSans-6d" d="M 3328 2828 
Q 3544 3216 3844 3400 
Q 4144 3584 4550 3584 
Q 5097 3584 5394 3201 
Q 5691 2819 5691 2113 
L 5691 0 
L 5113 0 
L 5113 2094 
Q 5113 2597 4934 2840 
Q 4756 3084 4391 3084 
Q 3944 3084 3684 2787 
Q 3425 2491 3425 1978 
L 3425 0 
L 2847 0 
L 2847 2094 
Q 2847 2600 2669 2842 
Q 2491 3084 2119 3084 
Q 1678 3084 1418 2786 
Q 1159 2488 1159 1978 
L 1159 0 
L 581 0 
L 581 3500 
L 1159 3500 
L 1159 2956 
Q 1356 3278 1631 3431 
Q 1906 3584 2284 3584 
Q 2666 3584 2933 3390 
Q 3200 3197 3328 2828 
z
" transform="scale(0.015625)"/>
     </defs>
     <use xlink:href="#DejaVuSans-43"/>
     <use xlink:href="#DejaVuSans-6f" x="69.824219"/>
     <use xlink:href="#DejaVuSans-6e" x="131.005859"/>
     <use xlink:href="#DejaVuSans-74" x="194.384766"/>
     <use xlink:href="#DejaVuSans-69" x="233.59375"/>
     <use xlink:href="#DejaVuSans-6e" x="261.376953"/>
     <use xlink:href="#DejaVuSans-75" x="324.755859"/>
     <use xlink:href="#DejaVuSans-6f" x="388.134766"/>
     <use xlink:href="#DejaVuSans-75" x="449.316406"/>
     <use xlink:href="#DejaVuSans-73" x="512.695312"/>
     <use xlink:href="#DejaVuSans-20" x="564.794922"/>
     <use xlink:href="#DejaVuSans-45" x="596.582031"/>
     <use xlink:href="#DejaVuSans-6e" x="659.765625"/>
     <use xlink:href="#DejaVuSans-74" x="723.144531"/>
     <use xlink:href="#DejaVuSans-72" x="762.353516"/>
     <use xlink:href="#DejaVuSans-6f" x="801.216797"/>
     <use xlink:href="#DejaVuSans-70" x="862.398438"/>
     <use xlink:href="#DejaVuSans-79" x="925.875"/>
     <use xlink:href="#DejaVuSans-20" x="985.054688"/>
     <use xlink:href="#DejaVuSans-44" x="1016.841797"/>
     <use xlink:href="#DejaVuSans-69" x="1093.84375"/>
     <use xlink:href="#DejaVuSans-73" x="1121.626953"/>
     <use xlink:href="#DejaVuSans-74" x="1173.726562"/>
     <use xlink:href="#DejaVuSans-72" x="1212.935547"/>
     <use xlink:href="#DejaVuSans-69" x="1254.048828"/>
     <use xlink:href="#DejaVuSans-62" x="1281.832031"/>
     <use xlink:href="#DejaVuSans-75" x="1345.308594"/>
     <use xlink:href="#DejaVuSans-74" x="1408.6875"/>
     <use xlink:href="#DejaVuSans-69" x="1447.896484"/>
     <use xlink:href="#DejaVuSans-6f" x="1475.679688"/>
     <use xlink:href="#DejaVuSans-6e" x="1536.861328"/>
     <use xlink:href="#DejaVuSans-20" x="1600.240234"/>
     <use xlink:href="#DejaVuSans-70" x="1632.027344"/>
     <use xlink:href="#DejaVuSans-65" x="1695.503906"/>
     <use xlink:href="#DejaVuSans-72" x="1757.027344"/>
     <use xlink:href="#DejaVuSans-20" x="1798.140625"/>
     <use xlink:href="#DejaVuSans-44" x="1829.927734"/>
     <use xlink:href="#DejaVuSans-69" x="1906.929688"/>
     <use xlink:href="#DejaVuSans-6d" x="1934.712891"/>
     <use xlink:href="#DejaVuSans-65" x="2032.125"/>
     <use xlink:href="#DejaVuSans-6e" x="2093.648438"/>
     <use xlink:href="#DejaVuSans-73" x="2157.027344"/>
     <use xlink:href="#DejaVuSans-69" x="2209.126953"/>
     <use xlink:href="#DejaVuSans-6f" x="2236.910156"/>
     <use xlink:href="#DejaVuSans-6e" x="2298.091797"/>
    </g>
   </g>
  </g>
  <g id="axes_2">
   <g id="patch_33">
    <path d="M 338.076043 390.04 
L 565.993957 390.04 
L 565.993957 26.88 
L 338.076043 26.88 
z
" style="fill: #ffffff"/>
   </g>
   <g id="patch_34">
    <path d="M 348.435948 390.04 
L 356.723872 390.04 
L 356.723872 389.060208 
L 348.435948 389.060208 
z
" clip-path="url(#p62481b2e9c)" style="fill: #ffa500; fill-opacity: 0.5; stroke: #000000; stroke-width: 0.71615; stroke-linejoin: miter"/>
   </g>
   <g id="patch_35">
    <path d="M 356.723872 390.04 
L 365.011796 390.04 
L 365.011796 390.04 
L 356.723872 390.04 
z
" clip-path="url(#p62481b2e9c)" style="fill: #ffa500; fill-opacity: 0.5; stroke: #000000; stroke-width: 0.71615; stroke-linejoin: miter"/>
   </g>
   <g id="patch_36">
    <path d="M 365.011796 390.04 
L 373.29972 390.04 
L 373.29972 388.080415 
L 365.011796 388.080415 
z
" clip-path="url(#p62481b2e9c)" style="fill: #ffa500; fill-opacity: 0.5; stroke: #000000; stroke-width: 0.71615; stroke-linejoin: miter"/>
   </g>
   <g id="patch_37">
    <path d="M 373.29972 390.04 
L 381.587645 390.04 
L 381.587645 389.060208 
L 373.29972 389.060208 
z
" clip-path="url(#p62481b2e9c)" style="fill: #ffa500; fill-opacity: 0.5; stroke: #000000; stroke-width: 0.71615; stroke-linejoin: miter"/>
   </g>
   <g id="patch_38">
    <path d="M 381.587645 390.04 
L 389.875569 390.04 
L 389.875569 388.080415 
L 381.587645 388.080415 
z
" clip-path="url(#p62481b2e9c)" style="fill: #ffa500; fill-opacity: 0.5; stroke: #000000; stroke-width: 0.71615; stroke-linejoin: miter"/>
   </g>
   <g id="patch_39">
    <path d="M 389.875569 390.04 
L 398.163493 390.04 
L 398.163493 387.100623 
L 389.875569 387.100623 
z
" clip-path="url(#p62481b2e9c)" style="fill: #ffa500; fill-opacity: 0.5; stroke: #000000; stroke-width: 0.71615; stroke-linejoin: miter"/>
   </g>
   <g id="patch_40">
    <path d="M 398.163493 390.04 
L 406.451417 390.04 
L 406.451417 387.100623 
L 398.163493 387.100623 
z
" clip-path="url(#p62481b2e9c)" style="fill: #ffa500; fill-opacity: 0.5; stroke: #000000; stroke-width: 0.71615; stroke-linejoin: miter"/>
   </g>
   <g id="patch_41">
    <path d="M 406.451417 390.04 
L 414.739341 390.04 
L 414.739341 385.141039 
L 406.451417 385.141039 
z
" clip-path="url(#p62481b2e9c)" style="fill: #ffa500; fill-opacity: 0.5; stroke: #000000; stroke-width: 0.71615; stroke-linejoin: miter"/>
   </g>
   <g id="patch_42">
    <path d="M 414.739341 390.04 
L 423.027265 390.04 
L 423.027265 387.100623 
L 414.739341 387.100623 
z
" clip-path="url(#p62481b2e9c)" style="fill: #ffa500; fill-opacity: 0.5; stroke: #000000; stroke-width: 0.71615; stroke-linejoin: miter"/>
   </g>
   <g id="patch_43">
    <path d="M 423.027265 390.04 
L 431.31519 390.04 
L 431.31519 382.201662 
L 423.027265 382.201662 
z
" clip-path="url(#p62481b2e9c)" style="fill: #ffa500; fill-opacity: 0.5; stroke: #000000; stroke-width: 0.71615; stroke-linejoin: miter"/>
   </g>
   <g id="patch_44">
    <path d="M 431.31519 390.04 
L 439.603114 390.04 
L 439.603114 383.181454 
L 431.31519 383.181454 
z
" clip-path="url(#p62481b2e9c)" style="fill: #ffa500; fill-opacity: 0.5; stroke: #000000; stroke-width: 0.71615; stroke-linejoin: miter"/>
   </g>
   <g id="patch_45">
    <path d="M 439.603114 390.04 
L 447.891038 390.04 
L 447.891038 379.262285 
L 439.603114 379.262285 
z
" clip-path="url(#p62481b2e9c)" style="fill: #ffa500; fill-opacity: 0.5; stroke: #000000; stroke-width: 0.71615; stroke-linejoin: miter"/>
   </g>
   <g id="patch_46">
    <path d="M 447.891038 390.04 
L 456.178962 390.04 
L 456.178962 366.524986 
L 447.891038 366.524986 
z
" clip-path="url(#p62481b2e9c)" style="fill: #ffa500; fill-opacity: 0.5; stroke: #000000; stroke-width: 0.71615; stroke-linejoin: miter"/>
   </g>
   <g id="patch_47">
    <path d="M 456.178962 390.04 
L 464.466886 390.04 
L 464.466886 382.201662 
L 456.178962 382.201662 
z
" clip-path="url(#p62481b2e9c)" style="fill: #ffa500; fill-opacity: 0.5; stroke: #000000; stroke-width: 0.71615; stroke-linejoin: miter"/>
   </g>
   <g id="patch_48">
    <path d="M 464.466886 390.04 
L 472.75481 390.04 
L 472.75481 372.403739 
L 464.466886 372.403739 
z
" clip-path="url(#p62481b2e9c)" style="fill: #ffa500; fill-opacity: 0.5; stroke: #000000; stroke-width: 0.71615; stroke-linejoin: miter"/>
   </g>
   <g id="patch_49">
    <path d="M 472.75481 390.04 
L 481.042735 390.04 
L 481.042735 356.727063 
L 472.75481 356.727063 
z
" clip-path="url(#p62481b2e9c)" style="fill: #ffa500; fill-opacity: 0.5; stroke: #000000; stroke-width: 0.71615; stroke-linejoin: miter"/>
   </g>
   <g id="patch_50">
    <path d="M 481.042735 390.04 
L 489.330659 390.04 
L 489.330659 358.686648 
L 481.042735 358.686648 
z
" clip-path="url(#p62481b2e9c)" style="fill: #ffa500; fill-opacity: 0.5; stroke: #000000; stroke-width: 0.71615; stroke-linejoin: miter"/>
   </g>
   <g id="patch_51">
    <path d="M 489.330659 390.04 
L 497.618583 390.04 
L 497.618583 357.706856 
L 489.330659 357.706856 
z
" clip-path="url(#p62481b2e9c)" style="fill: #ffa500; fill-opacity: 0.5; stroke: #000000; stroke-width: 0.71615; stroke-linejoin: miter"/>
   </g>
   <g id="patch_52">
    <path d="M 497.618583 390.04 
L 505.906507 390.04 
L 505.906507 343.989764 
L 497.618583 343.989764 
z
" clip-path="url(#p62481b2e9c)" style="fill: #ffa500; fill-opacity: 0.5; stroke: #000000; stroke-width: 0.71615; stroke-linejoin: miter"/>
   </g>
   <g id="patch_53">
    <path d="M 505.906507 390.04 
L 514.194431 390.04 
L 514.194431 347.908933 
L 505.906507 347.908933 
z
" clip-path="url(#p62481b2e9c)" style="fill: #ffa500; fill-opacity: 0.5; stroke: #000000; stroke-width: 0.71615; stroke-linejoin: miter"/>
   </g>
   <g id="patch_54">
    <path d="M 514.194431 390.04 
L 522.482355 390.04 
L 522.482355 327.333296 
L 514.194431 327.333296 
z
" clip-path="url(#p62481b2e9c)" style="fill: #ffa500; fill-opacity: 0.5; stroke: #000000; stroke-width: 0.71615; stroke-linejoin: miter"/>
   </g>
   <g id="patch_55">
    <path d="M 522.482355 390.04 
L 530.77028 390.04 
L 530.77028 316.555581 
L 522.482355 316.555581 
z
" clip-path="url(#p62481b2e9c)" style="fill: #ffa500; fill-opacity: 0.5; stroke: #000000; stroke-width: 0.71615; stroke-linejoin: miter"/>
   </g>
   <g id="patch_56">
    <path d="M 530.77028 390.04 
L 539.058204 390.04 
L 539.058204 275.404306 
L 530.77028 275.404306 
z
" clip-path="url(#p62481b2e9c)" style="fill: #ffa500; fill-opacity: 0.5; stroke: #000000; stroke-width: 0.71615; stroke-linejoin: miter"/>
   </g>
   <g id="patch_57">
    <path d="M 539.058204 390.04 
L 547.346128 390.04 
L 547.346128 262.667007 
L 539.058204 262.667007 
z
" clip-path="url(#p62481b2e9c)" style="fill: #ffa500; fill-opacity: 0.5; stroke: #000000; stroke-width: 0.71615; stroke-linejoin: miter"/>
   </g>
   <g id="patch_58">
    <path d="M 547.346128 390.04 
L 555.634052 390.04 
L 555.634052 44.173333 
L 547.346128 44.173333 
z
" clip-path="url(#p62481b2e9c)" style="fill: #ffa500; fill-opacity: 0.5; stroke: #000000; stroke-width: 0.71615; stroke-linejoin: miter"/>
   </g>
   <g id="matplotlib.axis_3">
    <g id="xtick_7">
     <g id="line2d_15">
      <g>
       <use xlink:href="#md9ed906729" x="380.091673" y="390.04" style="stroke: #000000; stroke-width: 0.8"/>
      </g>
     </g>
     <g id="text_17">
      <!-- 0.85 -->
      <g transform="translate(368.95886 404.638438) scale(0.1 -0.1)">
       <use xlink:href="#DejaVuSans-30"/>
       <use xlink:href="#DejaVuSans-2e" x="63.623047"/>
       <use xlink:href="#DejaVuSans-38" x="95.410156"/>
       <use xlink:href="#DejaVuSans-35" x="159.033203"/>
      </g>
     </g>
    </g>
    <g id="xtick_8">
     <g id="line2d_16">
      <g>
       <use xlink:href="#md9ed906729" x="438.605799" y="390.04" style="stroke: #000000; stroke-width: 0.8"/>
      </g>
     </g>
     <g id="text_18">
      <!-- 0.90 -->
      <g transform="translate(427.472987 404.638438) scale(0.1 -0.1)">
       <defs>
        <path id="DejaVuSans-39" d="M 703 97 
L 703 672 
Q 941 559 1184 500 
Q 1428 441 1663 441 
Q 2288 441 2617 861 
Q 2947 1281 2994 2138 
Q 2813 1869 2534 1725 
Q 2256 1581 1919 1581 
Q 1219 1581 811 2004 
Q 403 2428 403 3163 
Q 403 3881 828 4315 
Q 1253 4750 1959 4750 
Q 2769 4750 3195 4129 
Q 3622 3509 3622 2328 
Q 3622 1225 3098 567 
Q 2575 -91 1691 -91 
Q 1453 -91 1209 -44 
Q 966 3 703 97 
z
M 1959 2075 
Q 2384 2075 2632 2365 
Q 2881 2656 2881 3163 
Q 2881 3666 2632 3958 
Q 2384 4250 1959 4250 
Q 1534 4250 1286 3958 
Q 1038 3666 1038 3163 
Q 1038 2656 1286 2365 
Q 1534 2075 1959 2075 
z
" transform="scale(0.015625)"/>
       </defs>
       <use xlink:href="#DejaVuSans-30"/>
       <use xlink:href="#DejaVuSans-2e" x="63.623047"/>
       <use xlink:href="#DejaVuSans-39" x="95.410156"/>
       <use xlink:href="#DejaVuSans-30" x="159.033203"/>
      </g>
     </g>
    </g>
    <g id="xtick_9">
     <g id="line2d_17">
      <g>
       <use xlink:href="#md9ed906729" x="497.119926" y="390.04" style="stroke: #000000; stroke-width: 0.8"/>
      </g>
     </g>
     <g id="text_19">
      <!-- 0.95 -->
      <g transform="translate(485.987113 404.638438) scale(0.1 -0.1)">
       <use xlink:href="#DejaVuSans-30"/>
       <use xlink:href="#DejaVuSans-2e" x="63.623047"/>
       <use xlink:href="#DejaVuSans-39" x="95.410156"/>
       <use xlink:href="#DejaVuSans-35" x="159.033203"/>
      </g>
     </g>
    </g>
    <g id="xtick_10">
     <g id="line2d_18">
      <g>
       <use xlink:href="#md9ed906729" x="555.634052" y="390.04" style="stroke: #000000; stroke-width: 0.8"/>
      </g>
     </g>
     <g id="text_20">
      <!-- 1.00 -->
      <g transform="translate(544.50124 404.638438) scale(0.1 -0.1)">
       <use xlink:href="#DejaVuSans-31"/>
       <use xlink:href="#DejaVuSans-2e" x="63.623047"/>
       <use xlink:href="#DejaVuSans-30" x="95.410156"/>
       <use xlink:href="#DejaVuSans-30" x="159.033203"/>
      </g>
     </g>
    </g>
    <g id="text_21">
     <!-- Entropy (bits) -->
     <g transform="translate(417.992031 418.316562) scale(0.1 -0.1)">
      <use xlink:href="#DejaVuSans-45"/>
      <use xlink:href="#DejaVuSans-6e" x="63.183594"/>
      <use xlink:href="#DejaVuSans-74" x="126.5625"/>
      <use xlink:href="#DejaVuSans-72" x="165.771484"/>
      <use xlink:href="#DejaVuSans-6f" x="204.634766"/>
      <use xlink:href="#DejaVuSans-70" x="265.816406"/>
      <use xlink:href="#DejaVuSans-79" x="329.292969"/>
      <use xlink:href="#DejaVuSans-20" x="388.472656"/>
      <use xlink:href="#DejaVuSans-28" x="420.259766"/>
      <use xlink:href="#DejaVuSans-62" x="459.273438"/>
      <use xlink:href="#DejaVuSans-69" x="522.75"/>
      <use xlink:href="#DejaVuSans-74" x="550.533203"/>
      <use xlink:href="#DejaVuSans-73" x="589.742188"/>
      <use xlink:href="#DejaVuSans-29" x="641.841797"/>
     </g>
    </g>
   </g>
   <g id="matplotlib.axis_4">
    <g id="ytick_8">
     <g id="line2d_19">
      <g>
       <use xlink:href="#mf0a973d754" x="338.076043" y="390.04" style="stroke: #000000; stroke-width: 0.8"/>
      </g>
     </g>
     <g id="text_22">
      <!-- 0 -->
      <g transform="translate(324.713543 393.839219) scale(0.1 -0.1)">
       <use xlink:href="#DejaVuSans-30"/>
      </g>
     </g>
    </g>
    <g id="ytick_9">
     <g id="line2d_20">
      <g>
       <use xlink:href="#mf0a973d754" x="338.076043" y="341.050387" style="stroke: #000000; stroke-width: 0.8"/>
      </g>
     </g>
     <g id="text_23">
      <!-- 50 -->
      <g transform="translate(318.351043 344.849606) scale(0.1 -0.1)">
       <use xlink:href="#DejaVuSans-35"/>
       <use xlink:href="#DejaVuSans-30" x="63.623047"/>
      </g>
     </g>
    </g>
    <g id="ytick_10">
     <g id="line2d_21">
      <g>
       <use xlink:href="#mf0a973d754" x="338.076043" y="292.060774" style="stroke: #000000; stroke-width: 0.8"/>
      </g>
     </g>
     <g id="text_24">
      <!-- 100 -->
      <g transform="translate(311.988543 295.859993) scale(0.1 -0.1)">
       <use xlink:href="#DejaVuSans-31"/>
       <use xlink:href="#DejaVuSans-30" x="63.623047"/>
       <use xlink:href="#DejaVuSans-30" x="127.246094"/>
      </g>
     </g>
    </g>
    <g id="ytick_11">
     <g id="line2d_22">
      <g>
       <use xlink:href="#mf0a973d754" x="338.076043" y="243.071161" style="stroke: #000000; stroke-width: 0.8"/>
      </g>
     </g>
     <g id="text_25">
      <!-- 150 -->
      <g transform="translate(311.988543 246.87038) scale(0.1 -0.1)">
       <use xlink:href="#DejaVuSans-31"/>
       <use xlink:href="#DejaVuSans-35" x="63.623047"/>
       <use xlink:href="#DejaVuSans-30" x="127.246094"/>
      </g>
     </g>
    </g>
    <g id="ytick_12">
     <g id="line2d_23">
      <g>
       <use xlink:href="#mf0a973d754" x="338.076043" y="194.081549" style="stroke: #000000; stroke-width: 0.8"/>
      </g>
     </g>
     <g id="text_26">
      <!-- 200 -->
      <g transform="translate(311.988543 197.880767) scale(0.1 -0.1)">
       <use xlink:href="#DejaVuSans-32"/>
       <use xlink:href="#DejaVuSans-30" x="63.623047"/>
       <use xlink:href="#DejaVuSans-30" x="127.246094"/>
      </g>
     </g>
    </g>
    <g id="ytick_13">
     <g id="line2d_24">
      <g>
       <use xlink:href="#mf0a973d754" x="338.076043" y="145.091936" style="stroke: #000000; stroke-width: 0.8"/>
      </g>
     </g>
     <g id="text_27">
      <!-- 250 -->
      <g transform="translate(311.988543 148.891155) scale(0.1 -0.1)">
       <use xlink:href="#DejaVuSans-32"/>
       <use xlink:href="#DejaVuSans-35" x="63.623047"/>
       <use xlink:href="#DejaVuSans-30" x="127.246094"/>
      </g>
     </g>
    </g>
    <g id="ytick_14">
     <g id="line2d_25">
      <g>
       <use xlink:href="#mf0a973d754" x="338.076043" y="96.102323" style="stroke: #000000; stroke-width: 0.8"/>
      </g>
     </g>
     <g id="text_28">
      <!-- 300 -->
      <g transform="translate(311.988543 99.901542) scale(0.1 -0.1)">
       <defs>
        <path id="DejaVuSans-33" d="M 2597 2516 
Q 3050 2419 3304 2112 
Q 3559 1806 3559 1356 
Q 3559 666 3084 287 
Q 2609 -91 1734 -91 
Q 1441 -91 1130 -33 
Q 819 25 488 141 
L 488 750 
Q 750 597 1062 519 
Q 1375 441 1716 441 
Q 2309 441 2620 675 
Q 2931 909 2931 1356 
Q 2931 1769 2642 2001 
Q 2353 2234 1838 2234 
L 1294 2234 
L 1294 2753 
L 1863 2753 
Q 2328 2753 2575 2939 
Q 2822 3125 2822 3475 
Q 2822 3834 2567 4026 
Q 2313 4219 1838 4219 
Q 1578 4219 1281 4162 
Q 984 4106 628 3988 
L 628 4550 
Q 988 4650 1302 4700 
Q 1616 4750 1894 4750 
Q 2613 4750 3031 4423 
Q 3450 4097 3450 3541 
Q 3450 3153 3228 2886 
Q 3006 2619 2597 2516 
z
" transform="scale(0.015625)"/>
       </defs>
       <use xlink:href="#DejaVuSans-33"/>
       <use xlink:href="#DejaVuSans-30" x="63.623047"/>
       <use xlink:href="#DejaVuSans-30" x="127.246094"/>
      </g>
     </g>
    </g>
    <g id="ytick_15">
     <g id="line2d_26">
      <g>
       <use xlink:href="#mf0a973d754" x="338.076043" y="47.11271" style="stroke: #000000; stroke-width: 0.8"/>
      </g>
     </g>
     <g id="text_29">
      <!-- 350 -->
      <g transform="translate(311.988543 50.911929) scale(0.1 -0.1)">
       <use xlink:href="#DejaVuSans-33"/>
       <use xlink:href="#DejaVuSans-35" x="63.623047"/>
       <use xlink:href="#DejaVuSans-30" x="127.246094"/>
      </g>
     </g>
    </g>
    <g id="text_30">
     <!-- Count -->
     <g transform="translate(305.908855 223.308437) rotate(-90) scale(0.1 -0.1)">
      <use xlink:href="#DejaVuSans-43"/>
      <use xlink:href="#DejaVuSans-6f" x="69.824219"/>
      <use xlink:href="#DejaVuSans-75" x="131.005859"/>
      <use xlink:href="#DejaVuSans-6e" x="194.384766"/>
      <use xlink:href="#DejaVuSans-74" x="257.763672"/>
     </g>
    </g>
   </g>
   <g id="line2d_27">
    <path d="M 348.435948 389.563679 
L 359.88911 389.181364 
L 371.342271 388.755996 
L 379.671843 388.441933 
L 386.960219 387.902832 
L 396.330987 387.242425 
L 405.701756 386.59782 
L 412.990131 385.819794 
L 422.3609 384.573087 
L 429.649275 383.387138 
L 433.814061 382.493464 
L 436.937651 381.601397 
L 440.06124 380.44998 
L 443.18483 379.041898 
L 452.555598 374.491326 
L 455.679188 373.29624 
L 464.00876 370.299578 
L 467.132349 368.812554 
L 471.297135 366.505302 
L 477.544314 363.033736 
L 485.873886 358.60063 
L 488.997476 356.632193 
L 493.162262 353.675467 
L 505.65662 344.286523 
L 507.739013 342.527053 
L 509.821406 340.521524 
L 511.903799 338.164462 
L 513.986192 335.361145 
L 516.068585 332.043004 
L 518.150978 328.179451 
L 520.233371 323.782762 
L 522.315764 318.902609 
L 525.439353 310.824449 
L 528.562943 301.95853 
L 530.645336 295.549811 
L 532.727729 288.584966 
L 534.810122 280.874459 
L 536.892515 272.266622 
L 538.974908 262.766622 
L 544.18089 237.924421 
L 545.222087 233.661528 
L 546.263283 229.9968 
L 547.30448 227.103425 
L 548.345676 225.1484 
L 549.386873 224.282682 
L 550.42807 224.631465 
L 551.469266 226.285356 
L 552.510463 229.293174 
L 553.551659 233.657045 
L 554.592856 239.330263 
L 555.634052 246.218169 
L 555.634052 246.218169 
" clip-path="url(#p62481b2e9c)" style="fill: none; stroke: #ffa500; stroke-width: 1.5; stroke-linecap: square"/>
   </g>
   <g id="patch_59">
    <path d="M 338.076043 390.04 
L 338.076043 26.88 
" style="fill: none; stroke: #000000; stroke-width: 0.8; stroke-linejoin: miter; stroke-linecap: square"/>
   </g>
   <g id="patch_60">
    <path d="M 565.993957 390.04 
L 565.993957 26.88 
" style="fill: none; stroke: #000000; stroke-width: 0.8; stroke-linejoin: miter; stroke-linecap: square"/>
   </g>
   <g id="patch_61">
    <path d="M 338.076043 390.04 
L 565.993957 390.04 
" style="fill: none; stroke: #000000; stroke-width: 0.8; stroke-linejoin: miter; stroke-linecap: square"/>
   </g>
   <g id="patch_62">
    <path d="M 338.076043 26.88 
L 565.993957 26.88 
" style="fill: none; stroke: #000000; stroke-width: 0.8; stroke-linejoin: miter; stroke-linecap: square"/>
   </g>
   <g id="text_31">
    <!-- Discrete Entropy Distribution per Dimension (Mean Threshold) -->
    <g transform="translate(265.047812 20.88) scale(0.12 -0.12)">
     <defs>
      <path id="DejaVuSans-63" d="M 3122 3366 
L 3122 2828 
Q 2878 2963 2633 3030 
Q 2388 3097 2138 3097 
Q 1578 3097 1268 2742 
Q 959 2388 959 1747 
Q 959 1106 1268 751 
Q 1578 397 2138 397 
Q 2388 397 2633 464 
Q 2878 531 3122 666 
L 3122 134 
Q 2881 22 2623 -34 
Q 2366 -91 2075 -91 
Q 1284 -91 818 406 
Q 353 903 353 1747 
Q 353 2603 823 3093 
Q 1294 3584 2113 3584 
Q 2378 3584 2631 3529 
Q 2884 3475 3122 3366 
z
" transform="scale(0.015625)"/>
      <path id="DejaVuSans-4d" d="M 628 4666 
L 1569 4666 
L 2759 1491 
L 3956 4666 
L 4897 4666 
L 4897 0 
L 4281 0 
L 4281 4097 
L 3078 897 
L 2444 897 
L 1241 4097 
L 1241 0 
L 628 0 
L 628 4666 
z
" transform="scale(0.015625)"/>
      <path id="DejaVuSans-61" d="M 2194 1759 
Q 1497 1759 1228 1600 
Q 959 1441 959 1056 
Q 959 750 1161 570 
Q 1363 391 1709 391 
Q 2188 391 2477 730 
Q 2766 1069 2766 1631 
L 2766 1759 
L 2194 1759 
z
M 3341 1997 
L 3341 0 
L 2766 0 
L 2766 531 
Q 2569 213 2275 61 
Q 1981 -91 1556 -91 
Q 1019 -91 701 211 
Q 384 513 384 1019 
Q 384 1609 779 1909 
Q 1175 2209 1959 2209 
L 2766 2209 
L 2766 2266 
Q 2766 2663 2505 2880 
Q 2244 3097 1772 3097 
Q 1472 3097 1187 3025 
Q 903 2953 641 2809 
L 641 3341 
Q 956 3463 1253 3523 
Q 1550 3584 1831 3584 
Q 2591 3584 2966 3190 
Q 3341 2797 3341 1997 
z
" transform="scale(0.015625)"/>
      <path id="DejaVuSans-54" d="M -19 4666 
L 3928 4666 
L 3928 4134 
L 2272 4134 
L 2272 0 
L 1638 0 
L 1638 4134 
L -19 4134 
L -19 4666 
z
" transform="scale(0.015625)"/>
      <path id="DejaVuSans-68" d="M 3513 2113 
L 3513 0 
L 2938 0 
L 2938 2094 
Q 2938 2591 2744 2837 
Q 2550 3084 2163 3084 
Q 1697 3084 1428 2787 
Q 1159 2491 1159 1978 
L 1159 0 
L 581 0 
L 581 4863 
L 1159 4863 
L 1159 2956 
Q 1366 3272 1645 3428 
Q 1925 3584 2291 3584 
Q 2894 3584 3203 3211 
Q 3513 2838 3513 2113 
z
" transform="scale(0.015625)"/>
      <path id="DejaVuSans-6c" d="M 603 4863 
L 1178 4863 
L 1178 0 
L 603 0 
L 603 4863 
z
" transform="scale(0.015625)"/>
      <path id="DejaVuSans-64" d="M 2906 2969 
L 2906 4863 
L 3481 4863 
L 3481 0 
L 2906 0 
L 2906 525 
Q 2725 213 2448 61 
Q 2172 -91 1784 -91 
Q 1150 -91 751 415 
Q 353 922 353 1747 
Q 353 2572 751 3078 
Q 1150 3584 1784 3584 
Q 2172 3584 2448 3432 
Q 2725 3281 2906 2969 
z
M 947 1747 
Q 947 1113 1208 752 
Q 1469 391 1925 391 
Q 2381 391 2643 752 
Q 2906 1113 2906 1747 
Q 2906 2381 2643 2742 
Q 2381 3103 1925 3103 
Q 1469 3103 1208 2742 
Q 947 2381 947 1747 
z
" transform="scale(0.015625)"/>
     </defs>
     <use xlink:href="#DejaVuSans-44"/>
     <use xlink:href="#DejaVuSans-69" x="77.001953"/>
     <use xlink:href="#DejaVuSans-73" x="104.785156"/>
     <use xlink:href="#DejaVuSans-63" x="156.884766"/>
     <use xlink:href="#DejaVuSans-72" x="211.865234"/>
     <use xlink:href="#DejaVuSans-65" x="250.728516"/>
     <use xlink:href="#DejaVuSans-74" x="312.251953"/>
     <use xlink:href="#DejaVuSans-65" x="351.460938"/>
     <use xlink:href="#DejaVuSans-20" x="412.984375"/>
     <use xlink:href="#DejaVuSans-45" x="444.771484"/>
     <use xlink:href="#DejaVuSans-6e" x="507.955078"/>
     <use xlink:href="#DejaVuSans-74" x="571.333984"/>
     <use xlink:href="#DejaVuSans-72" x="610.542969"/>
     <use xlink:href="#DejaVuSans-6f" x="649.40625"/>
     <use xlink:href="#DejaVuSans-70" x="710.587891"/>
     <use xlink:href="#DejaVuSans-79" x="774.064453"/>
     <use xlink:href="#DejaVuSans-20" x="833.244141"/>
     <use xlink:href="#DejaVuSans-44" x="865.03125"/>
     <use xlink:href="#DejaVuSans-69" x="942.033203"/>
     <use xlink:href="#DejaVuSans-73" x="969.816406"/>
     <use xlink:href="#DejaVuSans-74" x="1021.916016"/>
     <use xlink:href="#DejaVuSans-72" x="1061.125"/>
     <use xlink:href="#DejaVuSans-69" x="1102.238281"/>
     <use xlink:href="#DejaVuSans-62" x="1130.021484"/>
     <use xlink:href="#DejaVuSans-75" x="1193.498047"/>
     <use xlink:href="#DejaVuSans-74" x="1256.876953"/>
     <use xlink:href="#DejaVuSans-69" x="1296.085938"/>
     <use xlink:href="#DejaVuSans-6f" x="1323.869141"/>
     <use xlink:href="#DejaVuSans-6e" x="1385.050781"/>
     <use xlink:href="#DejaVuSans-20" x="1448.429688"/>
     <use xlink:href="#DejaVuSans-70" x="1480.216797"/>
     <use xlink:href="#DejaVuSans-65" x="1543.693359"/>
     <use xlink:href="#DejaVuSans-72" x="1605.216797"/>
     <use xlink:href="#DejaVuSans-20" x="1646.330078"/>
     <use xlink:href="#DejaVuSans-44" x="1678.117188"/>
     <use xlink:href="#DejaVuSans-69" x="1755.119141"/>
     <use xlink:href="#DejaVuSans-6d" x="1782.902344"/>
     <use xlink:href="#DejaVuSans-65" x="1880.314453"/>
     <use xlink:href="#DejaVuSans-6e" x="1941.837891"/>
     <use xlink:href="#DejaVuSans-73" x="2005.216797"/>
     <use xlink:href="#DejaVuSans-69" x="2057.316406"/>
     <use xlink:href="#DejaVuSans-6f" x="2085.099609"/>
     <use xlink:href="#DejaVuSans-6e" x="2146.28125"/>
     <use xlink:href="#DejaVuSans-20" x="2209.660156"/>
     <use xlink:href="#DejaVuSans-28" x="2241.447266"/>
     <use xlink:href="#DejaVuSans-4d" x="2280.460938"/>
     <use xlink:href="#DejaVuSans-65" x="2366.740234"/>
     <use xlink:href="#DejaVuSans-61" x="2428.263672"/>
     <use xlink:href="#DejaVuSans-6e" x="2489.542969"/>
     <use xlink:href="#DejaVuSans-20" x="2552.921875"/>
     <use xlink:href="#DejaVuSans-54" x="2584.708984"/>
     <use xlink:href="#DejaVuSans-68" x="2645.792969"/>
     <use xlink:href="#DejaVuSans-72" x="2709.171875"/>
     <use xlink:href="#DejaVuSans-65" x="2748.035156"/>
     <use xlink:href="#DejaVuSans-73" x="2809.558594"/>
     <use xlink:href="#DejaVuSans-68" x="2861.658203"/>
     <use xlink:href="#DejaVuSans-6f" x="2925.037109"/>
     <use xlink:href="#DejaVuSans-6c" x="2986.21875"/>
     <use xlink:href="#DejaVuSans-64" x="3014.001953"/>
     <use xlink:href="#DejaVuSans-29" x="3077.478516"/>
    </g>
   </g>
  </g>
  <g id="axes_3">
   <g id="patch_63">
    <path d="M 625.282086 390.04 
L 853.2 390.04 
L 853.2 26.88 
L 625.282086 26.88 
z
" style="fill: #ffffff"/>
   </g>
   <g id="patch_64">
    <path d="M 635.641991 390.04 
L 842.840095 390.04 
L 842.840095 44.173333 
L 635.641991 44.173333 
z
" clip-path="url(#pb7a1ab0476)" style="fill: #ffa500; fill-opacity: 0.5; stroke: #000000; stroke-linejoin: miter"/>
   </g>
   <g id="matplotlib.axis_5">
    <g id="xtick_11">
     <g id="line2d_28">
      <g>
       <use xlink:href="#md9ed906729" x="656.361801" y="390.04" style="stroke: #000000; stroke-width: 0.8"/>
      </g>
     </g>
     <g id="text_32">
      <!-- 0.6 -->
      <g transform="translate(648.410239 404.638438) scale(0.1 -0.1)">
       <use xlink:href="#DejaVuSans-30"/>
       <use xlink:href="#DejaVuSans-2e" x="63.623047"/>
       <use xlink:href="#DejaVuSans-36" x="95.410156"/>
      </g>
     </g>
    </g>
    <g id="xtick_12">
     <g id="line2d_29">
      <g>
       <use xlink:href="#md9ed906729" x="697.801422" y="390.04" style="stroke: #000000; stroke-width: 0.8"/>
      </g>
     </g>
     <g id="text_33">
      <!-- 0.8 -->
      <g transform="translate(689.849859 404.638438) scale(0.1 -0.1)">
       <use xlink:href="#DejaVuSans-30"/>
       <use xlink:href="#DejaVuSans-2e" x="63.623047"/>
       <use xlink:href="#DejaVuSans-38" x="95.410156"/>
      </g>
     </g>
    </g>
    <g id="xtick_13">
     <g id="line2d_30">
      <g>
       <use xlink:href="#md9ed906729" x="739.241043" y="390.04" style="stroke: #000000; stroke-width: 0.8"/>
      </g>
     </g>
     <g id="text_34">
      <!-- 1.0 -->
      <g transform="translate(731.28948 404.638438) scale(0.1 -0.1)">
       <use xlink:href="#DejaVuSans-31"/>
       <use xlink:href="#DejaVuSans-2e" x="63.623047"/>
       <use xlink:href="#DejaVuSans-30" x="95.410156"/>
      </g>
     </g>
    </g>
    <g id="xtick_14">
     <g id="line2d_31">
      <g>
       <use xlink:href="#md9ed906729" x="780.680664" y="390.04" style="stroke: #000000; stroke-width: 0.8"/>
      </g>
     </g>
     <g id="text_35">
      <!-- 1.2 -->
      <g transform="translate(772.729101 404.638438) scale(0.1 -0.1)">
       <use xlink:href="#DejaVuSans-31"/>
       <use xlink:href="#DejaVuSans-2e" x="63.623047"/>
       <use xlink:href="#DejaVuSans-32" x="95.410156"/>
      </g>
     </g>
    </g>
    <g id="xtick_15">
     <g id="line2d_32">
      <g>
       <use xlink:href="#md9ed906729" x="822.120284" y="390.04" style="stroke: #000000; stroke-width: 0.8"/>
      </g>
     </g>
     <g id="text_36">
      <!-- 1.4 -->
      <g transform="translate(814.168722 404.638438) scale(0.1 -0.1)">
       <use xlink:href="#DejaVuSans-31"/>
       <use xlink:href="#DejaVuSans-2e" x="63.623047"/>
       <use xlink:href="#DejaVuSans-34" x="95.410156"/>
      </g>
     </g>
    </g>
    <g id="text_37">
     <!-- Entropy (bits) -->
     <g transform="translate(705.198074 418.316562) scale(0.1 -0.1)">
      <use xlink:href="#DejaVuSans-45"/>
      <use xlink:href="#DejaVuSans-6e" x="63.183594"/>
      <use xlink:href="#DejaVuSans-74" x="126.5625"/>
      <use xlink:href="#DejaVuSans-72" x="165.771484"/>
      <use xlink:href="#DejaVuSans-6f" x="204.634766"/>
      <use xlink:href="#DejaVuSans-70" x="265.816406"/>
      <use xlink:href="#DejaVuSans-79" x="329.292969"/>
      <use xlink:href="#DejaVuSans-20" x="388.472656"/>
      <use xlink:href="#DejaVuSans-28" x="420.259766"/>
      <use xlink:href="#DejaVuSans-62" x="459.273438"/>
      <use xlink:href="#DejaVuSans-69" x="522.75"/>
      <use xlink:href="#DejaVuSans-74" x="550.533203"/>
      <use xlink:href="#DejaVuSans-73" x="589.742188"/>
      <use xlink:href="#DejaVuSans-29" x="641.841797"/>
     </g>
    </g>
   </g>
   <g id="matplotlib.axis_6">
    <g id="ytick_16">
     <g id="line2d_33">
      <g>
       <use xlink:href="#mf0a973d754" x="625.282086" y="390.04" style="stroke: #000000; stroke-width: 0.8"/>
      </g>
     </g>
     <g id="text_38">
      <!-- 0 -->
      <g transform="translate(611.919586 393.839219) scale(0.1 -0.1)">
       <use xlink:href="#DejaVuSans-30"/>
      </g>
     </g>
    </g>
    <g id="ytick_17">
     <g id="line2d_34">
      <g>
       <use xlink:href="#mf0a973d754" x="625.282086" y="322.487917" style="stroke: #000000; stroke-width: 0.8"/>
      </g>
     </g>
     <g id="text_39">
      <!-- 200 -->
      <g transform="translate(599.194586 326.287135) scale(0.1 -0.1)">
       <use xlink:href="#DejaVuSans-32"/>
       <use xlink:href="#DejaVuSans-30" x="63.623047"/>
       <use xlink:href="#DejaVuSans-30" x="127.246094"/>
      </g>
     </g>
    </g>
    <g id="ytick_18">
     <g id="line2d_35">
      <g>
       <use xlink:href="#mf0a973d754" x="625.282086" y="254.935833" style="stroke: #000000; stroke-width: 0.8"/>
      </g>
     </g>
     <g id="text_40">
      <!-- 400 -->
      <g transform="translate(599.194586 258.735052) scale(0.1 -0.1)">
       <use xlink:href="#DejaVuSans-34"/>
       <use xlink:href="#DejaVuSans-30" x="63.623047"/>
       <use xlink:href="#DejaVuSans-30" x="127.246094"/>
      </g>
     </g>
    </g>
    <g id="ytick_19">
     <g id="line2d_36">
      <g>
       <use xlink:href="#mf0a973d754" x="625.282086" y="187.38375" style="stroke: #000000; stroke-width: 0.8"/>
      </g>
     </g>
     <g id="text_41">
      <!-- 600 -->
      <g transform="translate(599.194586 191.182969) scale(0.1 -0.1)">
       <use xlink:href="#DejaVuSans-36"/>
       <use xlink:href="#DejaVuSans-30" x="63.623047"/>
       <use xlink:href="#DejaVuSans-30" x="127.246094"/>
      </g>
     </g>
    </g>
    <g id="ytick_20">
     <g id="line2d_37">
      <g>
       <use xlink:href="#mf0a973d754" x="625.282086" y="119.831667" style="stroke: #000000; stroke-width: 0.8"/>
      </g>
     </g>
     <g id="text_42">
      <!-- 800 -->
      <g transform="translate(599.194586 123.630885) scale(0.1 -0.1)">
       <use xlink:href="#DejaVuSans-38"/>
       <use xlink:href="#DejaVuSans-30" x="63.623047"/>
       <use xlink:href="#DejaVuSans-30" x="127.246094"/>
      </g>
     </g>
    </g>
    <g id="ytick_21">
     <g id="line2d_38">
      <g>
       <use xlink:href="#mf0a973d754" x="625.282086" y="52.279583" style="stroke: #000000; stroke-width: 0.8"/>
      </g>
     </g>
     <g id="text_43">
      <!-- 1000 -->
      <g transform="translate(592.832086 56.078802) scale(0.1 -0.1)">
       <use xlink:href="#DejaVuSans-31"/>
       <use xlink:href="#DejaVuSans-30" x="63.623047"/>
       <use xlink:href="#DejaVuSans-30" x="127.246094"/>
       <use xlink:href="#DejaVuSans-30" x="190.869141"/>
      </g>
     </g>
    </g>
    <g id="text_44">
     <!-- Count -->
     <g transform="translate(586.752398 223.308437) rotate(-90) scale(0.1 -0.1)">
      <use xlink:href="#DejaVuSans-43"/>
      <use xlink:href="#DejaVuSans-6f" x="69.824219"/>
      <use xlink:href="#DejaVuSans-75" x="131.005859"/>
      <use xlink:href="#DejaVuSans-6e" x="194.384766"/>
      <use xlink:href="#DejaVuSans-74" x="257.763672"/>
     </g>
    </g>
   </g>
   <g id="patch_65">
    <path d="M 625.282086 390.04 
L 625.282086 26.88 
" style="fill: none; stroke: #000000; stroke-width: 0.8; stroke-linejoin: miter; stroke-linecap: square"/>
   </g>
   <g id="patch_66">
    <path d="M 853.2 390.04 
L 853.2 26.88 
" style="fill: none; stroke: #000000; stroke-width: 0.8; stroke-linejoin: miter; stroke-linecap: square"/>
   </g>
   <g id="patch_67">
    <path d="M 625.282086 390.04 
L 853.2 390.04 
" style="fill: none; stroke: #000000; stroke-width: 0.8; stroke-linejoin: miter; stroke-linecap: square"/>
   </g>
   <g id="patch_68">
    <path d="M 625.282086 26.88 
L 853.2 26.88 
" style="fill: none; stroke: #000000; stroke-width: 0.8; stroke-linejoin: miter; stroke-linecap: square"/>
   </g>
   <g id="text_45">
    <!-- Discrete Entropy Distribution per Dimension (Median Threshold) -->
    <g transform="translate(546.777918 20.88) scale(0.12 -0.12)">
     <use xlink:href="#DejaVuSans-44"/>
     <use xlink:href="#DejaVuSans-69" x="77.001953"/>
     <use xlink:href="#DejaVuSans-73" x="104.785156"/>
     <use xlink:href="#DejaVuSans-63" x="156.884766"/>
     <use xlink:href="#DejaVuSans-72" x="211.865234"/>
     <use xlink:href="#DejaVuSans-65" x="250.728516"/>
     <use xlink:href="#DejaVuSans-74" x="312.251953"/>
     <use xlink:href="#DejaVuSans-65" x="351.460938"/>
     <use xlink:href="#DejaVuSans-20" x="412.984375"/>
     <use xlink:href="#DejaVuSans-45" x="444.771484"/>
     <use xlink:href="#DejaVuSans-6e" x="507.955078"/>
     <use xlink:href="#DejaVuSans-74" x="571.333984"/>
     <use xlink:href="#DejaVuSans-72" x="610.542969"/>
     <use xlink:href="#DejaVuSans-6f" x="649.40625"/>
     <use xlink:href="#DejaVuSans-70" x="710.587891"/>
     <use xlink:href="#DejaVuSans-79" x="774.064453"/>
     <use xlink:href="#DejaVuSans-20" x="833.244141"/>
     <use xlink:href="#DejaVuSans-44" x="865.03125"/>
     <use xlink:href="#DejaVuSans-69" x="942.033203"/>
     <use xlink:href="#DejaVuSans-73" x="969.816406"/>
     <use xlink:href="#DejaVuSans-74" x="1021.916016"/>
     <use xlink:href="#DejaVuSans-72" x="1061.125"/>
     <use xlink:href="#DejaVuSans-69" x="1102.238281"/>
     <use xlink:href="#DejaVuSans-62" x="1130.021484"/>
     <use xlink:href="#DejaVuSans-75" x="1193.498047"/>
     <use xlink:href="#DejaVuSans-74" x="1256.876953"/>
     <use xlink:href="#DejaVuSans-69" x="1296.085938"/>
     <use xlink:href="#DejaVuSans-6f" x="1323.869141"/>
     <use xlink:href="#DejaVuSans-6e" x="1385.050781"/>
     <use xlink:href="#DejaVuSans-20" x="1448.429688"/>
     <use xlink:href="#DejaVuSans-70" x="1480.216797"/>
     <use xlink:href="#DejaVuSans-65" x="1543.693359"/>
     <use xlink:href="#DejaVuSans-72" x="1605.216797"/>
     <use xlink:href="#DejaVuSans-20" x="1646.330078"/>
     <use xlink:href="#DejaVuSans-44" x="1678.117188"/>
     <use xlink:href="#DejaVuSans-69" x="1755.119141"/>
     <use xlink:href="#DejaVuSans-6d" x="1782.902344"/>
     <use xlink:href="#DejaVuSans-65" x="1880.314453"/>
     <use xlink:href="#DejaVuSans-6e" x="1941.837891"/>
     <use xlink:href="#DejaVuSans-73" x="2005.216797"/>
     <use xlink:href="#DejaVuSans-69" x="2057.316406"/>
     <use xlink:href="#DejaVuSans-6f" x="2085.099609"/>
     <use xlink:href="#DejaVuSans-6e" x="2146.28125"/>
     <use xlink:href="#DejaVuSans-20" x="2209.660156"/>
     <use xlink:href="#DejaVuSans-28" x="2241.447266"/>
     <use xlink:href="#DejaVuSans-4d" x="2280.460938"/>
     <use xlink:href="#DejaVuSans-65" x="2366.740234"/>
     <use xlink:href="#DejaVuSans-64" x="2428.263672"/>
     <use xlink:href="#DejaVuSans-69" x="2491.740234"/>
     <use xlink:href="#DejaVuSans-61" x="2519.523438"/>
     <use xlink:href="#DejaVuSans-6e" x="2580.802734"/>
     <use xlink:href="#DejaVuSans-20" x="2644.181641"/>
     <use xlink:href="#DejaVuSans-54" x="2675.96875"/>
     <use xlink:href="#DejaVuSans-68" x="2737.052734"/>
     <use xlink:href="#DejaVuSans-72" x="2800.431641"/>
     <use xlink:href="#DejaVuSans-65" x="2839.294922"/>
     <use xlink:href="#DejaVuSans-73" x="2900.818359"/>
     <use xlink:href="#DejaVuSans-68" x="2952.917969"/>
     <use xlink:href="#DejaVuSans-6f" x="3016.296875"/>
     <use xlink:href="#DejaVuSans-6c" x="3077.478516"/>
     <use xlink:href="#DejaVuSans-64" x="3105.261719"/>
     <use xlink:href="#DejaVuSans-29" x="3168.738281"/>
    </g>
   </g>
  </g>
 </g>
 <defs>
  <clipPath id="pc4ee7243d4">
   <rect x="50.87" y="26.88" width="227.917914" height="363.16"/>
  </clipPath>
  <clipPath id="p62481b2e9c">
   <rect x="338.076043" y="26.88" width="227.917914" height="363.16"/>
  </clipPath>
  <clipPath id="pb7a1ab0476">
   <rect x="625.282086" y="26.88" width="227.917914" height="363.16"/>
  </clipPath>
 </defs>
</svg>
