<?xml version="1.0" encoding="utf-8" standalone="no"?>
<!DOCTYPE svg PUBLIC "-//W3C//DTD SVG 1.1//EN"
  "http://www.w3.org/Graphics/SVG/1.1/DTD/svg11.dtd">
<svg xmlns:xlink="http://www.w3.org/1999/xlink" width="720pt" height="432pt" viewBox="0 0 720 432" xmlns="http://www.w3.org/2000/svg" version="1.1">
 <metadata>
  <rdf:RDF xmlns:dc="http://purl.org/dc/elements/1.1/" xmlns:cc="http://creativecommons.org/ns#" xmlns:rdf="http://www.w3.org/1999/02/22-rdf-syntax-ns#">
   <cc:Work>
    <dc:type rdf:resource="http://purl.org/dc/dcmitype/StillImage"/>
    <dc:date>2024-03-11T09:09:38.403416</dc:date>
    <dc:format>image/svg+xml</dc:format>
    <dc:creator>
     <cc:Agent>
      <dc:title>Matplotlib v3.8.2, https://matplotlib.org/</dc:title>
     </cc:Agent>
    </dc:creator>
   </cc:Work>
  </rdf:RDF>
 </metadata>
 <defs>
  <style type="text/css">*{stroke-linejoin: round; stroke-linecap: butt}</style>
 </defs>
 <g id="figure_1">
  <g id="patch_1">
   <path d="M 0 432 
L 720 432 
L 720 0 
L 0 0 
z
" style="fill: #ffffff"/>
  </g>
  <g id="axes_1">
   <g id="patch_2">
    <path d="M 90 384.48 
L 648 384.48 
L 648 51.84 
L 90 51.84 
z
" style="fill: #ffffff"/>
   </g>
   <g id="PolyCollection_1">
    <defs>
     <path id="m7d938f4776" d="M 115.363636 -355.062049 
L 115.363636 -47.52 
L 115.822092 -47.52 
L 116.280547 -47.52 
L 116.739003 -47.52 
L 117.197458 -47.52 
L 117.655914 -47.52 
L 118.11437 -47.52 
L 118.572825 -47.52 
L 119.031281 -47.52 
L 119.489736 -47.52 
L 119.948192 -47.52 
L 120.406647 -47.52 
L 120.865103 -47.52 
L 121.323558 -47.52 
L 121.782014 -47.52 
L 122.240469 -47.52 
L 122.698925 -47.52 
L 123.15738 -47.52 
L 123.615836 -47.52 
L 124.074291 -47.52 
L 124.532747 -47.52 
L 124.991202 -47.52 
L 125.449658 -47.52 
L 125.908114 -47.52 
L 126.366569 -47.52 
L 126.825025 -47.52 
L 127.28348 -47.52 
L 127.741936 -47.52 
L 128.200391 -47.52 
L 128.658847 -47.52 
L 129.117302 -47.52 
L 129.575758 -47.52 
L 130.034213 -47.52 
L 130.492669 -47.52 
L 130.951124 -47.52 
L 131.40958 -47.52 
L 131.868035 -47.52 
L 132.326491 -47.52 
L 132.784946 -47.52 
L 133.243402 -47.52 
L 133.701858 -47.52 
L 134.160313 -47.52 
L 134.618769 -47.52 
L 135.077224 -47.52 
L 135.53568 -47.52 
L 135.994135 -47.52 
L 136.452591 -47.52 
L 136.911046 -47.52 
L 137.369502 -47.52 
L 137.827957 -47.52 
L 138.286413 -47.52 
L 138.744868 -47.52 
L 139.203324 -47.52 
L 139.661779 -47.52 
L 140.120235 -47.52 
L 140.578691 -47.52 
L 141.037146 -47.52 
L 141.495602 -47.52 
L 141.954057 -47.52 
L 142.412513 -47.52 
L 142.870968 -47.52 
L 143.329424 -47.52 
L 143.787879 -47.52 
L 144.246335 -47.52 
L 144.70479 -47.52 
L 145.163246 -47.52 
L 145.621701 -47.52 
L 146.080157 -47.52 
L 146.538612 -47.52 
L 146.997068 -47.52 
L 147.455523 -47.52 
L 147.913979 -47.52 
L 148.372435 -47.52 
L 148.83089 -47.52 
L 149.289346 -47.52 
L 149.747801 -47.52 
L 150.206257 -47.52 
L 150.664712 -47.52 
L 151.123168 -47.52 
L 151.581623 -47.52 
L 152.040079 -47.52 
L 152.498534 -47.52 
L 152.95699 -47.52 
L 153.415445 -47.52 
L 153.873901 -47.52 
L 154.332356 -47.52 
L 154.790812 -47.52 
L 155.249267 -47.52 
L 155.707723 -47.52 
L 156.166179 -47.52 
L 156.624634 -47.52 
L 157.08309 -47.52 
L 157.541545 -47.52 
L 158.000001 -47.52 
L 158.458456 -47.52 
L 158.916912 -47.52 
L 159.375367 -47.52 
L 159.833823 -47.52 
L 160.292278 -47.52 
L 160.750734 -47.52 
L 161.209189 -47.52 
L 161.667645 -47.52 
L 162.1261 -47.52 
L 162.584556 -47.52 
L 163.043011 -47.52 
L 163.501467 -47.52 
L 163.959923 -47.52 
L 164.418378 -47.52 
L 164.876834 -47.52 
L 165.335289 -47.52 
L 165.793745 -47.52 
L 166.2522 -47.52 
L 166.710656 -47.52 
L 167.169111 -47.52 
L 167.627567 -47.52 
L 168.086022 -47.52 
L 168.544478 -47.52 
L 169.002933 -47.52 
L 169.461389 -47.52 
L 169.919844 -47.52 
L 170.3783 -47.52 
L 170.836755 -47.52 
L 171.295211 -47.52 
L 171.753667 -47.52 
L 172.212122 -47.52 
L 172.670578 -47.52 
L 173.129033 -47.52 
L 173.587489 -47.52 
L 174.045944 -47.52 
L 174.5044 -47.52 
L 174.962855 -47.52 
L 175.421311 -47.52 
L 175.879766 -47.52 
L 176.338222 -47.52 
L 176.796677 -47.52 
L 177.255133 -47.52 
L 177.713588 -47.52 
L 178.172044 -47.52 
L 178.630499 -47.52 
L 179.088955 -47.52 
L 179.547411 -47.52 
L 180.005866 -47.52 
L 180.464322 -47.52 
L 180.922777 -47.52 
L 181.381233 -47.52 
L 181.839688 -47.52 
L 182.298144 -47.52 
L 182.756599 -47.52 
L 183.215055 -47.52 
L 183.67351 -47.52 
L 184.131966 -47.52 
L 184.590421 -47.52 
L 185.048877 -47.52 
L 185.507332 -47.52 
L 185.965788 -47.52 
L 186.424243 -47.52 
L 186.882699 -47.52 
L 187.341155 -47.52 
L 187.79961 -47.52 
L 188.258066 -47.52 
L 188.716521 -47.52 
L 189.174977 -47.52 
L 189.633432 -47.52 
L 190.091888 -47.52 
L 190.550343 -47.52 
L 191.008799 -47.52 
L 191.467254 -47.52 
L 191.92571 -47.52 
L 192.384165 -47.52 
L 192.842621 -47.52 
L 193.301076 -47.52 
L 193.759532 -47.52 
L 194.217987 -47.52 
L 194.676443 -47.52 
L 195.134899 -47.52 
L 195.593354 -47.52 
L 196.05181 -47.52 
L 196.510265 -47.52 
L 196.968721 -47.52 
L 197.427176 -47.52 
L 197.885632 -47.52 
L 198.344087 -47.52 
L 198.802543 -47.52 
L 199.260998 -47.52 
L 199.719454 -47.52 
L 200.177909 -47.52 
L 200.636365 -47.52 
L 201.09482 -47.52 
L 201.553276 -47.52 
L 202.011732 -47.52 
L 202.470187 -47.52 
L 202.928643 -47.52 
L 203.387098 -47.52 
L 203.845554 -47.52 
L 204.304009 -47.52 
L 204.762465 -47.52 
L 205.22092 -47.52 
L 205.679376 -47.52 
L 206.137831 -47.52 
L 206.596287 -47.52 
L 206.596287 -47.622799 
L 206.596287 -47.622799 
L 206.137831 -47.655214 
L 205.679376 -47.696341 
L 205.22092 -47.748024 
L 204.762465 -47.812354 
L 204.304009 -47.89165 
L 203.845554 -47.988446 
L 203.387098 -48.10544 
L 202.928643 -48.245447 
L 202.470187 -48.411308 
L 202.011732 -48.605802 
L 201.553276 -48.831517 
L 201.09482 -49.090721 
L 200.636365 -49.385206 
L 200.177909 -49.716133 
L 199.719454 -50.083869 
L 199.260998 -50.487842 
L 198.802543 -50.9264 
L 198.344087 -51.396714 
L 197.885632 -51.89471 
L 197.427176 -52.415048 
L 196.968721 -52.951167 
L 196.510265 -53.495384 
L 196.05181 -54.039059 
L 195.593354 -54.57282 
L 195.134899 -55.08685 
L 194.676443 -55.571218 
L 194.217987 -56.016238 
L 193.759532 -56.412857 
L 193.301076 -56.753027 
L 192.842621 -57.030062 
L 192.384165 -57.238952 
L 191.92571 -57.37661 
L 191.467254 -57.442052 
L 191.008799 -57.436473 
L 190.550343 -57.363244 
L 190.091888 -57.227797 
L 189.633432 -57.03743 
L 189.174977 -56.801018 
L 188.716521 -56.528665 
L 188.258066 -56.231299 
L 187.79961 -55.92024 
L 187.341155 -55.606766 
L 186.882699 -55.301691 
L 186.424243 -55.014974 
L 185.965788 -54.755396 
L 185.507332 -54.530294 
L 185.048877 -54.345373 
L 184.590421 -54.20461 
L 184.131966 -54.11023 
L 183.67351 -54.062761 
L 183.215055 -54.061163 
L 182.756599 -54.103003 
L 182.298144 -54.184677 
L 181.839688 -54.301655 
L 181.381233 -54.44873 
L 180.922777 -54.620268 
L 180.464322 -54.810434 
L 180.005866 -55.013383 
L 179.547411 -55.223428 
L 179.088955 -55.435154 
L 178.630499 -55.643497 
L 178.172044 -55.84379 
L 177.713588 -56.031773 
L 177.255133 -56.203586 
L 176.796677 -56.355744 
L 176.338222 -56.485111 
L 175.879766 -56.588884 
L 175.421311 -56.66458 
L 174.962855 -56.710054 
L 174.5044 -56.723523 
L 174.045944 -56.703624 
L 173.587489 -56.64948 
L 173.129033 -56.560782 
L 172.670578 -56.437878 
L 172.212122 -56.281853 
L 171.753667 -56.094601 
L 171.295211 -55.878879 
L 170.836755 -55.638326 
L 170.3783 -55.377453 
L 169.919844 -55.101598 
L 169.461389 -54.816842 
L 169.002933 -54.529882 
L 168.544478 -54.247879 
L 168.086022 -53.978275 
L 167.627567 -53.728589 
L 167.169111 -53.506198 
L 166.710656 -53.318122 
L 166.2522 -53.17081 
L 165.793745 -53.069934 
L 165.335289 -53.020223 
L 164.876834 -53.025307 
L 164.418378 -53.087611 
L 163.959923 -53.208282 
L 163.501467 -53.387159 
L 163.043011 -53.622792 
L 162.584556 -53.912499 
L 162.1261 -54.252471 
L 161.667645 -54.637914 
L 161.209189 -55.063226 
L 160.750734 -55.522209 
L 160.292278 -56.008299 
L 159.833823 -56.514815 
L 159.375367 -57.035219 
L 158.916912 -57.563372 
L 158.458456 -58.093783 
L 158.000001 -58.621838 
L 157.541545 -59.144002 
L 157.08309 -59.657982 
L 156.624634 -60.162847 
L 156.166179 -60.659089 
L 155.707723 -61.14863 
L 155.249267 -61.63476 
L 154.790812 -62.122012 
L 154.332356 -62.615962 
L 153.873901 -63.122978 
L 153.415445 -63.6499 
L 152.95699 -64.203676 
L 152.498534 -64.79097 
L 152.040079 -65.417742 
L 151.581623 -66.088838 
L 151.123168 -66.807602 
L 150.664712 -67.575531 
L 150.206257 -68.392003 
L 149.747801 -69.254088 
L 149.289346 -70.156469 
L 148.83089 -71.09148 
L 148.372435 -72.049271 
L 147.913979 -73.018103 
L 147.455523 -73.984749 
L 146.997068 -74.935017 
L 146.538612 -75.854339 
L 146.080157 -76.728426 
L 145.621701 -77.543933 
L 145.163246 -78.28912 
L 144.70479 -78.954451 
L 144.246335 -79.533117 
L 143.787879 -80.021436 
L 143.329424 -80.419116 
L 142.870968 -80.729362 
L 142.412513 -80.958817 
L 141.954057 -81.117347 
L 141.495602 -81.217676 
L 141.037146 -81.274898 
L 140.578691 -81.305894 
L 140.120235 -81.32869 
L 139.661779 -81.361795 
L 139.203324 -81.423563 
L 138.744868 -81.531612 
L 138.286413 -81.702344 
L 137.827957 -81.950585 
L 137.369502 -82.289381 
L 136.911046 -82.729946 
L 136.452591 -83.28178 
L 135.994135 -83.952946 
L 135.53568 -84.750486 
L 135.077224 -85.680969 
L 134.618769 -86.751125 
L 134.160313 -87.968541 
L 133.701858 -89.342391 
L 133.243402 -90.884146 
L 132.784946 -92.608243 
L 132.326491 -94.532672 
L 131.868035 -96.679446 
L 131.40958 -99.074929 
L 130.951124 -101.750001 
L 130.492669 -104.74001 
L 130.034213 -108.084533 
L 129.575758 -111.826875 
L 129.117302 -116.013339 
L 128.658847 -120.692213 
L 128.200391 -125.912492 
L 127.741936 -131.722317 
L 127.28348 -138.167146 
L 126.825025 -145.287655 
L 126.366569 -153.11742 
L 125.908114 -161.680407 
L 125.449658 -170.988344 
L 124.991202 -181.038049 
L 124.532747 -191.808831 
L 124.074291 -203.26007 
L 123.615836 -215.329138 
L 123.15738 -227.929787 
L 122.698925 -240.951179 
L 122.240469 -254.257693 
L 121.782014 -267.689649 
L 121.323558 -281.065053 
L 120.865103 -294.182417 
L 120.406647 -306.824685 
L 119.948192 -318.76421 
L 119.489736 -329.768668 
L 119.031281 -339.60775 
L 118.572825 -348.060376 
L 118.11437 -354.922156 
L 117.655914 -360.012753 
L 117.197458 -363.182797 
L 116.739003 -364.32 
L 116.280547 -363.354125 
L 115.822092 -360.260529 
L 115.363636 -355.062049 
z
" style="stroke: #1f77b4"/>
    </defs>
    <g clip-path="url(#p61b241d325)">
     <use xlink:href="#m7d938f4776" x="0" y="432" style="fill: #1f77b4; fill-opacity: 0.25; stroke: #1f77b4"/>
    </g>
   </g>
   <g id="PolyCollection_2">
    <defs>
     <path id="m357b0e4f63" d="M 115.363636 -55.025849 
L 115.363636 -47.52 
L 117.912746 -47.52 
L 120.461855 -47.52 
L 123.010964 -47.52 
L 125.560073 -47.52 
L 128.109182 -47.52 
L 130.658291 -47.52 
L 133.207401 -47.52 
L 135.75651 -47.52 
L 138.305619 -47.52 
L 140.854728 -47.52 
L 143.403837 -47.52 
L 145.952947 -47.52 
L 148.502056 -47.52 
L 151.051165 -47.52 
L 153.600274 -47.52 
L 156.149383 -47.52 
L 158.698492 -47.52 
L 161.247602 -47.52 
L 163.796711 -47.52 
L 166.34582 -47.52 
L 168.894929 -47.52 
L 171.444038 -47.52 
L 173.993148 -47.52 
L 176.542257 -47.52 
L 179.091366 -47.52 
L 181.640475 -47.52 
L 184.189584 -47.52 
L 186.738693 -47.52 
L 189.287803 -47.52 
L 191.836912 -47.52 
L 194.386021 -47.52 
L 196.93513 -47.52 
L 199.484239 -47.52 
L 202.033349 -47.52 
L 204.582458 -47.52 
L 207.131567 -47.52 
L 209.680676 -47.52 
L 212.229785 -47.52 
L 214.778894 -47.52 
L 217.328004 -47.52 
L 219.877113 -47.52 
L 222.426222 -47.52 
L 224.975331 -47.52 
L 227.52444 -47.52 
L 230.07355 -47.52 
L 232.622659 -47.52 
L 235.171768 -47.52 
L 237.720877 -47.52 
L 240.269986 -47.52 
L 242.819095 -47.52 
L 245.368205 -47.52 
L 247.917314 -47.52 
L 250.466423 -47.52 
L 253.015532 -47.52 
L 255.564641 -47.52 
L 258.113751 -47.52 
L 260.66286 -47.52 
L 263.211969 -47.52 
L 265.761078 -47.52 
L 268.310187 -47.52 
L 270.859296 -47.52 
L 273.408406 -47.52 
L 275.957515 -47.52 
L 278.506624 -47.52 
L 281.055733 -47.52 
L 283.604842 -47.52 
L 286.153952 -47.52 
L 288.703061 -47.52 
L 291.25217 -47.52 
L 293.801279 -47.52 
L 296.350388 -47.52 
L 298.899497 -47.52 
L 301.448607 -47.52 
L 303.997716 -47.52 
L 306.546825 -47.52 
L 309.095934 -47.52 
L 311.645043 -47.52 
L 314.194153 -47.52 
L 316.743262 -47.52 
L 319.292371 -47.52 
L 321.84148 -47.52 
L 324.390589 -47.52 
L 326.939698 -47.52 
L 329.488808 -47.52 
L 332.037917 -47.52 
L 334.587026 -47.52 
L 337.136135 -47.52 
L 339.685244 -47.52 
L 342.234354 -47.52 
L 344.783463 -47.52 
L 347.332572 -47.52 
L 349.881681 -47.52 
L 352.43079 -47.52 
L 354.979899 -47.52 
L 357.529009 -47.52 
L 360.078118 -47.52 
L 362.627227 -47.52 
L 365.176336 -47.52 
L 367.725445 -47.52 
L 370.274555 -47.52 
L 372.823664 -47.52 
L 375.372773 -47.52 
L 377.921882 -47.52 
L 380.470991 -47.52 
L 383.020101 -47.52 
L 385.56921 -47.52 
L 388.118319 -47.52 
L 390.667428 -47.52 
L 393.216537 -47.52 
L 395.765646 -47.52 
L 398.314756 -47.52 
L 400.863865 -47.52 
L 403.412974 -47.52 
L 405.962083 -47.52 
L 408.511192 -47.52 
L 411.060302 -47.52 
L 413.609411 -47.52 
L 416.15852 -47.52 
L 418.707629 -47.52 
L 421.256738 -47.52 
L 423.805847 -47.52 
L 426.354957 -47.52 
L 428.904066 -47.52 
L 431.453175 -47.52 
L 434.002284 -47.52 
L 436.551393 -47.52 
L 439.100503 -47.52 
L 441.649612 -47.52 
L 444.198721 -47.52 
L 446.74783 -47.52 
L 449.296939 -47.52 
L 451.846048 -47.52 
L 454.395158 -47.52 
L 456.944267 -47.52 
L 459.493376 -47.52 
L 462.042485 -47.52 
L 464.591594 -47.52 
L 467.140704 -47.52 
L 469.689813 -47.52 
L 472.238922 -47.52 
L 474.788031 -47.52 
L 477.33714 -47.52 
L 479.886249 -47.52 
L 482.435359 -47.52 
L 484.984468 -47.52 
L 487.533577 -47.52 
L 490.082686 -47.52 
L 492.631795 -47.52 
L 495.180905 -47.52 
L 497.730014 -47.52 
L 500.279123 -47.52 
L 502.828232 -47.52 
L 505.377341 -47.52 
L 507.92645 -47.52 
L 510.47556 -47.52 
L 513.024669 -47.52 
L 515.573778 -47.52 
L 518.122887 -47.52 
L 520.671996 -47.52 
L 523.221106 -47.52 
L 525.770215 -47.52 
L 528.319324 -47.52 
L 530.868433 -47.52 
L 533.417542 -47.52 
L 535.966651 -47.52 
L 538.515761 -47.52 
L 541.06487 -47.52 
L 543.613979 -47.52 
L 546.163088 -47.52 
L 548.712197 -47.52 
L 551.261307 -47.52 
L 553.810416 -47.52 
L 556.359525 -47.52 
L 558.908634 -47.52 
L 561.457743 -47.52 
L 564.006852 -47.52 
L 566.555962 -47.52 
L 569.105071 -47.52 
L 571.65418 -47.52 
L 574.203289 -47.52 
L 576.752398 -47.52 
L 579.301508 -47.52 
L 581.850617 -47.52 
L 584.399726 -47.52 
L 586.948835 -47.52 
L 589.497944 -47.52 
L 592.047053 -47.52 
L 594.596163 -47.52 
L 597.145272 -47.52 
L 599.694381 -47.52 
L 602.24349 -47.52 
L 604.792599 -47.52 
L 607.341709 -47.52 
L 609.890818 -47.52 
L 612.439927 -47.52 
L 614.989036 -47.52 
L 617.538145 -47.52 
L 620.087254 -47.52 
L 622.636364 -47.52 
L 622.636364 -47.520151 
L 622.636364 -47.520151 
L 620.087254 -47.52033 
L 617.538145 -47.520672 
L 614.989036 -47.521279 
L 612.439927 -47.52228 
L 609.890818 -47.523826 
L 607.341709 -47.526078 
L 604.792599 -47.529213 
L 602.24349 -47.533461 
L 599.694381 -47.539161 
L 597.145272 -47.546817 
L 594.596163 -47.557111 
L 592.047053 -47.570818 
L 589.497944 -47.588653 
L 586.948835 -47.611105 
L 584.399726 -47.638386 
L 581.850617 -47.67053 
L 579.301508 -47.707603 
L 576.752398 -47.749864 
L 574.203289 -47.797761 
L 571.65418 -47.851741 
L 569.105071 -47.912012 
L 566.555962 -47.978402 
L 564.006852 -48.050354 
L 561.457743 -48.126905 
L 558.908634 -48.206489 
L 556.359525 -48.286569 
L 553.810416 -48.363363 
L 551.261307 -48.431979 
L 548.712197 -48.487139 
L 546.163088 -48.524308 
L 543.613979 -48.540795 
L 541.06487 -48.536427 
L 538.515761 -48.513634 
L 535.966651 -48.477021 
L 533.417542 -48.432617 
L 530.868433 -48.386907 
L 528.319324 -48.345678 
L 525.770215 -48.312797 
L 523.221106 -48.2892 
L 520.671996 -48.272544 
L 518.122887 -48.257839 
L 515.573778 -48.239039 
L 513.024669 -48.211107 
L 510.47556 -48.171776 
L 507.92645 -48.122336 
L 505.377341 -48.067183 
L 502.828232 -48.012398 
L 500.279123 -47.963986 
L 497.730014 -47.926455 
L 495.180905 -47.902166 
L 492.631795 -47.891507 
L 490.082686 -47.893637 
L 487.533577 -47.907378 
L 484.984468 -47.931856 
L 482.435359 -47.966666 
L 479.886249 -48.011566 
L 477.33714 -48.065913 
L 474.788031 -48.128179 
L 472.238922 -48.195794 
L 469.689813 -48.265389 
L 467.140704 -48.333311 
L 464.591594 -48.396222 
L 462.042485 -48.451621 
L 459.493376 -48.498255 
L 456.944267 -48.536422 
L 454.395158 -48.568149 
L 451.846048 -48.597129 
L 449.296939 -48.628324 
L 446.74783 -48.667232 
L 444.198721 -48.718986 
L 441.649612 -48.787554 
L 439.100503 -48.875255 
L 436.551393 -48.982609 
L 434.002284 -49.108363 
L 431.453175 -49.249455 
L 428.904066 -49.40089 
L 426.354957 -49.555772 
L 423.805847 -49.705826 
L 421.256738 -49.842539 
L 418.707629 -49.958614 
L 416.15852 -50.04917 
L 413.609411 -50.112242 
L 411.060302 -50.148619 
L 408.511192 -50.161481 
L 405.962083 -50.15624 
L 403.412974 -50.140556 
L 400.863865 -50.123973 
L 398.314756 -50.116602 
L 395.765646 -50.126866 
L 393.216537 -50.159082 
L 390.667428 -50.212083 
L 388.118319 -50.279734 
L 385.56921 -50.353374 
L 383.020101 -50.425269 
L 380.470991 -50.49181 
L 377.921882 -50.555313 
L 375.372773 -50.623865 
L 372.823664 -50.7092 
L 370.274555 -50.823117 
L 367.725445 -50.973415 
L 365.176336 -51.160708 
L 362.627227 -51.377495 
L 360.078118 -51.610218 
L 357.529009 -51.843833 
L 354.979899 -52.067223 
L 352.43079 -52.27729 
L 349.881681 -52.480164 
L 347.332572 -52.689315 
L 344.783463 -52.921541 
L 342.234354 -53.192398 
L 339.685244 -53.512372 
L 337.136135 -53.884625 
L 334.587026 -54.30466 
L 332.037917 -54.761954 
L 329.488808 -55.243057 
L 326.939698 -55.735062 
L 324.390589 -56.227957 
L 321.84148 -56.71483 
L 319.292371 -57.19012 
L 316.743262 -57.64745 
L 314.194153 -58.0789 
L 311.645043 -58.476687 
L 309.095934 -58.836556 
L 306.546825 -59.161057 
L 303.997716 -59.460933 
L 301.448607 -59.753947 
L 298.899497 -60.061703 
L 296.350388 -60.405619 
L 293.801279 -60.803064 
L 291.25217 -61.264357 
L 288.703061 -61.791128 
L 286.153952 -62.376606 
L 283.604842 -63.008133 
L 281.055733 -63.671524 
L 278.506624 -64.355909 
L 275.957515 -65.057177 
L 273.408406 -65.77851 
L 270.859296 -66.527621 
L 268.310187 -67.311685 
L 265.761078 -68.131733 
L 263.211969 -68.978374 
L 260.66286 -69.830181 
L 258.113751 -70.65548 
L 255.564641 -71.417726 
L 253.015532 -72.0839 
L 250.466423 -72.634352 
L 247.917314 -73.071196 
L 245.368205 -73.421798 
L 242.819095 -73.734746 
L 240.269986 -74.068223 
L 237.720877 -74.473905 
L 235.171768 -74.981635 
L 232.622659 -75.590014 
L 230.07355 -76.26577 
L 227.52444 -76.951567 
L 224.975331 -77.579413 
L 222.426222 -78.085803 
L 219.877113 -78.425017 
L 217.328004 -78.577912 
L 214.778894 -78.554661 
L 212.229785 -78.391138 
L 209.680676 -78.140079 
L 207.131567 -77.859435 
L 204.582458 -77.601068 
L 202.033349 -77.402473 
L 199.484239 -77.282922 
L 196.93513 -77.243944 
L 194.386021 -77.273066 
L 191.836912 -77.349586 
L 189.287803 -77.45125 
L 186.738693 -77.560729 
L 184.189584 -77.670526 
L 181.640475 -77.784983 
L 179.091366 -77.918731 
L 176.542257 -78.092177 
L 173.993148 -78.325793 
L 171.444038 -78.635347 
L 168.894929 -79.029496 
L 166.34582 -79.509803 
L 163.796711 -80.072063 
L 161.247602 -80.70736 
L 158.698492 -81.401731 
L 156.149383 -82.13424 
L 153.600274 -82.873999 
L 151.051165 -83.576786 
L 148.502056 -84.181591 
L 145.952947 -84.607449 
L 143.403837 -84.751825 
L 140.854728 -84.493426 
L 138.305619 -83.703188 
L 135.75651 -82.265743 
L 133.207401 -80.109304 
L 130.658291 -77.236306 
L 128.109182 -73.743422 
L 125.560073 -69.820675 
L 123.010964 -65.725783 
L 120.461855 -61.739119 
L 117.912746 -58.112299 
L 115.363636 -55.025849 
z
" style="stroke: #ff7f0e"/>
    </defs>
    <g clip-path="url(#p61b241d325)">
     <use xlink:href="#m357b0e4f63" x="0" y="432" style="fill: #ff7f0e; fill-opacity: 0.25; stroke: #ff7f0e"/>
    </g>
   </g>
   <g id="matplotlib.axis_1">
    <g id="xtick_1">
     <g id="line2d_1">
      <defs>
       <path id="m9cabb92ac6" d="M 0 0 
L 0 3.5 
" style="stroke: #000000; stroke-width: 0.8"/>
      </defs>
      <g>
       <use xlink:href="#m9cabb92ac6" x="115.363636" y="384.48" style="stroke: #000000; stroke-width: 0.8"/>
      </g>
     </g>
     <g id="text_1">
      <!-- 0 -->
      <g transform="translate(112.182386 399.078438) scale(0.1 -0.1)">
       <defs>
        <path id="DejaVuSans-30" d="M 2034 4250 
Q 1547 4250 1301 3770 
Q 1056 3291 1056 2328 
Q 1056 1369 1301 889 
Q 1547 409 2034 409 
Q 2525 409 2770 889 
Q 3016 1369 3016 2328 
Q 3016 3291 2770 3770 
Q 2525 4250 2034 4250 
z
M 2034 4750 
Q 2819 4750 3233 4129 
Q 3647 3509 3647 2328 
Q 3647 1150 3233 529 
Q 2819 -91 2034 -91 
Q 1250 -91 836 529 
Q 422 1150 422 2328 
Q 422 3509 836 4129 
Q 1250 4750 2034 4750 
z
" transform="scale(0.015625)"/>
       </defs>
       <use xlink:href="#DejaVuSans-30"/>
      </g>
     </g>
    </g>
    <g id="xtick_2">
     <g id="line2d_2">
      <g>
       <use xlink:href="#m9cabb92ac6" x="183.122719" y="384.48" style="stroke: #000000; stroke-width: 0.8"/>
      </g>
     </g>
     <g id="text_2">
      <!-- 50000 -->
      <g transform="translate(167.216469 399.078438) scale(0.1 -0.1)">
       <defs>
        <path id="DejaVuSans-35" d="M 691 4666 
L 3169 4666 
L 3169 4134 
L 1269 4134 
L 1269 2991 
Q 1406 3038 1543 3061 
Q 1681 3084 1819 3084 
Q 2600 3084 3056 2656 
Q 3513 2228 3513 1497 
Q 3513 744 3044 326 
Q 2575 -91 1722 -91 
Q 1428 -91 1123 -41 
Q 819 9 494 109 
L 494 744 
Q 775 591 1075 516 
Q 1375 441 1709 441 
Q 2250 441 2565 725 
Q 2881 1009 2881 1497 
Q 2881 1984 2565 2268 
Q 2250 2553 1709 2553 
Q 1456 2553 1204 2497 
Q 953 2441 691 2322 
L 691 4666 
z
" transform="scale(0.015625)"/>
       </defs>
       <use xlink:href="#DejaVuSans-35"/>
       <use xlink:href="#DejaVuSans-30" x="63.623047"/>
       <use xlink:href="#DejaVuSans-30" x="127.246094"/>
       <use xlink:href="#DejaVuSans-30" x="190.869141"/>
       <use xlink:href="#DejaVuSans-30" x="254.492188"/>
      </g>
     </g>
    </g>
    <g id="xtick_3">
     <g id="line2d_3">
      <g>
       <use xlink:href="#m9cabb92ac6" x="250.881802" y="384.48" style="stroke: #000000; stroke-width: 0.8"/>
      </g>
     </g>
     <g id="text_3">
      <!-- 100000 -->
      <g transform="translate(231.794302 399.078438) scale(0.1 -0.1)">
       <defs>
        <path id="DejaVuSans-31" d="M 794 531 
L 1825 531 
L 1825 4091 
L 703 3866 
L 703 4441 
L 1819 4666 
L 2450 4666 
L 2450 531 
L 3481 531 
L 3481 0 
L 794 0 
L 794 531 
z
" transform="scale(0.015625)"/>
       </defs>
       <use xlink:href="#DejaVuSans-31"/>
       <use xlink:href="#DejaVuSans-30" x="63.623047"/>
       <use xlink:href="#DejaVuSans-30" x="127.246094"/>
       <use xlink:href="#DejaVuSans-30" x="190.869141"/>
       <use xlink:href="#DejaVuSans-30" x="254.492188"/>
       <use xlink:href="#DejaVuSans-30" x="318.115234"/>
      </g>
     </g>
    </g>
    <g id="xtick_4">
     <g id="line2d_4">
      <g>
       <use xlink:href="#m9cabb92ac6" x="318.640885" y="384.48" style="stroke: #000000; stroke-width: 0.8"/>
      </g>
     </g>
     <g id="text_4">
      <!-- 150000 -->
      <g transform="translate(299.553385 399.078438) scale(0.1 -0.1)">
       <use xlink:href="#DejaVuSans-31"/>
       <use xlink:href="#DejaVuSans-35" x="63.623047"/>
       <use xlink:href="#DejaVuSans-30" x="127.246094"/>
       <use xlink:href="#DejaVuSans-30" x="190.869141"/>
       <use xlink:href="#DejaVuSans-30" x="254.492188"/>
       <use xlink:href="#DejaVuSans-30" x="318.115234"/>
      </g>
     </g>
    </g>
    <g id="xtick_5">
     <g id="line2d_5">
      <g>
       <use xlink:href="#m9cabb92ac6" x="386.399968" y="384.48" style="stroke: #000000; stroke-width: 0.8"/>
      </g>
     </g>
     <g id="text_5">
      <!-- 200000 -->
      <g transform="translate(367.312468 399.078438) scale(0.1 -0.1)">
       <defs>
        <path id="DejaVuSans-32" d="M 1228 531 
L 3431 531 
L 3431 0 
L 469 0 
L 469 531 
Q 828 903 1448 1529 
Q 2069 2156 2228 2338 
Q 2531 2678 2651 2914 
Q 2772 3150 2772 3378 
Q 2772 3750 2511 3984 
Q 2250 4219 1831 4219 
Q 1534 4219 1204 4116 
Q 875 4013 500 3803 
L 500 4441 
Q 881 4594 1212 4672 
Q 1544 4750 1819 4750 
Q 2544 4750 2975 4387 
Q 3406 4025 3406 3419 
Q 3406 3131 3298 2873 
Q 3191 2616 2906 2266 
Q 2828 2175 2409 1742 
Q 1991 1309 1228 531 
z
" transform="scale(0.015625)"/>
       </defs>
       <use xlink:href="#DejaVuSans-32"/>
       <use xlink:href="#DejaVuSans-30" x="63.623047"/>
       <use xlink:href="#DejaVuSans-30" x="127.246094"/>
       <use xlink:href="#DejaVuSans-30" x="190.869141"/>
       <use xlink:href="#DejaVuSans-30" x="254.492188"/>
       <use xlink:href="#DejaVuSans-30" x="318.115234"/>
      </g>
     </g>
    </g>
    <g id="xtick_6">
     <g id="line2d_6">
      <g>
       <use xlink:href="#m9cabb92ac6" x="454.159051" y="384.48" style="stroke: #000000; stroke-width: 0.8"/>
      </g>
     </g>
     <g id="text_6">
      <!-- 250000 -->
      <g transform="translate(435.071551 399.078438) scale(0.1 -0.1)">
       <use xlink:href="#DejaVuSans-32"/>
       <use xlink:href="#DejaVuSans-35" x="63.623047"/>
       <use xlink:href="#DejaVuSans-30" x="127.246094"/>
       <use xlink:href="#DejaVuSans-30" x="190.869141"/>
       <use xlink:href="#DejaVuSans-30" x="254.492188"/>
       <use xlink:href="#DejaVuSans-30" x="318.115234"/>
      </g>
     </g>
    </g>
    <g id="xtick_7">
     <g id="line2d_7">
      <g>
       <use xlink:href="#m9cabb92ac6" x="521.918134" y="384.48" style="stroke: #000000; stroke-width: 0.8"/>
      </g>
     </g>
     <g id="text_7">
      <!-- 300000 -->
      <g transform="translate(502.830634 399.078438) scale(0.1 -0.1)">
       <defs>
        <path id="DejaVuSans-33" d="M 2597 2516 
Q 3050 2419 3304 2112 
Q 3559 1806 3559 1356 
Q 3559 666 3084 287 
Q 2609 -91 1734 -91 
Q 1441 -91 1130 -33 
Q 819 25 488 141 
L 488 750 
Q 750 597 1062 519 
Q 1375 441 1716 441 
Q 2309 441 2620 675 
Q 2931 909 2931 1356 
Q 2931 1769 2642 2001 
Q 2353 2234 1838 2234 
L 1294 2234 
L 1294 2753 
L 1863 2753 
Q 2328 2753 2575 2939 
Q 2822 3125 2822 3475 
Q 2822 3834 2567 4026 
Q 2313 4219 1838 4219 
Q 1578 4219 1281 4162 
Q 984 4106 628 3988 
L 628 4550 
Q 988 4650 1302 4700 
Q 1616 4750 1894 4750 
Q 2613 4750 3031 4423 
Q 3450 4097 3450 3541 
Q 3450 3153 3228 2886 
Q 3006 2619 2597 2516 
z
" transform="scale(0.015625)"/>
       </defs>
       <use xlink:href="#DejaVuSans-33"/>
       <use xlink:href="#DejaVuSans-30" x="63.623047"/>
       <use xlink:href="#DejaVuSans-30" x="127.246094"/>
       <use xlink:href="#DejaVuSans-30" x="190.869141"/>
       <use xlink:href="#DejaVuSans-30" x="254.492188"/>
       <use xlink:href="#DejaVuSans-30" x="318.115234"/>
      </g>
     </g>
    </g>
    <g id="xtick_8">
     <g id="line2d_8">
      <g>
       <use xlink:href="#m9cabb92ac6" x="589.677217" y="384.48" style="stroke: #000000; stroke-width: 0.8"/>
      </g>
     </g>
     <g id="text_8">
      <!-- 350000 -->
      <g transform="translate(570.589717 399.078438) scale(0.1 -0.1)">
       <use xlink:href="#DejaVuSans-33"/>
       <use xlink:href="#DejaVuSans-35" x="63.623047"/>
       <use xlink:href="#DejaVuSans-30" x="127.246094"/>
       <use xlink:href="#DejaVuSans-30" x="190.869141"/>
       <use xlink:href="#DejaVuSans-30" x="254.492188"/>
       <use xlink:href="#DejaVuSans-30" x="318.115234"/>
      </g>
     </g>
    </g>
    <g id="text_9">
     <!-- Distance -->
     <g transform="translate(347.1375 412.756563) scale(0.1 -0.1)">
      <defs>
       <path id="DejaVuSans-44" d="M 1259 4147 
L 1259 519 
L 2022 519 
Q 2988 519 3436 956 
Q 3884 1394 3884 2338 
Q 3884 3275 3436 3711 
Q 2988 4147 2022 4147 
L 1259 4147 
z
M 628 4666 
L 1925 4666 
Q 3281 4666 3915 4102 
Q 4550 3538 4550 2338 
Q 4550 1131 3912 565 
Q 3275 0 1925 0 
L 628 0 
L 628 4666 
z
" transform="scale(0.015625)"/>
       <path id="DejaVuSans-69" d="M 603 3500 
L 1178 3500 
L 1178 0 
L 603 0 
L 603 3500 
z
M 603 4863 
L 1178 4863 
L 1178 4134 
L 603 4134 
L 603 4863 
z
" transform="scale(0.015625)"/>
       <path id="DejaVuSans-73" d="M 2834 3397 
L 2834 2853 
Q 2591 2978 2328 3040 
Q 2066 3103 1784 3103 
Q 1356 3103 1142 2972 
Q 928 2841 928 2578 
Q 928 2378 1081 2264 
Q 1234 2150 1697 2047 
L 1894 2003 
Q 2506 1872 2764 1633 
Q 3022 1394 3022 966 
Q 3022 478 2636 193 
Q 2250 -91 1575 -91 
Q 1294 -91 989 -36 
Q 684 19 347 128 
L 347 722 
Q 666 556 975 473 
Q 1284 391 1588 391 
Q 1994 391 2212 530 
Q 2431 669 2431 922 
Q 2431 1156 2273 1281 
Q 2116 1406 1581 1522 
L 1381 1569 
Q 847 1681 609 1914 
Q 372 2147 372 2553 
Q 372 3047 722 3315 
Q 1072 3584 1716 3584 
Q 2034 3584 2315 3537 
Q 2597 3491 2834 3397 
z
" transform="scale(0.015625)"/>
       <path id="DejaVuSans-74" d="M 1172 4494 
L 1172 3500 
L 2356 3500 
L 2356 3053 
L 1172 3053 
L 1172 1153 
Q 1172 725 1289 603 
Q 1406 481 1766 481 
L 2356 481 
L 2356 0 
L 1766 0 
Q 1100 0 847 248 
Q 594 497 594 1153 
L 594 3053 
L 172 3053 
L 172 3500 
L 594 3500 
L 594 4494 
L 1172 4494 
z
" transform="scale(0.015625)"/>
       <path id="DejaVuSans-61" d="M 2194 1759 
Q 1497 1759 1228 1600 
Q 959 1441 959 1056 
Q 959 750 1161 570 
Q 1363 391 1709 391 
Q 2188 391 2477 730 
Q 2766 1069 2766 1631 
L 2766 1759 
L 2194 1759 
z
M 3341 1997 
L 3341 0 
L 2766 0 
L 2766 531 
Q 2569 213 2275 61 
Q 1981 -91 1556 -91 
Q 1019 -91 701 211 
Q 384 513 384 1019 
Q 384 1609 779 1909 
Q 1175 2209 1959 2209 
L 2766 2209 
L 2766 2266 
Q 2766 2663 2505 2880 
Q 2244 3097 1772 3097 
Q 1472 3097 1187 3025 
Q 903 2953 641 2809 
L 641 3341 
Q 956 3463 1253 3523 
Q 1550 3584 1831 3584 
Q 2591 3584 2966 3190 
Q 3341 2797 3341 1997 
z
" transform="scale(0.015625)"/>
       <path id="DejaVuSans-6e" d="M 3513 2113 
L 3513 0 
L 2938 0 
L 2938 2094 
Q 2938 2591 2744 2837 
Q 2550 3084 2163 3084 
Q 1697 3084 1428 2787 
Q 1159 2491 1159 1978 
L 1159 0 
L 581 0 
L 581 3500 
L 1159 3500 
L 1159 2956 
Q 1366 3272 1645 3428 
Q 1925 3584 2291 3584 
Q 2894 3584 3203 3211 
Q 3513 2838 3513 2113 
z
" transform="scale(0.015625)"/>
       <path id="DejaVuSans-63" d="M 3122 3366 
L 3122 2828 
Q 2878 2963 2633 3030 
Q 2388 3097 2138 3097 
Q 1578 3097 1268 2742 
Q 959 2388 959 1747 
Q 959 1106 1268 751 
Q 1578 397 2138 397 
Q 2388 397 2633 464 
Q 2878 531 3122 666 
L 3122 134 
Q 2881 22 2623 -34 
Q 2366 -91 2075 -91 
Q 1284 -91 818 406 
Q 353 903 353 1747 
Q 353 2603 823 3093 
Q 1294 3584 2113 3584 
Q 2378 3584 2631 3529 
Q 2884 3475 3122 3366 
z
" transform="scale(0.015625)"/>
       <path id="DejaVuSans-65" d="M 3597 1894 
L 3597 1613 
L 953 1613 
Q 991 1019 1311 708 
Q 1631 397 2203 397 
Q 2534 397 2845 478 
Q 3156 559 3463 722 
L 3463 178 
Q 3153 47 2828 -22 
Q 2503 -91 2169 -91 
Q 1331 -91 842 396 
Q 353 884 353 1716 
Q 353 2575 817 3079 
Q 1281 3584 2069 3584 
Q 2775 3584 3186 3129 
Q 3597 2675 3597 1894 
z
M 3022 2063 
Q 3016 2534 2758 2815 
Q 2500 3097 2075 3097 
Q 1594 3097 1305 2825 
Q 1016 2553 972 2059 
L 3022 2063 
z
" transform="scale(0.015625)"/>
      </defs>
      <use xlink:href="#DejaVuSans-44"/>
      <use xlink:href="#DejaVuSans-69" x="77.001953"/>
      <use xlink:href="#DejaVuSans-73" x="104.785156"/>
      <use xlink:href="#DejaVuSans-74" x="156.884766"/>
      <use xlink:href="#DejaVuSans-61" x="196.09375"/>
      <use xlink:href="#DejaVuSans-6e" x="257.373047"/>
      <use xlink:href="#DejaVuSans-63" x="320.751953"/>
      <use xlink:href="#DejaVuSans-65" x="375.732422"/>
     </g>
    </g>
   </g>
   <g id="matplotlib.axis_2">
    <g id="ytick_1">
     <g id="line2d_9">
      <defs>
       <path id="mfbd3fbefc8" d="M 0 0 
L -3.5 0 
" style="stroke: #000000; stroke-width: 0.8"/>
      </defs>
      <g>
       <use xlink:href="#mfbd3fbefc8" x="90" y="384.48" style="stroke: #000000; stroke-width: 0.8"/>
      </g>
     </g>
     <g id="text_10">
      <!-- 0 -->
      <g transform="translate(76.6375 388.279219) scale(0.1 -0.1)">
       <use xlink:href="#DejaVuSans-30"/>
      </g>
     </g>
    </g>
    <g id="ytick_2">
     <g id="line2d_10">
      <g>
       <use xlink:href="#mfbd3fbefc8" x="90" y="342.185037" style="stroke: #000000; stroke-width: 0.8"/>
      </g>
     </g>
     <g id="text_11">
      <!-- 1 -->
      <g transform="translate(76.6375 345.984256) scale(0.1 -0.1)">
       <use xlink:href="#DejaVuSans-31"/>
      </g>
     </g>
    </g>
    <g id="ytick_3">
     <g id="line2d_11">
      <g>
       <use xlink:href="#mfbd3fbefc8" x="90" y="299.890075" style="stroke: #000000; stroke-width: 0.8"/>
      </g>
     </g>
     <g id="text_12">
      <!-- 2 -->
      <g transform="translate(76.6375 303.689294) scale(0.1 -0.1)">
       <use xlink:href="#DejaVuSans-32"/>
      </g>
     </g>
    </g>
    <g id="ytick_4">
     <g id="line2d_12">
      <g>
       <use xlink:href="#mfbd3fbefc8" x="90" y="257.595112" style="stroke: #000000; stroke-width: 0.8"/>
      </g>
     </g>
     <g id="text_13">
      <!-- 3 -->
      <g transform="translate(76.6375 261.394331) scale(0.1 -0.1)">
       <use xlink:href="#DejaVuSans-33"/>
      </g>
     </g>
    </g>
    <g id="ytick_5">
     <g id="line2d_13">
      <g>
       <use xlink:href="#mfbd3fbefc8" x="90" y="215.30015" style="stroke: #000000; stroke-width: 0.8"/>
      </g>
     </g>
     <g id="text_14">
      <!-- 4 -->
      <g transform="translate(76.6375 219.099368) scale(0.1 -0.1)">
       <defs>
        <path id="DejaVuSans-34" d="M 2419 4116 
L 825 1625 
L 2419 1625 
L 2419 4116 
z
M 2253 4666 
L 3047 4666 
L 3047 1625 
L 3713 1625 
L 3713 1100 
L 3047 1100 
L 3047 0 
L 2419 0 
L 2419 1100 
L 313 1100 
L 313 1709 
L 2253 4666 
z
" transform="scale(0.015625)"/>
       </defs>
       <use xlink:href="#DejaVuSans-34"/>
      </g>
     </g>
    </g>
    <g id="ytick_6">
     <g id="line2d_14">
      <g>
       <use xlink:href="#mfbd3fbefc8" x="90" y="173.005187" style="stroke: #000000; stroke-width: 0.8"/>
      </g>
     </g>
     <g id="text_15">
      <!-- 5 -->
      <g transform="translate(76.6375 176.804406) scale(0.1 -0.1)">
       <use xlink:href="#DejaVuSans-35"/>
      </g>
     </g>
    </g>
    <g id="ytick_7">
     <g id="line2d_15">
      <g>
       <use xlink:href="#mfbd3fbefc8" x="90" y="130.710224" style="stroke: #000000; stroke-width: 0.8"/>
      </g>
     </g>
     <g id="text_16">
      <!-- 6 -->
      <g transform="translate(76.6375 134.509443) scale(0.1 -0.1)">
       <defs>
        <path id="DejaVuSans-36" d="M 2113 2584 
Q 1688 2584 1439 2293 
Q 1191 2003 1191 1497 
Q 1191 994 1439 701 
Q 1688 409 2113 409 
Q 2538 409 2786 701 
Q 3034 994 3034 1497 
Q 3034 2003 2786 2293 
Q 2538 2584 2113 2584 
z
M 3366 4563 
L 3366 3988 
Q 3128 4100 2886 4159 
Q 2644 4219 2406 4219 
Q 1781 4219 1451 3797 
Q 1122 3375 1075 2522 
Q 1259 2794 1537 2939 
Q 1816 3084 2150 3084 
Q 2853 3084 3261 2657 
Q 3669 2231 3669 1497 
Q 3669 778 3244 343 
Q 2819 -91 2113 -91 
Q 1303 -91 875 529 
Q 447 1150 447 2328 
Q 447 3434 972 4092 
Q 1497 4750 2381 4750 
Q 2619 4750 2861 4703 
Q 3103 4656 3366 4563 
z
" transform="scale(0.015625)"/>
       </defs>
       <use xlink:href="#DejaVuSans-36"/>
      </g>
     </g>
    </g>
    <g id="ytick_8">
     <g id="line2d_16">
      <g>
       <use xlink:href="#mfbd3fbefc8" x="90" y="88.415262" style="stroke: #000000; stroke-width: 0.8"/>
      </g>
     </g>
     <g id="text_17">
      <!-- 7 -->
      <g transform="translate(76.6375 92.21448) scale(0.1 -0.1)">
       <defs>
        <path id="DejaVuSans-37" d="M 525 4666 
L 3525 4666 
L 3525 4397 
L 1831 0 
L 1172 0 
L 2766 4134 
L 525 4134 
L 525 4666 
z
" transform="scale(0.015625)"/>
       </defs>
       <use xlink:href="#DejaVuSans-37"/>
      </g>
     </g>
    </g>
    <g id="text_18">
     <!-- Density -->
     <g transform="translate(70.557812 237.168594) rotate(-90) scale(0.1 -0.1)">
      <defs>
       <path id="DejaVuSans-79" d="M 2059 -325 
Q 1816 -950 1584 -1140 
Q 1353 -1331 966 -1331 
L 506 -1331 
L 506 -850 
L 844 -850 
Q 1081 -850 1212 -737 
Q 1344 -625 1503 -206 
L 1606 56 
L 191 3500 
L 800 3500 
L 1894 763 
L 2988 3500 
L 3597 3500 
L 2059 -325 
z
" transform="scale(0.015625)"/>
      </defs>
      <use xlink:href="#DejaVuSans-44"/>
      <use xlink:href="#DejaVuSans-65" x="77.001953"/>
      <use xlink:href="#DejaVuSans-6e" x="138.525391"/>
      <use xlink:href="#DejaVuSans-73" x="201.904297"/>
      <use xlink:href="#DejaVuSans-69" x="254.003906"/>
      <use xlink:href="#DejaVuSans-74" x="281.787109"/>
      <use xlink:href="#DejaVuSans-79" x="320.996094"/>
     </g>
    </g>
    <g id="text_19">
     <!-- 1e−5 -->
     <g transform="translate(90 48.84) scale(0.1 -0.1)">
      <defs>
       <path id="DejaVuSans-2212" d="M 678 2272 
L 4684 2272 
L 4684 1741 
L 678 1741 
L 678 2272 
z
" transform="scale(0.015625)"/>
      </defs>
      <use xlink:href="#DejaVuSans-31"/>
      <use xlink:href="#DejaVuSans-65" x="63.623047"/>
      <use xlink:href="#DejaVuSans-2212" x="125.146484"/>
      <use xlink:href="#DejaVuSans-35" x="208.935547"/>
     </g>
    </g>
   </g>
   <g id="patch_3">
    <path d="M 90 384.48 
L 90 51.84 
" style="fill: none; stroke: #000000; stroke-width: 0.8; stroke-linejoin: miter; stroke-linecap: square"/>
   </g>
   <g id="patch_4">
    <path d="M 648 384.48 
L 648 51.84 
" style="fill: none; stroke: #000000; stroke-width: 0.8; stroke-linejoin: miter; stroke-linecap: square"/>
   </g>
   <g id="patch_5">
    <path d="M 90 384.48 
L 648 384.48 
" style="fill: none; stroke: #000000; stroke-width: 0.8; stroke-linejoin: miter; stroke-linecap: square"/>
   </g>
   <g id="patch_6">
    <path d="M 90 51.84 
L 648 51.84 
" style="fill: none; stroke: #000000; stroke-width: 0.8; stroke-linejoin: miter; stroke-linecap: square"/>
   </g>
   <g id="text_20">
    <!-- Distribution of Distances - No model -->
    <g transform="translate(260.310938 45.84) scale(0.12 -0.12)">
     <defs>
      <path id="DejaVuSans-72" d="M 2631 2963 
Q 2534 3019 2420 3045 
Q 2306 3072 2169 3072 
Q 1681 3072 1420 2755 
Q 1159 2438 1159 1844 
L 1159 0 
L 581 0 
L 581 3500 
L 1159 3500 
L 1159 2956 
Q 1341 3275 1631 3429 
Q 1922 3584 2338 3584 
Q 2397 3584 2469 3576 
Q 2541 3569 2628 3553 
L 2631 2963 
z
" transform="scale(0.015625)"/>
      <path id="DejaVuSans-62" d="M 3116 1747 
Q 3116 2381 2855 2742 
Q 2594 3103 2138 3103 
Q 1681 3103 1420 2742 
Q 1159 2381 1159 1747 
Q 1159 1113 1420 752 
Q 1681 391 2138 391 
Q 2594 391 2855 752 
Q 3116 1113 3116 1747 
z
M 1159 2969 
Q 1341 3281 1617 3432 
Q 1894 3584 2278 3584 
Q 2916 3584 3314 3078 
Q 3713 2572 3713 1747 
Q 3713 922 3314 415 
Q 2916 -91 2278 -91 
Q 1894 -91 1617 61 
Q 1341 213 1159 525 
L 1159 0 
L 581 0 
L 581 4863 
L 1159 4863 
L 1159 2969 
z
" transform="scale(0.015625)"/>
      <path id="DejaVuSans-75" d="M 544 1381 
L 544 3500 
L 1119 3500 
L 1119 1403 
Q 1119 906 1312 657 
Q 1506 409 1894 409 
Q 2359 409 2629 706 
Q 2900 1003 2900 1516 
L 2900 3500 
L 3475 3500 
L 3475 0 
L 2900 0 
L 2900 538 
Q 2691 219 2414 64 
Q 2138 -91 1772 -91 
Q 1169 -91 856 284 
Q 544 659 544 1381 
z
M 1991 3584 
L 1991 3584 
z
" transform="scale(0.015625)"/>
      <path id="DejaVuSans-6f" d="M 1959 3097 
Q 1497 3097 1228 2736 
Q 959 2375 959 1747 
Q 959 1119 1226 758 
Q 1494 397 1959 397 
Q 2419 397 2687 759 
Q 2956 1122 2956 1747 
Q 2956 2369 2687 2733 
Q 2419 3097 1959 3097 
z
M 1959 3584 
Q 2709 3584 3137 3096 
Q 3566 2609 3566 1747 
Q 3566 888 3137 398 
Q 2709 -91 1959 -91 
Q 1206 -91 779 398 
Q 353 888 353 1747 
Q 353 2609 779 3096 
Q 1206 3584 1959 3584 
z
" transform="scale(0.015625)"/>
      <path id="DejaVuSans-20" transform="scale(0.015625)"/>
      <path id="DejaVuSans-66" d="M 2375 4863 
L 2375 4384 
L 1825 4384 
Q 1516 4384 1395 4259 
Q 1275 4134 1275 3809 
L 1275 3500 
L 2222 3500 
L 2222 3053 
L 1275 3053 
L 1275 0 
L 697 0 
L 697 3053 
L 147 3053 
L 147 3500 
L 697 3500 
L 697 3744 
Q 697 4328 969 4595 
Q 1241 4863 1831 4863 
L 2375 4863 
z
" transform="scale(0.015625)"/>
      <path id="DejaVuSans-2d" d="M 313 2009 
L 1997 2009 
L 1997 1497 
L 313 1497 
L 313 2009 
z
" transform="scale(0.015625)"/>
      <path id="DejaVuSans-4e" d="M 628 4666 
L 1478 4666 
L 3547 763 
L 3547 4666 
L 4159 4666 
L 4159 0 
L 3309 0 
L 1241 3903 
L 1241 0 
L 628 0 
L 628 4666 
z
" transform="scale(0.015625)"/>
      <path id="DejaVuSans-6d" d="M 3328 2828 
Q 3544 3216 3844 3400 
Q 4144 3584 4550 3584 
Q 5097 3584 5394 3201 
Q 5691 2819 5691 2113 
L 5691 0 
L 5113 0 
L 5113 2094 
Q 5113 2597 4934 2840 
Q 4756 3084 4391 3084 
Q 3944 3084 3684 2787 
Q 3425 2491 3425 1978 
L 3425 0 
L 2847 0 
L 2847 2094 
Q 2847 2600 2669 2842 
Q 2491 3084 2119 3084 
Q 1678 3084 1418 2786 
Q 1159 2488 1159 1978 
L 1159 0 
L 581 0 
L 581 3500 
L 1159 3500 
L 1159 2956 
Q 1356 3278 1631 3431 
Q 1906 3584 2284 3584 
Q 2666 3584 2933 3390 
Q 3200 3197 3328 2828 
z
" transform="scale(0.015625)"/>
      <path id="DejaVuSans-64" d="M 2906 2969 
L 2906 4863 
L 3481 4863 
L 3481 0 
L 2906 0 
L 2906 525 
Q 2725 213 2448 61 
Q 2172 -91 1784 -91 
Q 1150 -91 751 415 
Q 353 922 353 1747 
Q 353 2572 751 3078 
Q 1150 3584 1784 3584 
Q 2172 3584 2448 3432 
Q 2725 3281 2906 2969 
z
M 947 1747 
Q 947 1113 1208 752 
Q 1469 391 1925 391 
Q 2381 391 2643 752 
Q 2906 1113 2906 1747 
Q 2906 2381 2643 2742 
Q 2381 3103 1925 3103 
Q 1469 3103 1208 2742 
Q 947 2381 947 1747 
z
" transform="scale(0.015625)"/>
      <path id="DejaVuSans-6c" d="M 603 4863 
L 1178 4863 
L 1178 0 
L 603 0 
L 603 4863 
z
" transform="scale(0.015625)"/>
     </defs>
     <use xlink:href="#DejaVuSans-44"/>
     <use xlink:href="#DejaVuSans-69" x="77.001953"/>
     <use xlink:href="#DejaVuSans-73" x="104.785156"/>
     <use xlink:href="#DejaVuSans-74" x="156.884766"/>
     <use xlink:href="#DejaVuSans-72" x="196.09375"/>
     <use xlink:href="#DejaVuSans-69" x="237.207031"/>
     <use xlink:href="#DejaVuSans-62" x="264.990234"/>
     <use xlink:href="#DejaVuSans-75" x="328.466797"/>
     <use xlink:href="#DejaVuSans-74" x="391.845703"/>
     <use xlink:href="#DejaVuSans-69" x="431.054688"/>
     <use xlink:href="#DejaVuSans-6f" x="458.837891"/>
     <use xlink:href="#DejaVuSans-6e" x="520.019531"/>
     <use xlink:href="#DejaVuSans-20" x="583.398438"/>
     <use xlink:href="#DejaVuSans-6f" x="615.185547"/>
     <use xlink:href="#DejaVuSans-66" x="676.367188"/>
     <use xlink:href="#DejaVuSans-20" x="711.572266"/>
     <use xlink:href="#DejaVuSans-44" x="743.359375"/>
     <use xlink:href="#DejaVuSans-69" x="820.361328"/>
     <use xlink:href="#DejaVuSans-73" x="848.144531"/>
     <use xlink:href="#DejaVuSans-74" x="900.244141"/>
     <use xlink:href="#DejaVuSans-61" x="939.453125"/>
     <use xlink:href="#DejaVuSans-6e" x="1000.732422"/>
     <use xlink:href="#DejaVuSans-63" x="1064.111328"/>
     <use xlink:href="#DejaVuSans-65" x="1119.091797"/>
     <use xlink:href="#DejaVuSans-73" x="1180.615234"/>
     <use xlink:href="#DejaVuSans-20" x="1232.714844"/>
     <use xlink:href="#DejaVuSans-2d" x="1264.501953"/>
     <use xlink:href="#DejaVuSans-20" x="1300.585938"/>
     <use xlink:href="#DejaVuSans-4e" x="1332.373047"/>
     <use xlink:href="#DejaVuSans-6f" x="1407.177734"/>
     <use xlink:href="#DejaVuSans-20" x="1468.359375"/>
     <use xlink:href="#DejaVuSans-6d" x="1500.146484"/>
     <use xlink:href="#DejaVuSans-6f" x="1597.558594"/>
     <use xlink:href="#DejaVuSans-64" x="1658.740234"/>
     <use xlink:href="#DejaVuSans-65" x="1722.216797"/>
     <use xlink:href="#DejaVuSans-6c" x="1783.740234"/>
    </g>
   </g>
   <g id="legend_1">
    <g id="patch_7">
     <path d="M 510.13125 89.19625 
L 641 89.19625 
Q 643 89.19625 643 87.19625 
L 643 58.84 
Q 643 56.84 641 56.84 
L 510.13125 56.84 
Q 508.13125 56.84 508.13125 58.84 
L 508.13125 87.19625 
Q 508.13125 89.19625 510.13125 89.19625 
z
" style="fill: #ffffff; opacity: 0.8; stroke: #cccccc; stroke-linejoin: miter"/>
    </g>
    <g id="patch_8">
     <path d="M 512.13125 68.438437 
L 532.13125 68.438437 
L 532.13125 61.438437 
L 512.13125 61.438437 
z
" style="fill: #1f77b4; fill-opacity: 0.25; stroke: #1f77b4; stroke-linejoin: miter"/>
    </g>
    <g id="text_21">
     <!-- Same Structure -->
     <g transform="translate(540.13125 68.438437) scale(0.1 -0.1)">
      <defs>
       <path id="DejaVuSans-53" d="M 3425 4513 
L 3425 3897 
Q 3066 4069 2747 4153 
Q 2428 4238 2131 4238 
Q 1616 4238 1336 4038 
Q 1056 3838 1056 3469 
Q 1056 3159 1242 3001 
Q 1428 2844 1947 2747 
L 2328 2669 
Q 3034 2534 3370 2195 
Q 3706 1856 3706 1288 
Q 3706 609 3251 259 
Q 2797 -91 1919 -91 
Q 1588 -91 1214 -16 
Q 841 59 441 206 
L 441 856 
Q 825 641 1194 531 
Q 1563 422 1919 422 
Q 2459 422 2753 634 
Q 3047 847 3047 1241 
Q 3047 1584 2836 1778 
Q 2625 1972 2144 2069 
L 1759 2144 
Q 1053 2284 737 2584 
Q 422 2884 422 3419 
Q 422 4038 858 4394 
Q 1294 4750 2059 4750 
Q 2388 4750 2728 4690 
Q 3069 4631 3425 4513 
z
" transform="scale(0.015625)"/>
      </defs>
      <use xlink:href="#DejaVuSans-53"/>
      <use xlink:href="#DejaVuSans-61" x="63.476562"/>
      <use xlink:href="#DejaVuSans-6d" x="124.755859"/>
      <use xlink:href="#DejaVuSans-65" x="222.167969"/>
      <use xlink:href="#DejaVuSans-20" x="283.691406"/>
      <use xlink:href="#DejaVuSans-53" x="315.478516"/>
      <use xlink:href="#DejaVuSans-74" x="378.955078"/>
      <use xlink:href="#DejaVuSans-72" x="418.164062"/>
      <use xlink:href="#DejaVuSans-75" x="459.277344"/>
      <use xlink:href="#DejaVuSans-63" x="522.65625"/>
      <use xlink:href="#DejaVuSans-74" x="577.636719"/>
      <use xlink:href="#DejaVuSans-75" x="616.845703"/>
      <use xlink:href="#DejaVuSans-72" x="680.224609"/>
      <use xlink:href="#DejaVuSans-65" x="719.087891"/>
     </g>
    </g>
    <g id="patch_9">
     <path d="M 512.13125 83.116562 
L 532.13125 83.116562 
L 532.13125 76.116562 
L 512.13125 76.116562 
z
" style="fill: #ff7f0e; fill-opacity: 0.25; stroke: #ff7f0e; stroke-linejoin: miter"/>
    </g>
    <g id="text_22">
     <!-- Different Structures -->
     <g transform="translate(540.13125 83.116562) scale(0.1 -0.1)">
      <use xlink:href="#DejaVuSans-44"/>
      <use xlink:href="#DejaVuSans-69" x="77.001953"/>
      <use xlink:href="#DejaVuSans-66" x="104.785156"/>
      <use xlink:href="#DejaVuSans-66" x="139.990234"/>
      <use xlink:href="#DejaVuSans-65" x="175.195312"/>
      <use xlink:href="#DejaVuSans-72" x="236.71875"/>
      <use xlink:href="#DejaVuSans-65" x="275.582031"/>
      <use xlink:href="#DejaVuSans-6e" x="337.105469"/>
      <use xlink:href="#DejaVuSans-74" x="400.484375"/>
      <use xlink:href="#DejaVuSans-20" x="439.693359"/>
      <use xlink:href="#DejaVuSans-53" x="471.480469"/>
      <use xlink:href="#DejaVuSans-74" x="534.957031"/>
      <use xlink:href="#DejaVuSans-72" x="574.166016"/>
      <use xlink:href="#DejaVuSans-75" x="615.279297"/>
      <use xlink:href="#DejaVuSans-63" x="678.658203"/>
      <use xlink:href="#DejaVuSans-74" x="733.638672"/>
      <use xlink:href="#DejaVuSans-75" x="772.847656"/>
      <use xlink:href="#DejaVuSans-72" x="836.226562"/>
      <use xlink:href="#DejaVuSans-65" x="875.089844"/>
      <use xlink:href="#DejaVuSans-73" x="936.613281"/>
     </g>
    </g>
   </g>
  </g>
 </g>
 <defs>
  <clipPath id="p61b241d325">
   <rect x="90" y="51.84" width="558" height="332.64"/>
  </clipPath>
 </defs>
</svg>
