<?xml version="1.0" encoding="utf-8" standalone="no"?>
<!DOCTYPE svg PUBLIC "-//W3C//DTD SVG 1.1//EN"
  "http://www.w3.org/Graphics/SVG/1.1/DTD/svg11.dtd">
<svg xmlns:xlink="http://www.w3.org/1999/xlink" width="720pt" height="432pt" viewBox="0 0 720 432" xmlns="http://www.w3.org/2000/svg" version="1.1">
 <metadata>
  <rdf:RDF xmlns:dc="http://purl.org/dc/elements/1.1/" xmlns:cc="http://creativecommons.org/ns#" xmlns:rdf="http://www.w3.org/1999/02/22-rdf-syntax-ns#">
   <cc:Work>
    <dc:type rdf:resource="http://purl.org/dc/dcmitype/StillImage"/>
    <dc:date>2024-03-11T09:09:37.543728</dc:date>
    <dc:format>image/svg+xml</dc:format>
    <dc:creator>
     <cc:Agent>
      <dc:title>Matplotlib v3.8.2, https://matplotlib.org/</dc:title>
     </cc:Agent>
    </dc:creator>
   </cc:Work>
  </rdf:RDF>
 </metadata>
 <defs>
  <style type="text/css">*{stroke-linejoin: round; stroke-linecap: butt}</style>
 </defs>
 <g id="figure_1">
  <g id="patch_1">
   <path d="M 0 432 
L 720 432 
L 720 0 
L 0 0 
z
" style="fill: #ffffff"/>
  </g>
  <g id="axes_1">
   <g id="patch_2">
    <path d="M 90 384.48 
L 648 384.48 
L 648 51.84 
L 90 51.84 
z
" style="fill: #ffffff"/>
   </g>
   <g id="PolyCollection_1">
    <defs>
     <path id="mf2d3e780b8" d="M 115.363636 -110.460749 
L 115.363636 -47.52 
L 116.373357 -47.52 
L 117.383078 -47.52 
L 118.392799 -47.52 
L 119.40252 -47.52 
L 120.412241 -47.52 
L 121.421962 -47.52 
L 122.431683 -47.52 
L 123.441404 -47.52 
L 124.451125 -47.52 
L 125.460846 -47.52 
L 126.470567 -47.52 
L 127.480288 -47.52 
L 128.490009 -47.52 
L 129.49973 -47.52 
L 130.509451 -47.52 
L 131.519172 -47.52 
L 132.528893 -47.52 
L 133.538614 -47.52 
L 134.548335 -47.52 
L 135.558056 -47.52 
L 136.567777 -47.52 
L 137.577498 -47.52 
L 138.587218 -47.52 
L 139.596939 -47.52 
L 140.60666 -47.52 
L 141.616381 -47.52 
L 142.626102 -47.52 
L 143.635823 -47.52 
L 144.645544 -47.52 
L 145.655265 -47.52 
L 146.664986 -47.52 
L 147.674707 -47.52 
L 148.684428 -47.52 
L 149.694149 -47.52 
L 150.70387 -47.52 
L 151.713591 -47.52 
L 152.723312 -47.52 
L 153.733033 -47.52 
L 154.742754 -47.52 
L 155.752475 -47.52 
L 156.762196 -47.52 
L 157.771917 -47.52 
L 158.781638 -47.52 
L 159.791359 -47.52 
L 160.80108 -47.52 
L 161.810801 -47.52 
L 162.820522 -47.52 
L 163.830242 -47.52 
L 164.839963 -47.52 
L 165.849684 -47.52 
L 166.859405 -47.52 
L 167.869126 -47.52 
L 168.878847 -47.52 
L 169.888568 -47.52 
L 170.898289 -47.52 
L 171.90801 -47.52 
L 172.917731 -47.52 
L 173.927452 -47.52 
L 174.937173 -47.52 
L 175.946894 -47.52 
L 176.956615 -47.52 
L 177.966336 -47.52 
L 178.976057 -47.52 
L 179.985778 -47.52 
L 180.995499 -47.52 
L 182.00522 -47.52 
L 183.014941 -47.52 
L 184.024662 -47.52 
L 185.034383 -47.52 
L 186.044104 -47.52 
L 187.053825 -47.52 
L 188.063546 -47.52 
L 189.073267 -47.52 
L 190.082987 -47.52 
L 191.092708 -47.52 
L 192.102429 -47.52 
L 193.11215 -47.52 
L 194.121871 -47.52 
L 195.131592 -47.52 
L 196.141313 -47.52 
L 197.151034 -47.52 
L 198.160755 -47.52 
L 199.170476 -47.52 
L 200.180197 -47.52 
L 201.189918 -47.52 
L 202.199639 -47.52 
L 203.20936 -47.52 
L 204.219081 -47.52 
L 205.228802 -47.52 
L 206.238523 -47.52 
L 207.248244 -47.52 
L 208.257965 -47.52 
L 209.267686 -47.52 
L 210.277407 -47.52 
L 211.287128 -47.52 
L 212.296849 -47.52 
L 213.30657 -47.52 
L 214.316291 -47.52 
L 215.326012 -47.52 
L 216.335732 -47.52 
L 217.345453 -47.52 
L 218.355174 -47.52 
L 219.364895 -47.52 
L 220.374616 -47.52 
L 221.384337 -47.52 
L 222.394058 -47.52 
L 223.403779 -47.52 
L 224.4135 -47.52 
L 225.423221 -47.52 
L 226.432942 -47.52 
L 227.442663 -47.52 
L 228.452384 -47.52 
L 229.462105 -47.52 
L 230.471826 -47.52 
L 231.481547 -47.52 
L 232.491268 -47.52 
L 233.500989 -47.52 
L 234.51071 -47.52 
L 235.520431 -47.52 
L 236.530152 -47.52 
L 237.539873 -47.52 
L 238.549594 -47.52 
L 239.559315 -47.52 
L 240.569036 -47.52 
L 241.578757 -47.52 
L 242.588477 -47.52 
L 243.598198 -47.52 
L 244.607919 -47.52 
L 245.61764 -47.52 
L 246.627361 -47.52 
L 247.637082 -47.52 
L 248.646803 -47.52 
L 249.656524 -47.52 
L 250.666245 -47.52 
L 251.675966 -47.52 
L 252.685687 -47.52 
L 253.695408 -47.52 
L 254.705129 -47.52 
L 255.71485 -47.52 
L 256.724571 -47.52 
L 257.734292 -47.52 
L 258.744013 -47.52 
L 259.753734 -47.52 
L 260.763455 -47.52 
L 261.773176 -47.52 
L 262.782897 -47.52 
L 263.792618 -47.52 
L 264.802339 -47.52 
L 265.81206 -47.52 
L 266.821781 -47.52 
L 267.831501 -47.52 
L 268.841222 -47.52 
L 269.850943 -47.52 
L 270.860664 -47.52 
L 271.870385 -47.52 
L 272.880106 -47.52 
L 273.889827 -47.52 
L 274.899548 -47.52 
L 275.909269 -47.52 
L 276.91899 -47.52 
L 277.928711 -47.52 
L 278.938432 -47.52 
L 279.948153 -47.52 
L 280.957874 -47.52 
L 281.967595 -47.52 
L 282.977316 -47.52 
L 283.987037 -47.52 
L 284.996758 -47.52 
L 286.006479 -47.52 
L 287.0162 -47.52 
L 288.025921 -47.52 
L 289.035642 -47.52 
L 290.045363 -47.52 
L 291.055084 -47.52 
L 292.064805 -47.52 
L 293.074526 -47.52 
L 294.084246 -47.52 
L 295.093967 -47.52 
L 296.103688 -47.52 
L 297.113409 -47.52 
L 298.12313 -47.52 
L 299.132851 -47.52 
L 300.142572 -47.52 
L 301.152293 -47.52 
L 302.162014 -47.52 
L 303.171735 -47.52 
L 304.181456 -47.52 
L 305.191177 -47.52 
L 306.200898 -47.52 
L 307.210619 -47.52 
L 308.22034 -47.52 
L 309.230061 -47.52 
L 310.239782 -47.52 
L 311.249503 -47.52 
L 312.259224 -47.52 
L 313.268945 -47.52 
L 314.278666 -47.52 
L 315.288387 -47.52 
L 316.298108 -47.52 
L 316.298108 -47.52076 
L 316.298108 -47.52076 
L 315.288387 -47.522499 
L 314.278666 -47.527132 
L 313.268945 -47.537772 
L 312.259224 -47.558944 
L 311.249503 -47.595613 
L 310.239782 -47.651109 
L 309.230061 -47.724741 
L 308.22034 -47.810721 
L 307.210619 -47.899701 
L 306.200898 -47.98227 
L 305.191177 -48.051615 
L 304.181456 -48.103253 
L 303.171735 -48.133519 
L 302.162014 -48.1408 
L 301.152293 -48.129745 
L 300.142572 -48.113065 
L 299.132851 -48.106385 
L 298.12313 -48.119614 
L 297.113409 -48.153168 
L 296.103688 -48.201961 
L 295.093967 -48.26121 
L 294.084246 -48.326945 
L 293.074526 -48.391589 
L 292.064805 -48.441736 
L 291.055084 -48.463755 
L 290.045363 -48.454261 
L 289.035642 -48.425249 
L 288.025921 -48.397331 
L 287.0162 -48.387047 
L 286.006479 -48.401064 
L 284.996758 -48.441256 
L 283.987037 -48.511463 
L 282.977316 -48.616962 
L 281.967595 -48.759742 
L 280.957874 -48.937925 
L 279.948153 -49.149208 
L 278.938432 -49.390441 
L 277.928711 -49.650761 
L 276.91899 -49.90663 
L 275.909269 -50.127883 
L 274.899548 -50.292531 
L 273.889827 -50.397833 
L 272.880106 -50.45818 
L 271.870385 -50.492843 
L 270.860664 -50.514665 
L 269.850943 -50.527302 
L 268.841222 -50.530013 
L 267.831501 -50.523809 
L 266.821781 -50.51332 
L 265.81206 -50.503527 
L 264.802339 -50.496067 
L 263.792618 -50.489835 
L 262.782897 -50.484325 
L 261.773176 -50.481499 
L 260.763455 -50.487462 
L 259.753734 -50.516766 
L 258.744013 -50.593179 
L 257.734292 -50.738488 
L 256.724571 -50.956277 
L 255.71485 -51.228799 
L 254.705129 -51.530852 
L 253.695408 -51.844387 
L 252.685687 -52.16116 
L 251.675966 -52.479252 
L 250.666245 -52.801827 
L 249.656524 -53.132849 
L 248.646803 -53.462706 
L 247.637082 -53.754033 
L 246.627361 -53.948809 
L 245.61764 -54.001942 
L 244.607919 -53.918147 
L 243.598198 -53.758884 
L 242.588477 -53.608634 
L 241.578757 -53.526207 
L 240.569036 -53.521578 
L 239.559315 -53.574544 
L 238.549594 -53.670804 
L 237.539873 -53.816694 
L 236.530152 -54.021156 
L 235.520431 -54.272104 
L 234.51071 -54.540491 
L 233.500989 -54.812169 
L 232.491268 -55.112699 
L 231.481547 -55.494258 
L 230.471826 -55.993916 
L 229.462105 -56.604295 
L 228.452384 -57.2854 
L 227.442663 -58.004744 
L 226.432942 -58.767266 
L 225.423221 -59.610197 
L 224.4135 -60.57185 
L 223.403779 -61.663924 
L 222.394058 -62.870211 
L 221.384337 -64.169845 
L 220.374616 -65.560435 
L 219.364895 -67.054576 
L 218.355174 -68.647518 
L 217.345453 -70.286744 
L 216.335732 -71.881758 
L 215.326012 -73.357948 
L 214.316291 -74.712688 
L 213.30657 -76.025971 
L 212.296849 -77.417953 
L 211.287128 -78.986249 
L 210.277407 -80.76003 
L 209.267686 -82.684751 
L 208.257965 -84.631289 
L 207.248244 -86.426043 
L 206.238523 -87.91072 
L 205.228802 -89.026744 
L 204.219081 -89.878366 
L 203.20936 -90.717727 
L 202.199639 -91.850362 
L 201.189918 -93.524388 
L 200.180197 -95.863573 
L 199.170476 -98.852186 
L 198.160755 -102.357475 
L 197.151034 -106.189444 
L 196.141313 -110.182123 
L 195.131592 -114.240208 
L 194.121871 -118.3137 
L 193.11215 -122.343536 
L 192.102429 -126.253563 
L 191.092708 -130.003369 
L 190.082987 -133.652223 
L 189.073267 -137.386284 
L 188.063546 -141.48743 
L 187.053825 -146.231301 
L 186.044104 -151.732792 
L 185.034383 -157.828497 
L 184.024662 -164.115987 
L 183.014941 -170.174976 
L 182.00522 -175.832989 
L 180.995499 -181.273903 
L 179.985778 -186.905653 
L 178.976057 -193.09654 
L 177.966336 -199.976969 
L 176.956615 -207.425227 
L 175.946894 -215.210044 
L 174.937173 -223.170464 
L 173.927452 -231.312026 
L 172.917731 -239.761935 
L 171.90801 -248.621208 
L 170.898289 -257.832213 
L 169.888568 -267.177267 
L 168.878847 -276.409897 
L 167.869126 -285.38422 
L 166.859405 -294.045402 
L 165.849684 -302.305736 
L 164.839963 -309.972934 
L 163.830242 -316.835415 
L 162.820522 -322.821886 
L 161.810801 -328.077015 
L 160.80108 -332.890584 
L 159.791359 -337.533913 
L 158.781638 -342.108286 
L 157.771917 -346.519889 
L 156.762196 -350.618365 
L 155.752475 -354.35823 
L 154.742754 -357.778534 
L 153.733033 -360.80711 
L 152.723312 -363.133605 
L 151.713591 -364.32 
L 150.70387 -364.032056 
L 149.694149 -362.171236 
L 148.684428 -358.853716 
L 147.674707 -354.336965 
L 146.664986 -348.954254 
L 145.655265 -343.023458 
L 144.645544 -336.71482 
L 143.635823 -329.941631 
L 142.626102 -322.350609 
L 141.616381 -313.431776 
L 140.60666 -302.709743 
L 139.596939 -289.935621 
L 138.587218 -275.179659 
L 137.577498 -258.781852 
L 136.567777 -241.224027 
L 135.558056 -223.008746 
L 134.548335 -204.557109 
L 133.538614 -186.125877 
L 132.528893 -167.81689 
L 131.519172 -149.729221 
L 130.509451 -132.14597 
L 129.49973 -115.568702 
L 128.490009 -100.551759 
L 127.480288 -87.48964 
L 126.470567 -76.53829 
L 125.460846 -67.691751 
L 124.451125 -60.896836 
L 123.441404 -56.132384 
L 122.431683 -53.518479 
L 121.421962 -53.52072 
L 120.412241 -57.079846 
L 119.40252 -65.239511 
L 118.392799 -78.010405 
L 117.383078 -93.044865 
L 116.373357 -105.559865 
L 115.363636 -110.460749 
z
" style="stroke: #1f77b4"/>
    </defs>
    <g clip-path="url(#p15d35665b2)">
     <use xlink:href="#mf2d3e780b8" x="0" y="432" style="fill: #1f77b4; fill-opacity: 0.25; stroke: #1f77b4"/>
    </g>
   </g>
   <g id="PolyCollection_2">
    <defs>
     <path id="m984396e9de" d="M 123.237257 -47.520026 
L 123.237257 -47.52 
L 125.7468 -47.52 
L 128.256343 -47.52 
L 130.765886 -47.52 
L 133.27543 -47.52 
L 135.784973 -47.52 
L 138.294516 -47.52 
L 140.80406 -47.52 
L 143.313603 -47.52 
L 145.823146 -47.52 
L 148.332689 -47.52 
L 150.842233 -47.52 
L 153.351776 -47.52 
L 155.861319 -47.52 
L 158.370862 -47.52 
L 160.880406 -47.52 
L 163.389949 -47.52 
L 165.899492 -47.52 
L 168.409035 -47.52 
L 170.918579 -47.52 
L 173.428122 -47.52 
L 175.937665 -47.52 
L 178.447208 -47.52 
L 180.956752 -47.52 
L 183.466295 -47.52 
L 185.975838 -47.52 
L 188.485381 -47.52 
L 190.994925 -47.52 
L 193.504468 -47.52 
L 196.014011 -47.52 
L 198.523554 -47.52 
L 201.033098 -47.52 
L 203.542641 -47.52 
L 206.052184 -47.52 
L 208.561727 -47.52 
L 211.071271 -47.52 
L 213.580814 -47.52 
L 216.090357 -47.52 
L 218.5999 -47.52 
L 221.109444 -47.52 
L 223.618987 -47.52 
L 226.12853 -47.52 
L 228.638073 -47.52 
L 231.147617 -47.52 
L 233.65716 -47.52 
L 236.166703 -47.52 
L 238.676246 -47.52 
L 241.18579 -47.52 
L 243.695333 -47.52 
L 246.204876 -47.52 
L 248.714419 -47.52 
L 251.223963 -47.52 
L 253.733506 -47.52 
L 256.243049 -47.52 
L 258.752592 -47.52 
L 261.262136 -47.52 
L 263.771679 -47.52 
L 266.281222 -47.52 
L 268.790765 -47.52 
L 271.300309 -47.52 
L 273.809852 -47.52 
L 276.319395 -47.52 
L 278.828938 -47.52 
L 281.338482 -47.52 
L 283.848025 -47.52 
L 286.357568 -47.52 
L 288.867111 -47.52 
L 291.376655 -47.52 
L 293.886198 -47.52 
L 296.395741 -47.52 
L 298.905284 -47.52 
L 301.414828 -47.52 
L 303.924371 -47.52 
L 306.433914 -47.52 
L 308.943457 -47.52 
L 311.453001 -47.52 
L 313.962544 -47.52 
L 316.472087 -47.52 
L 318.98163 -47.52 
L 321.491174 -47.52 
L 324.000717 -47.52 
L 326.51026 -47.52 
L 329.019803 -47.52 
L 331.529347 -47.52 
L 334.03889 -47.52 
L 336.548433 -47.52 
L 339.057976 -47.52 
L 341.56752 -47.52 
L 344.077063 -47.52 
L 346.586606 -47.52 
L 349.096149 -47.52 
L 351.605693 -47.52 
L 354.115236 -47.52 
L 356.624779 -47.52 
L 359.134322 -47.52 
L 361.643866 -47.52 
L 364.153409 -47.52 
L 366.662952 -47.52 
L 369.172495 -47.52 
L 371.682039 -47.52 
L 374.191582 -47.52 
L 376.701125 -47.52 
L 379.210668 -47.52 
L 381.720212 -47.52 
L 384.229755 -47.52 
L 386.739298 -47.52 
L 389.248841 -47.52 
L 391.758385 -47.52 
L 394.267928 -47.52 
L 396.777471 -47.52 
L 399.287014 -47.52 
L 401.796558 -47.52 
L 404.306101 -47.52 
L 406.815644 -47.52 
L 409.325187 -47.52 
L 411.834731 -47.52 
L 414.344274 -47.52 
L 416.853817 -47.52 
L 419.36336 -47.52 
L 421.872904 -47.52 
L 424.382447 -47.52 
L 426.89199 -47.52 
L 429.401533 -47.52 
L 431.911077 -47.52 
L 434.42062 -47.52 
L 436.930163 -47.52 
L 439.439706 -47.52 
L 441.94925 -47.52 
L 444.458793 -47.52 
L 446.968336 -47.52 
L 449.477879 -47.52 
L 451.987423 -47.52 
L 454.496966 -47.52 
L 457.006509 -47.52 
L 459.516052 -47.52 
L 462.025596 -47.52 
L 464.535139 -47.52 
L 467.044682 -47.52 
L 469.554225 -47.52 
L 472.063769 -47.52 
L 474.573312 -47.52 
L 477.082855 -47.52 
L 479.592398 -47.52 
L 482.101942 -47.52 
L 484.611485 -47.52 
L 487.121028 -47.52 
L 489.630571 -47.52 
L 492.140115 -47.52 
L 494.649658 -47.52 
L 497.159201 -47.52 
L 499.668744 -47.52 
L 502.178288 -47.52 
L 504.687831 -47.52 
L 507.197374 -47.52 
L 509.706917 -47.52 
L 512.216461 -47.52 
L 514.726004 -47.52 
L 517.235547 -47.52 
L 519.74509 -47.52 
L 522.254634 -47.52 
L 524.764177 -47.52 
L 527.27372 -47.52 
L 529.783263 -47.52 
L 532.292807 -47.52 
L 534.80235 -47.52 
L 537.311893 -47.52 
L 539.821436 -47.52 
L 542.33098 -47.52 
L 544.840523 -47.52 
L 547.350066 -47.52 
L 549.859609 -47.52 
L 552.369153 -47.52 
L 554.878696 -47.52 
L 557.388239 -47.52 
L 559.897782 -47.52 
L 562.407326 -47.52 
L 564.916869 -47.52 
L 567.426412 -47.52 
L 569.935955 -47.52 
L 572.445499 -47.52 
L 574.955042 -47.52 
L 577.464585 -47.52 
L 579.974128 -47.52 
L 582.483672 -47.52 
L 584.993215 -47.52 
L 587.502758 -47.52 
L 590.012301 -47.52 
L 592.521845 -47.52 
L 595.031388 -47.52 
L 597.540931 -47.52 
L 600.050474 -47.52 
L 602.560018 -47.52 
L 605.069561 -47.52 
L 607.579104 -47.52 
L 610.088647 -47.52 
L 612.598191 -47.52 
L 615.107734 -47.52 
L 617.617277 -47.52 
L 620.12682 -47.52 
L 622.636364 -47.52 
L 622.636364 -47.520012 
L 622.636364 -47.520012 
L 620.12682 -47.520141 
L 617.617277 -47.520633 
L 615.107734 -47.521122 
L 612.598191 -47.521055 
L 610.088647 -47.521125 
L 607.579104 -47.520973 
L 605.069561 -47.520576 
L 602.560018 -47.520888 
L 600.050474 -47.521592 
L 597.540931 -47.523639 
L 595.031388 -47.528949 
L 592.521845 -47.53463 
L 590.012301 -47.536921 
L 587.502758 -47.536799 
L 584.993215 -47.538824 
L 582.483672 -47.543043 
L 579.974128 -47.548466 
L 577.464585 -47.55576 
L 574.955042 -47.564184 
L 572.445499 -47.578006 
L 569.935955 -47.594629 
L 567.426412 -47.615827 
L 564.916869 -47.643461 
L 562.407326 -47.670958 
L 559.897782 -47.686046 
L 557.388239 -47.693146 
L 554.878696 -47.706964 
L 552.369153 -47.733645 
L 549.859609 -47.774006 
L 547.350066 -47.822025 
L 544.840523 -47.85579 
L 542.33098 -47.876524 
L 539.821436 -47.892102 
L 537.311893 -47.902459 
L 534.80235 -47.924512 
L 532.292807 -47.965365 
L 529.783263 -48.006212 
L 527.27372 -48.045547 
L 524.764177 -48.091317 
L 522.254634 -48.139853 
L 519.74509 -48.190073 
L 517.235547 -48.246522 
L 514.726004 -48.29563 
L 512.216461 -48.338974 
L 509.706917 -48.383825 
L 507.197374 -48.460879 
L 504.687831 -48.566237 
L 502.178288 -48.669471 
L 499.668744 -48.756024 
L 497.159201 -48.817514 
L 494.649658 -48.930548 
L 492.140115 -49.103035 
L 489.630571 -49.217769 
L 487.121028 -49.276537 
L 484.611485 -49.360094 
L 482.101942 -49.483997 
L 479.592398 -49.611627 
L 477.082855 -49.754512 
L 474.573312 -49.949552 
L 472.063769 -50.188006 
L 469.554225 -50.436653 
L 467.044682 -50.691909 
L 464.535139 -51.014536 
L 462.025596 -51.370396 
L 459.516052 -51.72698 
L 457.006509 -52.209345 
L 454.496966 -52.860443 
L 451.987423 -53.524107 
L 449.477879 -54.081292 
L 446.968336 -54.659536 
L 444.458793 -55.422332 
L 441.94925 -56.275753 
L 439.439706 -57.068939 
L 436.930163 -57.860567 
L 434.42062 -58.802852 
L 431.911077 -59.971453 
L 429.401533 -61.287613 
L 426.89199 -62.62328 
L 424.382447 -63.84067 
L 421.872904 -65.068054 
L 419.36336 -66.519983 
L 416.853817 -68.251918 
L 414.344274 -70.087138 
L 411.834731 -71.932706 
L 409.325187 -74.000496 
L 406.815644 -76.225417 
L 404.306101 -78.584552 
L 401.796558 -81.246962 
L 399.287014 -84.036059 
L 396.777471 -86.664839 
L 394.267928 -89.394506 
L 391.758385 -92.409718 
L 389.248841 -95.372835 
L 386.739298 -98.225969 
L 384.229755 -101.375852 
L 381.720212 -104.904901 
L 379.210668 -108.487552 
L 376.701125 -112.046345 
L 374.191582 -115.48205 
L 371.682039 -118.6458 
L 369.172495 -121.728496 
L 366.662952 -125.074019 
L 364.153409 -128.468458 
L 361.643866 -131.775997 
L 359.134322 -134.76793 
L 356.624779 -137.584503 
L 354.115236 -140.74655 
L 351.605693 -144.132362 
L 349.096149 -147.265728 
L 346.586606 -150.226715 
L 344.077063 -153.427132 
L 341.56752 -156.701823 
L 339.057976 -159.896618 
L 336.548433 -162.998173 
L 334.03889 -165.838453 
L 331.529347 -168.273139 
L 329.019803 -170.168151 
L 326.51026 -171.482081 
L 324.000717 -172.229795 
L 321.491174 -172.511712 
L 318.98163 -172.693394 
L 316.472087 -172.686634 
L 313.962544 -171.918775 
L 311.453001 -170.497037 
L 308.943457 -168.708178 
L 306.433914 -166.598519 
L 303.924371 -164.155796 
L 301.414828 -161.245569 
L 298.905284 -157.913446 
L 296.395741 -154.161853 
L 293.886198 -150.20363 
L 291.376655 -146.363884 
L 288.867111 -142.495938 
L 286.357568 -138.584669 
L 283.848025 -134.750123 
L 281.338482 -130.802998 
L 278.828938 -126.707156 
L 276.319395 -122.655141 
L 273.809852 -118.472743 
L 271.300309 -114.370375 
L 268.790765 -110.702568 
L 266.281222 -107.132916 
L 263.771679 -103.573143 
L 261.262136 -100.181073 
L 258.752592 -96.965349 
L 256.243049 -93.921963 
L 253.733506 -91.019872 
L 251.223963 -88.348728 
L 248.714419 -85.885783 
L 246.204876 -83.440863 
L 243.695333 -81.027168 
L 241.18579 -78.855737 
L 238.676246 -76.974601 
L 236.166703 -75.33725 
L 233.65716 -73.896462 
L 231.147617 -72.602494 
L 228.638073 -71.414528 
L 226.12853 -70.385057 
L 223.618987 -69.474916 
L 221.109444 -68.58615 
L 218.5999 -67.6469 
L 216.090357 -66.663946 
L 213.580814 -65.753765 
L 211.071271 -64.976726 
L 208.561727 -64.149362 
L 206.052184 -63.295069 
L 203.542641 -62.522318 
L 201.033098 -61.684851 
L 198.523554 -60.659642 
L 196.014011 -59.685663 
L 193.504468 -58.891139 
L 190.994925 -58.075722 
L 188.485381 -57.225981 
L 185.975838 -56.412338 
L 183.466295 -55.536266 
L 180.956752 -54.537583 
L 178.447208 -53.576461 
L 175.937665 -52.751157 
L 173.428122 -51.972374 
L 170.918579 -51.228322 
L 168.409035 -50.535002 
L 165.899492 -49.886572 
L 163.389949 -49.371962 
L 160.880406 -49.006391 
L 158.370862 -48.68551 
L 155.861319 -48.388007 
L 153.351776 -48.163737 
L 150.842233 -47.996405 
L 148.332689 -47.853559 
L 145.823146 -47.741553 
L 143.313603 -47.670798 
L 140.80406 -47.624203 
L 138.294516 -47.581912 
L 135.784973 -47.548616 
L 133.27543 -47.531996 
L 130.765886 -47.525506 
L 128.256343 -47.521923 
L 125.7468 -47.520341 
L 123.237257 -47.520026 
z
" style="stroke: #ff7f0e"/>
    </defs>
    <g clip-path="url(#p15d35665b2)">
     <use xlink:href="#m984396e9de" x="0" y="432" style="fill: #ff7f0e; fill-opacity: 0.25; stroke: #ff7f0e"/>
    </g>
   </g>
   <g id="matplotlib.axis_1">
    <g id="xtick_1">
     <g id="line2d_1">
      <defs>
       <path id="m7945e6e217" d="M 0 0 
L 0 3.5 
" style="stroke: #000000; stroke-width: 0.8"/>
      </defs>
      <g>
       <use xlink:href="#m7945e6e217" x="115.363636" y="384.48" style="stroke: #000000; stroke-width: 0.8"/>
      </g>
     </g>
     <g id="text_1">
      <!-- 0 -->
      <g transform="translate(112.182386 399.078438) scale(0.1 -0.1)">
       <defs>
        <path id="DejaVuSans-30" d="M 2034 4250 
Q 1547 4250 1301 3770 
Q 1056 3291 1056 2328 
Q 1056 1369 1301 889 
Q 1547 409 2034 409 
Q 2525 409 2770 889 
Q 3016 1369 3016 2328 
Q 3016 3291 2770 3770 
Q 2525 4250 2034 4250 
z
M 2034 4750 
Q 2819 4750 3233 4129 
Q 3647 3509 3647 2328 
Q 3647 1150 3233 529 
Q 2819 -91 2034 -91 
Q 1250 -91 836 529 
Q 422 1150 422 2328 
Q 422 3509 836 4129 
Q 1250 4750 2034 4750 
z
" transform="scale(0.015625)"/>
       </defs>
       <use xlink:href="#DejaVuSans-30"/>
      </g>
     </g>
    </g>
    <g id="xtick_2">
     <g id="line2d_2">
      <g>
       <use xlink:href="#m7945e6e217" x="187.377415" y="384.48" style="stroke: #000000; stroke-width: 0.8"/>
      </g>
     </g>
     <g id="text_2">
      <!-- 25 -->
      <g transform="translate(181.014915 399.078438) scale(0.1 -0.1)">
       <defs>
        <path id="DejaVuSans-32" d="M 1228 531 
L 3431 531 
L 3431 0 
L 469 0 
L 469 531 
Q 828 903 1448 1529 
Q 2069 2156 2228 2338 
Q 2531 2678 2651 2914 
Q 2772 3150 2772 3378 
Q 2772 3750 2511 3984 
Q 2250 4219 1831 4219 
Q 1534 4219 1204 4116 
Q 875 4013 500 3803 
L 500 4441 
Q 881 4594 1212 4672 
Q 1544 4750 1819 4750 
Q 2544 4750 2975 4387 
Q 3406 4025 3406 3419 
Q 3406 3131 3298 2873 
Q 3191 2616 2906 2266 
Q 2828 2175 2409 1742 
Q 1991 1309 1228 531 
z
" transform="scale(0.015625)"/>
        <path id="DejaVuSans-35" d="M 691 4666 
L 3169 4666 
L 3169 4134 
L 1269 4134 
L 1269 2991 
Q 1406 3038 1543 3061 
Q 1681 3084 1819 3084 
Q 2600 3084 3056 2656 
Q 3513 2228 3513 1497 
Q 3513 744 3044 326 
Q 2575 -91 1722 -91 
Q 1428 -91 1123 -41 
Q 819 9 494 109 
L 494 744 
Q 775 591 1075 516 
Q 1375 441 1709 441 
Q 2250 441 2565 725 
Q 2881 1009 2881 1497 
Q 2881 1984 2565 2268 
Q 2250 2553 1709 2553 
Q 1456 2553 1204 2497 
Q 953 2441 691 2322 
L 691 4666 
z
" transform="scale(0.015625)"/>
       </defs>
       <use xlink:href="#DejaVuSans-32"/>
       <use xlink:href="#DejaVuSans-35" x="63.623047"/>
      </g>
     </g>
    </g>
    <g id="xtick_3">
     <g id="line2d_3">
      <g>
       <use xlink:href="#m7945e6e217" x="259.391193" y="384.48" style="stroke: #000000; stroke-width: 0.8"/>
      </g>
     </g>
     <g id="text_3">
      <!-- 50 -->
      <g transform="translate(253.028693 399.078438) scale(0.1 -0.1)">
       <use xlink:href="#DejaVuSans-35"/>
       <use xlink:href="#DejaVuSans-30" x="63.623047"/>
      </g>
     </g>
    </g>
    <g id="xtick_4">
     <g id="line2d_4">
      <g>
       <use xlink:href="#m7945e6e217" x="331.404971" y="384.48" style="stroke: #000000; stroke-width: 0.8"/>
      </g>
     </g>
     <g id="text_4">
      <!-- 75 -->
      <g transform="translate(325.042471 399.078438) scale(0.1 -0.1)">
       <defs>
        <path id="DejaVuSans-37" d="M 525 4666 
L 3525 4666 
L 3525 4397 
L 1831 0 
L 1172 0 
L 2766 4134 
L 525 4134 
L 525 4666 
z
" transform="scale(0.015625)"/>
       </defs>
       <use xlink:href="#DejaVuSans-37"/>
       <use xlink:href="#DejaVuSans-35" x="63.623047"/>
      </g>
     </g>
    </g>
    <g id="xtick_5">
     <g id="line2d_5">
      <g>
       <use xlink:href="#m7945e6e217" x="403.41875" y="384.48" style="stroke: #000000; stroke-width: 0.8"/>
      </g>
     </g>
     <g id="text_5">
      <!-- 100 -->
      <g transform="translate(393.875 399.078438) scale(0.1 -0.1)">
       <defs>
        <path id="DejaVuSans-31" d="M 794 531 
L 1825 531 
L 1825 4091 
L 703 3866 
L 703 4441 
L 1819 4666 
L 2450 4666 
L 2450 531 
L 3481 531 
L 3481 0 
L 794 0 
L 794 531 
z
" transform="scale(0.015625)"/>
       </defs>
       <use xlink:href="#DejaVuSans-31"/>
       <use xlink:href="#DejaVuSans-30" x="63.623047"/>
       <use xlink:href="#DejaVuSans-30" x="127.246094"/>
      </g>
     </g>
    </g>
    <g id="xtick_6">
     <g id="line2d_6">
      <g>
       <use xlink:href="#m7945e6e217" x="475.432528" y="384.48" style="stroke: #000000; stroke-width: 0.8"/>
      </g>
     </g>
     <g id="text_6">
      <!-- 125 -->
      <g transform="translate(465.888778 399.078438) scale(0.1 -0.1)">
       <use xlink:href="#DejaVuSans-31"/>
       <use xlink:href="#DejaVuSans-32" x="63.623047"/>
       <use xlink:href="#DejaVuSans-35" x="127.246094"/>
      </g>
     </g>
    </g>
    <g id="xtick_7">
     <g id="line2d_7">
      <g>
       <use xlink:href="#m7945e6e217" x="547.446306" y="384.48" style="stroke: #000000; stroke-width: 0.8"/>
      </g>
     </g>
     <g id="text_7">
      <!-- 150 -->
      <g transform="translate(537.902556 399.078438) scale(0.1 -0.1)">
       <use xlink:href="#DejaVuSans-31"/>
       <use xlink:href="#DejaVuSans-35" x="63.623047"/>
       <use xlink:href="#DejaVuSans-30" x="127.246094"/>
      </g>
     </g>
    </g>
    <g id="xtick_8">
     <g id="line2d_8">
      <g>
       <use xlink:href="#m7945e6e217" x="619.460085" y="384.48" style="stroke: #000000; stroke-width: 0.8"/>
      </g>
     </g>
     <g id="text_8">
      <!-- 175 -->
      <g transform="translate(609.916335 399.078438) scale(0.1 -0.1)">
       <use xlink:href="#DejaVuSans-31"/>
       <use xlink:href="#DejaVuSans-37" x="63.623047"/>
       <use xlink:href="#DejaVuSans-35" x="127.246094"/>
      </g>
     </g>
    </g>
    <g id="text_9">
     <!-- Distance -->
     <g transform="translate(347.1375 412.756563) scale(0.1 -0.1)">
      <defs>
       <path id="DejaVuSans-44" d="M 1259 4147 
L 1259 519 
L 2022 519 
Q 2988 519 3436 956 
Q 3884 1394 3884 2338 
Q 3884 3275 3436 3711 
Q 2988 4147 2022 4147 
L 1259 4147 
z
M 628 4666 
L 1925 4666 
Q 3281 4666 3915 4102 
Q 4550 3538 4550 2338 
Q 4550 1131 3912 565 
Q 3275 0 1925 0 
L 628 0 
L 628 4666 
z
" transform="scale(0.015625)"/>
       <path id="DejaVuSans-69" d="M 603 3500 
L 1178 3500 
L 1178 0 
L 603 0 
L 603 3500 
z
M 603 4863 
L 1178 4863 
L 1178 4134 
L 603 4134 
L 603 4863 
z
" transform="scale(0.015625)"/>
       <path id="DejaVuSans-73" d="M 2834 3397 
L 2834 2853 
Q 2591 2978 2328 3040 
Q 2066 3103 1784 3103 
Q 1356 3103 1142 2972 
Q 928 2841 928 2578 
Q 928 2378 1081 2264 
Q 1234 2150 1697 2047 
L 1894 2003 
Q 2506 1872 2764 1633 
Q 3022 1394 3022 966 
Q 3022 478 2636 193 
Q 2250 -91 1575 -91 
Q 1294 -91 989 -36 
Q 684 19 347 128 
L 347 722 
Q 666 556 975 473 
Q 1284 391 1588 391 
Q 1994 391 2212 530 
Q 2431 669 2431 922 
Q 2431 1156 2273 1281 
Q 2116 1406 1581 1522 
L 1381 1569 
Q 847 1681 609 1914 
Q 372 2147 372 2553 
Q 372 3047 722 3315 
Q 1072 3584 1716 3584 
Q 2034 3584 2315 3537 
Q 2597 3491 2834 3397 
z
" transform="scale(0.015625)"/>
       <path id="DejaVuSans-74" d="M 1172 4494 
L 1172 3500 
L 2356 3500 
L 2356 3053 
L 1172 3053 
L 1172 1153 
Q 1172 725 1289 603 
Q 1406 481 1766 481 
L 2356 481 
L 2356 0 
L 1766 0 
Q 1100 0 847 248 
Q 594 497 594 1153 
L 594 3053 
L 172 3053 
L 172 3500 
L 594 3500 
L 594 4494 
L 1172 4494 
z
" transform="scale(0.015625)"/>
       <path id="DejaVuSans-61" d="M 2194 1759 
Q 1497 1759 1228 1600 
Q 959 1441 959 1056 
Q 959 750 1161 570 
Q 1363 391 1709 391 
Q 2188 391 2477 730 
Q 2766 1069 2766 1631 
L 2766 1759 
L 2194 1759 
z
M 3341 1997 
L 3341 0 
L 2766 0 
L 2766 531 
Q 2569 213 2275 61 
Q 1981 -91 1556 -91 
Q 1019 -91 701 211 
Q 384 513 384 1019 
Q 384 1609 779 1909 
Q 1175 2209 1959 2209 
L 2766 2209 
L 2766 2266 
Q 2766 2663 2505 2880 
Q 2244 3097 1772 3097 
Q 1472 3097 1187 3025 
Q 903 2953 641 2809 
L 641 3341 
Q 956 3463 1253 3523 
Q 1550 3584 1831 3584 
Q 2591 3584 2966 3190 
Q 3341 2797 3341 1997 
z
" transform="scale(0.015625)"/>
       <path id="DejaVuSans-6e" d="M 3513 2113 
L 3513 0 
L 2938 0 
L 2938 2094 
Q 2938 2591 2744 2837 
Q 2550 3084 2163 3084 
Q 1697 3084 1428 2787 
Q 1159 2491 1159 1978 
L 1159 0 
L 581 0 
L 581 3500 
L 1159 3500 
L 1159 2956 
Q 1366 3272 1645 3428 
Q 1925 3584 2291 3584 
Q 2894 3584 3203 3211 
Q 3513 2838 3513 2113 
z
" transform="scale(0.015625)"/>
       <path id="DejaVuSans-63" d="M 3122 3366 
L 3122 2828 
Q 2878 2963 2633 3030 
Q 2388 3097 2138 3097 
Q 1578 3097 1268 2742 
Q 959 2388 959 1747 
Q 959 1106 1268 751 
Q 1578 397 2138 397 
Q 2388 397 2633 464 
Q 2878 531 3122 666 
L 3122 134 
Q 2881 22 2623 -34 
Q 2366 -91 2075 -91 
Q 1284 -91 818 406 
Q 353 903 353 1747 
Q 353 2603 823 3093 
Q 1294 3584 2113 3584 
Q 2378 3584 2631 3529 
Q 2884 3475 3122 3366 
z
" transform="scale(0.015625)"/>
       <path id="DejaVuSans-65" d="M 3597 1894 
L 3597 1613 
L 953 1613 
Q 991 1019 1311 708 
Q 1631 397 2203 397 
Q 2534 397 2845 478 
Q 3156 559 3463 722 
L 3463 178 
Q 3153 47 2828 -22 
Q 2503 -91 2169 -91 
Q 1331 -91 842 396 
Q 353 884 353 1716 
Q 353 2575 817 3079 
Q 1281 3584 2069 3584 
Q 2775 3584 3186 3129 
Q 3597 2675 3597 1894 
z
M 3022 2063 
Q 3016 2534 2758 2815 
Q 2500 3097 2075 3097 
Q 1594 3097 1305 2825 
Q 1016 2553 972 2059 
L 3022 2063 
z
" transform="scale(0.015625)"/>
      </defs>
      <use xlink:href="#DejaVuSans-44"/>
      <use xlink:href="#DejaVuSans-69" x="77.001953"/>
      <use xlink:href="#DejaVuSans-73" x="104.785156"/>
      <use xlink:href="#DejaVuSans-74" x="156.884766"/>
      <use xlink:href="#DejaVuSans-61" x="196.09375"/>
      <use xlink:href="#DejaVuSans-6e" x="257.373047"/>
      <use xlink:href="#DejaVuSans-63" x="320.751953"/>
      <use xlink:href="#DejaVuSans-65" x="375.732422"/>
     </g>
    </g>
   </g>
   <g id="matplotlib.axis_2">
    <g id="ytick_1">
     <g id="line2d_9">
      <defs>
       <path id="m90f6b980be" d="M 0 0 
L -3.5 0 
" style="stroke: #000000; stroke-width: 0.8"/>
      </defs>
      <g>
       <use xlink:href="#m90f6b980be" x="90" y="384.48" style="stroke: #000000; stroke-width: 0.8"/>
      </g>
     </g>
     <g id="text_10">
      <!-- 0.00 -->
      <g transform="translate(60.734375 388.279219) scale(0.1 -0.1)">
       <defs>
        <path id="DejaVuSans-2e" d="M 684 794 
L 1344 794 
L 1344 0 
L 684 0 
L 684 794 
z
" transform="scale(0.015625)"/>
       </defs>
       <use xlink:href="#DejaVuSans-30"/>
       <use xlink:href="#DejaVuSans-2e" x="63.623047"/>
       <use xlink:href="#DejaVuSans-30" x="95.410156"/>
       <use xlink:href="#DejaVuSans-30" x="159.033203"/>
      </g>
     </g>
    </g>
    <g id="ytick_2">
     <g id="line2d_10">
      <g>
       <use xlink:href="#m90f6b980be" x="90" y="330.909231" style="stroke: #000000; stroke-width: 0.8"/>
      </g>
     </g>
     <g id="text_11">
      <!-- 0.01 -->
      <g transform="translate(60.734375 334.70845) scale(0.1 -0.1)">
       <use xlink:href="#DejaVuSans-30"/>
       <use xlink:href="#DejaVuSans-2e" x="63.623047"/>
       <use xlink:href="#DejaVuSans-30" x="95.410156"/>
       <use xlink:href="#DejaVuSans-31" x="159.033203"/>
      </g>
     </g>
    </g>
    <g id="ytick_3">
     <g id="line2d_11">
      <g>
       <use xlink:href="#m90f6b980be" x="90" y="277.338462" style="stroke: #000000; stroke-width: 0.8"/>
      </g>
     </g>
     <g id="text_12">
      <!-- 0.02 -->
      <g transform="translate(60.734375 281.13768) scale(0.1 -0.1)">
       <use xlink:href="#DejaVuSans-30"/>
       <use xlink:href="#DejaVuSans-2e" x="63.623047"/>
       <use xlink:href="#DejaVuSans-30" x="95.410156"/>
       <use xlink:href="#DejaVuSans-32" x="159.033203"/>
      </g>
     </g>
    </g>
    <g id="ytick_4">
     <g id="line2d_12">
      <g>
       <use xlink:href="#m90f6b980be" x="90" y="223.767693" style="stroke: #000000; stroke-width: 0.8"/>
      </g>
     </g>
     <g id="text_13">
      <!-- 0.03 -->
      <g transform="translate(60.734375 227.566911) scale(0.1 -0.1)">
       <defs>
        <path id="DejaVuSans-33" d="M 2597 2516 
Q 3050 2419 3304 2112 
Q 3559 1806 3559 1356 
Q 3559 666 3084 287 
Q 2609 -91 1734 -91 
Q 1441 -91 1130 -33 
Q 819 25 488 141 
L 488 750 
Q 750 597 1062 519 
Q 1375 441 1716 441 
Q 2309 441 2620 675 
Q 2931 909 2931 1356 
Q 2931 1769 2642 2001 
Q 2353 2234 1838 2234 
L 1294 2234 
L 1294 2753 
L 1863 2753 
Q 2328 2753 2575 2939 
Q 2822 3125 2822 3475 
Q 2822 3834 2567 4026 
Q 2313 4219 1838 4219 
Q 1578 4219 1281 4162 
Q 984 4106 628 3988 
L 628 4550 
Q 988 4650 1302 4700 
Q 1616 4750 1894 4750 
Q 2613 4750 3031 4423 
Q 3450 4097 3450 3541 
Q 3450 3153 3228 2886 
Q 3006 2619 2597 2516 
z
" transform="scale(0.015625)"/>
       </defs>
       <use xlink:href="#DejaVuSans-30"/>
       <use xlink:href="#DejaVuSans-2e" x="63.623047"/>
       <use xlink:href="#DejaVuSans-30" x="95.410156"/>
       <use xlink:href="#DejaVuSans-33" x="159.033203"/>
      </g>
     </g>
    </g>
    <g id="ytick_5">
     <g id="line2d_13">
      <g>
       <use xlink:href="#m90f6b980be" x="90" y="170.196923" style="stroke: #000000; stroke-width: 0.8"/>
      </g>
     </g>
     <g id="text_14">
      <!-- 0.04 -->
      <g transform="translate(60.734375 173.996142) scale(0.1 -0.1)">
       <defs>
        <path id="DejaVuSans-34" d="M 2419 4116 
L 825 1625 
L 2419 1625 
L 2419 4116 
z
M 2253 4666 
L 3047 4666 
L 3047 1625 
L 3713 1625 
L 3713 1100 
L 3047 1100 
L 3047 0 
L 2419 0 
L 2419 1100 
L 313 1100 
L 313 1709 
L 2253 4666 
z
" transform="scale(0.015625)"/>
       </defs>
       <use xlink:href="#DejaVuSans-30"/>
       <use xlink:href="#DejaVuSans-2e" x="63.623047"/>
       <use xlink:href="#DejaVuSans-30" x="95.410156"/>
       <use xlink:href="#DejaVuSans-34" x="159.033203"/>
      </g>
     </g>
    </g>
    <g id="ytick_6">
     <g id="line2d_14">
      <g>
       <use xlink:href="#m90f6b980be" x="90" y="116.626154" style="stroke: #000000; stroke-width: 0.8"/>
      </g>
     </g>
     <g id="text_15">
      <!-- 0.05 -->
      <g transform="translate(60.734375 120.425373) scale(0.1 -0.1)">
       <use xlink:href="#DejaVuSans-30"/>
       <use xlink:href="#DejaVuSans-2e" x="63.623047"/>
       <use xlink:href="#DejaVuSans-30" x="95.410156"/>
       <use xlink:href="#DejaVuSans-35" x="159.033203"/>
      </g>
     </g>
    </g>
    <g id="ytick_7">
     <g id="line2d_15">
      <g>
       <use xlink:href="#m90f6b980be" x="90" y="63.055385" style="stroke: #000000; stroke-width: 0.8"/>
      </g>
     </g>
     <g id="text_16">
      <!-- 0.06 -->
      <g transform="translate(60.734375 66.854604) scale(0.1 -0.1)">
       <defs>
        <path id="DejaVuSans-36" d="M 2113 2584 
Q 1688 2584 1439 2293 
Q 1191 2003 1191 1497 
Q 1191 994 1439 701 
Q 1688 409 2113 409 
Q 2538 409 2786 701 
Q 3034 994 3034 1497 
Q 3034 2003 2786 2293 
Q 2538 2584 2113 2584 
z
M 3366 4563 
L 3366 3988 
Q 3128 4100 2886 4159 
Q 2644 4219 2406 4219 
Q 1781 4219 1451 3797 
Q 1122 3375 1075 2522 
Q 1259 2794 1537 2939 
Q 1816 3084 2150 3084 
Q 2853 3084 3261 2657 
Q 3669 2231 3669 1497 
Q 3669 778 3244 343 
Q 2819 -91 2113 -91 
Q 1303 -91 875 529 
Q 447 1150 447 2328 
Q 447 3434 972 4092 
Q 1497 4750 2381 4750 
Q 2619 4750 2861 4703 
Q 3103 4656 3366 4563 
z
" transform="scale(0.015625)"/>
       </defs>
       <use xlink:href="#DejaVuSans-30"/>
       <use xlink:href="#DejaVuSans-2e" x="63.623047"/>
       <use xlink:href="#DejaVuSans-30" x="95.410156"/>
       <use xlink:href="#DejaVuSans-36" x="159.033203"/>
      </g>
     </g>
    </g>
    <g id="text_17">
     <!-- Density -->
     <g transform="translate(54.654687 237.168594) rotate(-90) scale(0.1 -0.1)">
      <defs>
       <path id="DejaVuSans-79" d="M 2059 -325 
Q 1816 -950 1584 -1140 
Q 1353 -1331 966 -1331 
L 506 -1331 
L 506 -850 
L 844 -850 
Q 1081 -850 1212 -737 
Q 1344 -625 1503 -206 
L 1606 56 
L 191 3500 
L 800 3500 
L 1894 763 
L 2988 3500 
L 3597 3500 
L 2059 -325 
z
" transform="scale(0.015625)"/>
      </defs>
      <use xlink:href="#DejaVuSans-44"/>
      <use xlink:href="#DejaVuSans-65" x="77.001953"/>
      <use xlink:href="#DejaVuSans-6e" x="138.525391"/>
      <use xlink:href="#DejaVuSans-73" x="201.904297"/>
      <use xlink:href="#DejaVuSans-69" x="254.003906"/>
      <use xlink:href="#DejaVuSans-74" x="281.787109"/>
      <use xlink:href="#DejaVuSans-79" x="320.996094"/>
     </g>
    </g>
   </g>
   <g id="patch_3">
    <path d="M 90 384.48 
L 90 51.84 
" style="fill: none; stroke: #000000; stroke-width: 0.8; stroke-linejoin: miter; stroke-linecap: square"/>
   </g>
   <g id="patch_4">
    <path d="M 648 384.48 
L 648 51.84 
" style="fill: none; stroke: #000000; stroke-width: 0.8; stroke-linejoin: miter; stroke-linecap: square"/>
   </g>
   <g id="patch_5">
    <path d="M 90 384.48 
L 648 384.48 
" style="fill: none; stroke: #000000; stroke-width: 0.8; stroke-linejoin: miter; stroke-linecap: square"/>
   </g>
   <g id="patch_6">
    <path d="M 90 51.84 
L 648 51.84 
" style="fill: none; stroke: #000000; stroke-width: 0.8; stroke-linejoin: miter; stroke-linecap: square"/>
   </g>
   <g id="text_18">
    <!-- Distribution of Distances - Unknown structures -->
    <g transform="translate(228.953438 45.84) scale(0.12 -0.12)">
     <defs>
      <path id="DejaVuSans-72" d="M 2631 2963 
Q 2534 3019 2420 3045 
Q 2306 3072 2169 3072 
Q 1681 3072 1420 2755 
Q 1159 2438 1159 1844 
L 1159 0 
L 581 0 
L 581 3500 
L 1159 3500 
L 1159 2956 
Q 1341 3275 1631 3429 
Q 1922 3584 2338 3584 
Q 2397 3584 2469 3576 
Q 2541 3569 2628 3553 
L 2631 2963 
z
" transform="scale(0.015625)"/>
      <path id="DejaVuSans-62" d="M 3116 1747 
Q 3116 2381 2855 2742 
Q 2594 3103 2138 3103 
Q 1681 3103 1420 2742 
Q 1159 2381 1159 1747 
Q 1159 1113 1420 752 
Q 1681 391 2138 391 
Q 2594 391 2855 752 
Q 3116 1113 3116 1747 
z
M 1159 2969 
Q 1341 3281 1617 3432 
Q 1894 3584 2278 3584 
Q 2916 3584 3314 3078 
Q 3713 2572 3713 1747 
Q 3713 922 3314 415 
Q 2916 -91 2278 -91 
Q 1894 -91 1617 61 
Q 1341 213 1159 525 
L 1159 0 
L 581 0 
L 581 4863 
L 1159 4863 
L 1159 2969 
z
" transform="scale(0.015625)"/>
      <path id="DejaVuSans-75" d="M 544 1381 
L 544 3500 
L 1119 3500 
L 1119 1403 
Q 1119 906 1312 657 
Q 1506 409 1894 409 
Q 2359 409 2629 706 
Q 2900 1003 2900 1516 
L 2900 3500 
L 3475 3500 
L 3475 0 
L 2900 0 
L 2900 538 
Q 2691 219 2414 64 
Q 2138 -91 1772 -91 
Q 1169 -91 856 284 
Q 544 659 544 1381 
z
M 1991 3584 
L 1991 3584 
z
" transform="scale(0.015625)"/>
      <path id="DejaVuSans-6f" d="M 1959 3097 
Q 1497 3097 1228 2736 
Q 959 2375 959 1747 
Q 959 1119 1226 758 
Q 1494 397 1959 397 
Q 2419 397 2687 759 
Q 2956 1122 2956 1747 
Q 2956 2369 2687 2733 
Q 2419 3097 1959 3097 
z
M 1959 3584 
Q 2709 3584 3137 3096 
Q 3566 2609 3566 1747 
Q 3566 888 3137 398 
Q 2709 -91 1959 -91 
Q 1206 -91 779 398 
Q 353 888 353 1747 
Q 353 2609 779 3096 
Q 1206 3584 1959 3584 
z
" transform="scale(0.015625)"/>
      <path id="DejaVuSans-20" transform="scale(0.015625)"/>
      <path id="DejaVuSans-66" d="M 2375 4863 
L 2375 4384 
L 1825 4384 
Q 1516 4384 1395 4259 
Q 1275 4134 1275 3809 
L 1275 3500 
L 2222 3500 
L 2222 3053 
L 1275 3053 
L 1275 0 
L 697 0 
L 697 3053 
L 147 3053 
L 147 3500 
L 697 3500 
L 697 3744 
Q 697 4328 969 4595 
Q 1241 4863 1831 4863 
L 2375 4863 
z
" transform="scale(0.015625)"/>
      <path id="DejaVuSans-2d" d="M 313 2009 
L 1997 2009 
L 1997 1497 
L 313 1497 
L 313 2009 
z
" transform="scale(0.015625)"/>
      <path id="DejaVuSans-55" d="M 556 4666 
L 1191 4666 
L 1191 1831 
Q 1191 1081 1462 751 
Q 1734 422 2344 422 
Q 2950 422 3222 751 
Q 3494 1081 3494 1831 
L 3494 4666 
L 4128 4666 
L 4128 1753 
Q 4128 841 3676 375 
Q 3225 -91 2344 -91 
Q 1459 -91 1007 375 
Q 556 841 556 1753 
L 556 4666 
z
" transform="scale(0.015625)"/>
      <path id="DejaVuSans-6b" d="M 581 4863 
L 1159 4863 
L 1159 1991 
L 2875 3500 
L 3609 3500 
L 1753 1863 
L 3688 0 
L 2938 0 
L 1159 1709 
L 1159 0 
L 581 0 
L 581 4863 
z
" transform="scale(0.015625)"/>
      <path id="DejaVuSans-77" d="M 269 3500 
L 844 3500 
L 1563 769 
L 2278 3500 
L 2956 3500 
L 3675 769 
L 4391 3500 
L 4966 3500 
L 4050 0 
L 3372 0 
L 2619 2869 
L 1863 0 
L 1184 0 
L 269 3500 
z
" transform="scale(0.015625)"/>
     </defs>
     <use xlink:href="#DejaVuSans-44"/>
     <use xlink:href="#DejaVuSans-69" x="77.001953"/>
     <use xlink:href="#DejaVuSans-73" x="104.785156"/>
     <use xlink:href="#DejaVuSans-74" x="156.884766"/>
     <use xlink:href="#DejaVuSans-72" x="196.09375"/>
     <use xlink:href="#DejaVuSans-69" x="237.207031"/>
     <use xlink:href="#DejaVuSans-62" x="264.990234"/>
     <use xlink:href="#DejaVuSans-75" x="328.466797"/>
     <use xlink:href="#DejaVuSans-74" x="391.845703"/>
     <use xlink:href="#DejaVuSans-69" x="431.054688"/>
     <use xlink:href="#DejaVuSans-6f" x="458.837891"/>
     <use xlink:href="#DejaVuSans-6e" x="520.019531"/>
     <use xlink:href="#DejaVuSans-20" x="583.398438"/>
     <use xlink:href="#DejaVuSans-6f" x="615.185547"/>
     <use xlink:href="#DejaVuSans-66" x="676.367188"/>
     <use xlink:href="#DejaVuSans-20" x="711.572266"/>
     <use xlink:href="#DejaVuSans-44" x="743.359375"/>
     <use xlink:href="#DejaVuSans-69" x="820.361328"/>
     <use xlink:href="#DejaVuSans-73" x="848.144531"/>
     <use xlink:href="#DejaVuSans-74" x="900.244141"/>
     <use xlink:href="#DejaVuSans-61" x="939.453125"/>
     <use xlink:href="#DejaVuSans-6e" x="1000.732422"/>
     <use xlink:href="#DejaVuSans-63" x="1064.111328"/>
     <use xlink:href="#DejaVuSans-65" x="1119.091797"/>
     <use xlink:href="#DejaVuSans-73" x="1180.615234"/>
     <use xlink:href="#DejaVuSans-20" x="1232.714844"/>
     <use xlink:href="#DejaVuSans-2d" x="1264.501953"/>
     <use xlink:href="#DejaVuSans-20" x="1300.585938"/>
     <use xlink:href="#DejaVuSans-55" x="1332.373047"/>
     <use xlink:href="#DejaVuSans-6e" x="1405.566406"/>
     <use xlink:href="#DejaVuSans-6b" x="1468.945312"/>
     <use xlink:href="#DejaVuSans-6e" x="1526.855469"/>
     <use xlink:href="#DejaVuSans-6f" x="1590.234375"/>
     <use xlink:href="#DejaVuSans-77" x="1651.416016"/>
     <use xlink:href="#DejaVuSans-6e" x="1733.203125"/>
     <use xlink:href="#DejaVuSans-20" x="1796.582031"/>
     <use xlink:href="#DejaVuSans-73" x="1828.369141"/>
     <use xlink:href="#DejaVuSans-74" x="1880.46875"/>
     <use xlink:href="#DejaVuSans-72" x="1919.677734"/>
     <use xlink:href="#DejaVuSans-75" x="1960.791016"/>
     <use xlink:href="#DejaVuSans-63" x="2024.169922"/>
     <use xlink:href="#DejaVuSans-74" x="2079.150391"/>
     <use xlink:href="#DejaVuSans-75" x="2118.359375"/>
     <use xlink:href="#DejaVuSans-72" x="2181.738281"/>
     <use xlink:href="#DejaVuSans-65" x="2220.601562"/>
     <use xlink:href="#DejaVuSans-73" x="2282.125"/>
    </g>
   </g>
   <g id="legend_1">
    <g id="patch_7">
     <path d="M 510.13125 89.19625 
L 641 89.19625 
Q 643 89.19625 643 87.19625 
L 643 58.84 
Q 643 56.84 641 56.84 
L 510.13125 56.84 
Q 508.13125 56.84 508.13125 58.84 
L 508.13125 87.19625 
Q 508.13125 89.19625 510.13125 89.19625 
z
" style="fill: #ffffff; opacity: 0.8; stroke: #cccccc; stroke-linejoin: miter"/>
    </g>
    <g id="patch_8">
     <path d="M 512.13125 68.438437 
L 532.13125 68.438437 
L 532.13125 61.438437 
L 512.13125 61.438437 
z
" style="fill: #1f77b4; fill-opacity: 0.25; stroke: #1f77b4; stroke-linejoin: miter"/>
    </g>
    <g id="text_19">
     <!-- Same Structure -->
     <g transform="translate(540.13125 68.438437) scale(0.1 -0.1)">
      <defs>
       <path id="DejaVuSans-53" d="M 3425 4513 
L 3425 3897 
Q 3066 4069 2747 4153 
Q 2428 4238 2131 4238 
Q 1616 4238 1336 4038 
Q 1056 3838 1056 3469 
Q 1056 3159 1242 3001 
Q 1428 2844 1947 2747 
L 2328 2669 
Q 3034 2534 3370 2195 
Q 3706 1856 3706 1288 
Q 3706 609 3251 259 
Q 2797 -91 1919 -91 
Q 1588 -91 1214 -16 
Q 841 59 441 206 
L 441 856 
Q 825 641 1194 531 
Q 1563 422 1919 422 
Q 2459 422 2753 634 
Q 3047 847 3047 1241 
Q 3047 1584 2836 1778 
Q 2625 1972 2144 2069 
L 1759 2144 
Q 1053 2284 737 2584 
Q 422 2884 422 3419 
Q 422 4038 858 4394 
Q 1294 4750 2059 4750 
Q 2388 4750 2728 4690 
Q 3069 4631 3425 4513 
z
" transform="scale(0.015625)"/>
       <path id="DejaVuSans-6d" d="M 3328 2828 
Q 3544 3216 3844 3400 
Q 4144 3584 4550 3584 
Q 5097 3584 5394 3201 
Q 5691 2819 5691 2113 
L 5691 0 
L 5113 0 
L 5113 2094 
Q 5113 2597 4934 2840 
Q 4756 3084 4391 3084 
Q 3944 3084 3684 2787 
Q 3425 2491 3425 1978 
L 3425 0 
L 2847 0 
L 2847 2094 
Q 2847 2600 2669 2842 
Q 2491 3084 2119 3084 
Q 1678 3084 1418 2786 
Q 1159 2488 1159 1978 
L 1159 0 
L 581 0 
L 581 3500 
L 1159 3500 
L 1159 2956 
Q 1356 3278 1631 3431 
Q 1906 3584 2284 3584 
Q 2666 3584 2933 3390 
Q 3200 3197 3328 2828 
z
" transform="scale(0.015625)"/>
      </defs>
      <use xlink:href="#DejaVuSans-53"/>
      <use xlink:href="#DejaVuSans-61" x="63.476562"/>
      <use xlink:href="#DejaVuSans-6d" x="124.755859"/>
      <use xlink:href="#DejaVuSans-65" x="222.167969"/>
      <use xlink:href="#DejaVuSans-20" x="283.691406"/>
      <use xlink:href="#DejaVuSans-53" x="315.478516"/>
      <use xlink:href="#DejaVuSans-74" x="378.955078"/>
      <use xlink:href="#DejaVuSans-72" x="418.164062"/>
      <use xlink:href="#DejaVuSans-75" x="459.277344"/>
      <use xlink:href="#DejaVuSans-63" x="522.65625"/>
      <use xlink:href="#DejaVuSans-74" x="577.636719"/>
      <use xlink:href="#DejaVuSans-75" x="616.845703"/>
      <use xlink:href="#DejaVuSans-72" x="680.224609"/>
      <use xlink:href="#DejaVuSans-65" x="719.087891"/>
     </g>
    </g>
    <g id="patch_9">
     <path d="M 512.13125 83.116562 
L 532.13125 83.116562 
L 532.13125 76.116562 
L 512.13125 76.116562 
z
" style="fill: #ff7f0e; fill-opacity: 0.25; stroke: #ff7f0e; stroke-linejoin: miter"/>
    </g>
    <g id="text_20">
     <!-- Different Structures -->
     <g transform="translate(540.13125 83.116562) scale(0.1 -0.1)">
      <use xlink:href="#DejaVuSans-44"/>
      <use xlink:href="#DejaVuSans-69" x="77.001953"/>
      <use xlink:href="#DejaVuSans-66" x="104.785156"/>
      <use xlink:href="#DejaVuSans-66" x="139.990234"/>
      <use xlink:href="#DejaVuSans-65" x="175.195312"/>
      <use xlink:href="#DejaVuSans-72" x="236.71875"/>
      <use xlink:href="#DejaVuSans-65" x="275.582031"/>
      <use xlink:href="#DejaVuSans-6e" x="337.105469"/>
      <use xlink:href="#DejaVuSans-74" x="400.484375"/>
      <use xlink:href="#DejaVuSans-20" x="439.693359"/>
      <use xlink:href="#DejaVuSans-53" x="471.480469"/>
      <use xlink:href="#DejaVuSans-74" x="534.957031"/>
      <use xlink:href="#DejaVuSans-72" x="574.166016"/>
      <use xlink:href="#DejaVuSans-75" x="615.279297"/>
      <use xlink:href="#DejaVuSans-63" x="678.658203"/>
      <use xlink:href="#DejaVuSans-74" x="733.638672"/>
      <use xlink:href="#DejaVuSans-75" x="772.847656"/>
      <use xlink:href="#DejaVuSans-72" x="836.226562"/>
      <use xlink:href="#DejaVuSans-65" x="875.089844"/>
      <use xlink:href="#DejaVuSans-73" x="936.613281"/>
     </g>
    </g>
   </g>
  </g>
 </g>
 <defs>
  <clipPath id="p15d35665b2">
   <rect x="90" y="51.84" width="558" height="332.64"/>
  </clipPath>
 </defs>
</svg>
